<svg viewBox="0 0 330 200" xmlns="http://www.w3.org/2000/svg"><g><g><g><g><g><line x1="46" y1="178" x2="41" y2="178" style="visibility: inherit;" fill="rgb(0, 0, 0)" stroke="rgb(204, 204, 204)" stroke-width="1px"></line><line x1="46" y1="158.22222222222229" x2="41" y2="158.22222222222229" style="visibility: inherit;" fill="rgb(0, 0, 0)" stroke="rgb(204, 204, 204)" stroke-width="1px"></line><line x1="46" y1="138.44444444444449" x2="41" y2="138.44444444444449" style="visibility: inherit;" fill="rgb(0, 0, 0)" stroke="rgb(204, 204, 204)" stroke-width="1px"></line><line x1="46" y1="118.6666666666667" x2="41" y2="118.6666666666667" style="visibility: inherit;" fill="rgb(0, 0, 0)" stroke="rgb(204, 204, 204)" stroke-width="1px"></line><line x1="46" y1="98.8888888888889" x2="41" y2="98.8888888888889" style="visibility: inherit;" fill="rgb(0, 0, 0)" stroke="rgb(204, 204, 204)" stroke-width="1px"></line><line x1="46" y1="79.1111111111111" x2="41" y2="79.1111111111111" style="visibility: inherit;" fill="rgb(0, 0, 0)" stroke="rgb(204, 204, 204)" stroke-width="1px"></line><line x1="46" y1="59.3333333333334" x2="41" y2="59.3333333333334" style="visibility: inherit;" fill="rgb(0, 0, 0)" stroke="rgb(204, 204, 204)" stroke-width="1px"></line><line x1="46" y1="39.5555555555556" x2="41" y2="39.5555555555556" style="visibility: inherit;" fill="rgb(0, 0, 0)" stroke="rgb(204, 204, 204)" stroke-width="1px"></line><line x1="46" y1="19.7777777777778" x2="41" y2="19.7777777777778" style="visibility: inherit;" fill="rgb(0, 0, 0)" stroke="rgb(204, 204, 204)" stroke-width="1px"></line><line x1="46" y1="0" x2="41" y2="0" style="visibility: inherit;" fill="rgb(0, 0, 0)" stroke="rgb(204, 204, 204)" stroke-width="1px"></line></g><g transform="translate(36, 0)"><text x="0" y="178" dx="0em" dy="0.3em" style="text-anchor: end; visibility: hidden; font-family: &quot;Helvetica Neue&quot;, sans-serif; font-size: 12px; font-weight: 200;" fill="rgb(50, 49, 63)" stroke="none" stroke-width="1px">2.7</text><text x="0" y="158.22222222222229" dx="0em" dy="0.3em" style="text-anchor: end; visibility: inherit; font-family: &quot;Helvetica Neue&quot;, sans-serif; font-size: 12px; font-weight: 200;" fill="rgb(50, 49, 63)" stroke="none" stroke-width="1px">2.8</text><text x="0" y="138.44444444444449" dx="0em" dy="0.3em" style="text-anchor: end; visibility: hidden; font-family: &quot;Helvetica Neue&quot;, sans-serif; font-size: 12px; font-weight: 200;" fill="rgb(50, 49, 63)" stroke="none" stroke-width="1px">2.9</text><text x="0" y="118.6666666666667" dx="0em" dy="0.3em" style="text-anchor: end; visibility: inherit; font-family: &quot;Helvetica Neue&quot;, sans-serif; font-size: 12px; font-weight: 200;" fill="rgb(50, 49, 63)" stroke="none" stroke-width="1px">3</text><text x="0" y="98.8888888888889" dx="0em" dy="0.3em" style="text-anchor: end; visibility: hidden; font-family: &quot;Helvetica Neue&quot;, sans-serif; font-size: 12px; font-weight: 200;" fill="rgb(50, 49, 63)" stroke="none" stroke-width="1px">3.1</text><text x="0" y="79.1111111111111" dx="0em" dy="0.3em" style="text-anchor: end; visibility: inherit; font-family: &quot;Helvetica Neue&quot;, sans-serif; font-size: 12px; font-weight: 200;" fill="rgb(50, 49, 63)" stroke="none" stroke-width="1px">3.2</text><text x="0" y="59.3333333333334" dx="0em" dy="0.3em" style="text-anchor: end; visibility: hidden; font-family: &quot;Helvetica Neue&quot;, sans-serif; font-size: 12px; font-weight: 200;" fill="rgb(50, 49, 63)" stroke="none" stroke-width="1px">3.3</text><text x="0" y="39.5555555555556" dx="0em" dy="0.3em" style="text-anchor: end; visibility: inherit; font-family: &quot;Helvetica Neue&quot;, sans-serif; font-size: 12px; font-weight: 200;" fill="rgb(50, 49, 63)" stroke="none" stroke-width="1px">3.4</text><text x="0" y="19.7777777777778" dx="0em" dy="0.3em" style="text-anchor: end; visibility: hidden; font-family: &quot;Helvetica Neue&quot;, sans-serif; font-size: 12px; font-weight: 200;" fill="rgb(50, 49, 63)" stroke="none" stroke-width="1px">3.5</text><text x="0" y="0" dx="0em" dy="0.3em" style="text-anchor: end; visibility: hidden; font-family: &quot;Helvetica Neue&quot;, sans-serif; font-size: 12px; font-weight: 200;" fill="rgb(50, 49, 63)" stroke="none" stroke-width="1px">3.6</text></g><line x1="46" y1="0" x2="46" y2="178" fill="rgb(0, 0, 0)" stroke="rgb(204, 204, 204)" stroke-width="1px"></line></g></g><g transform="translate(46, 0)" clip-path="url(#clip_0)"><clipPath id="clip_0"><rect width="284" height="178"></rect></clipPath><g><g><g><line x1="0" y1="0" x2="0" y2="178" fill="rgb(0, 0, 0)" stroke="rgb(60, 60, 60)" stroke-width="1px" opacity="0.25"></line><line x1="35.5" y1="0" x2="35.5" y2="178" fill="rgb(0, 0, 0)" stroke="rgb(60, 60, 60)" stroke-width="1px" opacity="0.25"></line><line x1="71" y1="0" x2="71" y2="178" fill="rgb(0, 0, 0)" stroke="rgb(60, 60, 60)" stroke-width="1px" opacity="0.25"></line><line x1="106.5" y1="0" x2="106.5" y2="178" fill="rgb(0, 0, 0)" stroke="rgb(60, 60, 60)" stroke-width="1px" opacity="0.25"></line><line x1="142" y1="0" x2="142" y2="178" fill="rgb(0, 0, 0)" stroke="rgb(60, 60, 60)" stroke-width="1px" opacity="0.25"></line><line x1="177.5" y1="0" x2="177.5" y2="178" fill="rgb(0, 0, 0)" stroke="rgb(60, 60, 60)" stroke-width="1px" opacity="0.25"></line><line x1="213" y1="0" x2="213" y2="178" fill="rgb(0, 0, 0)" stroke="rgb(60, 60, 60)" stroke-width="1px" opacity="0.25"></line><line x1="248.5" y1="0" x2="248.5" y2="178" fill="rgb(0, 0, 0)" stroke="rgb(60, 60, 60)" stroke-width="1px" opacity="0.25"></line><line x1="284" y1="0" x2="284" y2="178" fill="rgb(0, 0, 0)" stroke="rgb(60, 60, 60)" stroke-width="1px" opacity="0.25"></line></g><g><line x1="0" y1="178" x2="284" y2="178" fill="rgb(0, 0, 0)" stroke="rgb(60, 60, 60)" stroke-width="1px" opacity="0.25"></line><line x1="0" y1="158.22222222222229" x2="284" y2="158.22222222222229" fill="rgb(0, 0, 0)" stroke="rgb(60, 60, 60)" stroke-width="1px" opacity="0.25"></line><line x1="0" y1="138.44444444444449" x2="284" y2="138.44444444444449" fill="rgb(0, 0, 0)" stroke="rgb(60, 60, 60)" stroke-width="1px" opacity="0.25"></line><line x1="0" y1="118.6666666666667" x2="284" y2="118.6666666666667" fill="rgb(0, 0, 0)" stroke="rgb(60, 60, 60)" stroke-width="1px" opacity="0.25"></line><line x1="0" y1="98.8888888888889" x2="284" y2="98.8888888888889" fill="rgb(0, 0, 0)" stroke="rgb(60, 60, 60)" stroke-width="1px" opacity="0.25"></line><line x1="0" y1="79.1111111111111" x2="284" y2="79.1111111111111" fill="rgb(0, 0, 0)" stroke="rgb(60, 60, 60)" stroke-width="1px" opacity="0.25"></line><line x1="0" y1="59.3333333333334" x2="284" y2="59.3333333333334" fill="rgb(0, 0, 0)" stroke="rgb(60, 60, 60)" stroke-width="1px" opacity="0.25"></line><line x1="0" y1="39.5555555555556" x2="284" y2="39.5555555555556" fill="rgb(0, 0, 0)" stroke="rgb(60, 60, 60)" stroke-width="1px" opacity="0.25"></line><line x1="0" y1="19.7777777777778" x2="284" y2="19.7777777777778" fill="rgb(0, 0, 0)" stroke="rgb(60, 60, 60)" stroke-width="1px" opacity="0.25"></line><line x1="0" y1="0" x2="284" y2="0" fill="rgb(0, 0, 0)" stroke="rgb(60, 60, 60)" stroke-width="1px" opacity="0.25"></line></g></g></g><g><g><line x1="0" y1="712.0000000000001" x2="284" y2="712.0000000000001" fill="rgb(0, 0, 0)" stroke="rgb(153, 153, 153)" stroke-width="1.5px"></line></g></g><g><g><line x1="35.5" y1="0" x2="35.5" y2="178" fill="rgb(0, 0, 0)" stroke="rgb(153, 153, 153)" stroke-width="1.5px"></line></g></g><g><g><g><g><g><path style="fill: none;" stroke="rgb(204, 51, 17)" stroke-width="2px" d="M35.855,93.18474801381431L35.926,87.68791046844566L36.281,134.28567284314L36.494,142.07287388813427L36.565,143.79394925167486L36.778,134.0707128689898L36.92,115.71779068079073L37.204,142.21454443877064L38.056000000000004,174.61320824121563L38.34,168.93487225336622L38.482,156.6336520107128L38.624,159.15205309505606L38.695,156.10204251697132L38.837,159.7557696233096L39.263000000000005,164.9368928386918L39.334,158.57993404938483L39.405,168.4536654834899L39.476000000000006,180.21994466273017L39.547000000000004,170.7163035575063L40.114999999999995,174.2764931548569L40.327999999999996,172.90854975876542L40.541,166.4068687284766L40.611999999999995,173.67244862828053L40.683,171.40460276870937L40.754,167.30797365938034L41.108999999999995,168.52951815914076L41.677,161.61768118797926L41.748,164.27785867933622L42.174,171.4142283449882L42.742,171.1473436776499L42.955,173.05147917352983L43.025999999999996,174.09407807013258L43.522999999999996,173.15566159655137L43.736,178.21921199349958L43.878,175.71208454754932L44.446,173.67704474190205L44.659,174.80046073914804L44.73,172.13405473520737L45.369,167.27806679020864L45.511,166.368582473296L45.582,165.24492987791768L45.653,164.2244960993305L46.15,161.1521651229732L46.505,159.26314590893318L46.647000000000006,161.47755946628484L46.718,160.8068943697882L47.002,158.72303945452506L47.357,156.9553432127787L47.428000000000004,160.53875140396417L47.641000000000005,158.63641357940338L48.067,155.82516338144362L48.138000000000005,155.44855693474526L48.28,155.81117008471784L48.493,154.5572051272651L48.635000000000005,157.06520856436725L48.706,156.50889035208513L48.848,155.4253860383462L48.989999999999995,152.5619831855807L49.06099999999999,151.1415770660439L49.558,149.0620290149923L50.126,148.05878629428645L50.196999999999996,150.01833591280493L50.268,147.01587724796153L50.552,145.0085432263125L51.262,143.1352867936977L51.333,144.19151275546102L51.475,142.16159045032336L51.759,140.28886925491574L51.972,140.27238556323454L52.043,139.3424054486264L52.114,138.22773373348673L52.327,138.37980196485853L53.179,137.57112972919742L53.605,141.09386461032295L53.818,140.93436482470554L53.96,140.72574212923791L54.031,141.21109202429844L54.173,139.6894374597433L54.457,139.7909754124073L54.741,138.9313587014758L54.883,139.11302560093907L55.238,137.480117203654L56.232,136.6117513707821L56.587,136.55277860263092L56.658,136.04595883598756L56.942,134.75279104791025L57.013000000000005,134.20413017963415L57.297000000000004,134.59021594952924L57.368,133.48557753785124L57.510000000000005,132.96584954845807L57.723,133.2928144403654L58.077999999999996,133.23130841118456L58.148999999999994,132.76808389543007L58.22,136.0354419081868L58.574999999999996,136.23217641460963L58.645999999999994,135.16799045397858L58.717,134.69843998334164L58.93,134.33821183127438L59.568999999999996,133.40602915384196L59.711,132.63262691545503L60.137,132.64309984353008L60.562999999999995,131.5043924713621L60.634,131.59364406629857L61.06,130.65927219396056L61.272999999999996,130.286194132292L61.557,129.63259912543867L61.841,127.87170135541712L61.983,127.7327336714794L62.267,129.6290290505404L62.338,129.55793995662611L62.409,128.21668374852038L62.551,128.16295809412802L62.906,130.54866319189784L63.261,129.7692083501891L63.332,129.2590747379918L63.403,128.36776504861405L64.468,127.17019355147877L64.965,126.06600749046936L65.391,124.7851059206021L65.462,123.96937516895277L65.604,123.26213447210964L65.74600000000001,123.19960639696612L66.03,122.57482448856742L66.669,121.83858212380993L66.81099999999999,122.05366161338368L66.88199999999999,121.4597771828357L67.095,121.64873733370526L67.521,122.53380031182712L68.089,121.41215750586302L68.16,120.60744727794409L68.373,120.52274149083249L68.444,119.0187476862317L69.083,117.8084721145738L69.154,117.55920035308779L69.935,116.87144783495518L70.148,116.08639235414518L70.219,116.20094675902521L70.361,116.2984915931572L70.503,115.49992926881535L71.49699999999999,114.77387630285325L71.852,116.88287727009458L71.994,116.35068744912527L72.207,116.00370048762433L72.34899999999999,115.80607141883104L72.70400000000001,115.17786838620134L72.77499999999999,114.28851664781342L73.201,113.90393645369342L73.34299999999999,114.07402797544853L73.414,113.84584470226989L73.556,112.87558503441873L73.627,115.03265005472909L73.84,114.61223663142732L73.982,114.47420737516865L74.33699999999999,114.16609170418155L74.408,114.0357761932747L75.047,114.09729428188146L75.189,113.44543770148948L75.473,112.57932311463031L75.54400000000001,112.14825881848921L75.615,111.52436878449248L75.899,110.46325368508647L76.18299999999999,110.35347260430586L76.254,110.10527200744524L76.467,109.92876783629019L76.609,109.57579102123712L76.68,108.82222736598851L76.75099999999999,107.85219873849893L76.822,107.87387922269245L76.893,107.94764536574698L76.964,107.87380061915968L77.10600000000001,108.1969280066823L77.17699999999999,108.10561508578733L77.53200000000001,108.46015371596887L77.603,108.69770245671202L77.887,108.87408760703394L78.10000000000001,108.08477572560558L78.242,108.81768841236415L78.668,108.00761755459945L78.81,107.53497626942486L79.165,107.16065051163069L79.449,106.78412918049249L79.52000000000001,105.82459417487058L79.662,105.5181849945427L80.514,105.16140880872616L81.011,104.39094010298895L81.082,105.00430311535085L81.22399999999999,104.25600429324237L81.295,104.26049605355581L81.366,103.802515661445L81.437,104.13516010580368L81.57900000000001,103.7423077109806L81.79199999999999,102.97041826406269L82.076,102.26422109620825L82.147,101.56361781994252L82.431,101.30903874663863L82.64399999999999,101.45897714422973L82.928,100.86191454788894L83.141,101.89643895902991L83.21199999999999,101.89022848901828L83.283,101.61778720746905L83.354,101.6665227585546L83.425,101.92436444578061L83.56700000000001,101.74930006438514L83.63799999999999,101.57001781142712L83.709,101.21302354926839L83.922,100.6259561618138L83.99300000000001,100.10048409717606L84.064,100.17134512308773L84.20599999999999,101.07077418924098L84.348,100.76298759412057L84.41900000000001,100.70384362798605L84.916,100.07224791754712L85.129,99.92204475309175L85.41300000000001,99.8991846692303L85.62599999999999,99.5257725368473L85.768,100.70336794140779L85.91,100.09673877597488L86.194,100.26287622157287L86.478,99.77276435912071L86.691,99.2725900770481L86.762,98.71676392561425L86.83300000000001,98.55013298125192L86.904,98.06697183345251L87.33,97.96146328439364L87.756,97.68819636370583L87.898,97.36767939890737L87.96900000000001,96.85603558019295L88.25300000000001,97.25790547014006L88.466,96.98716177185034L88.537,96.9605789564941L88.75,96.59348284573306L88.821,96.72914771073334L88.892,95.93299327542348L89.034,95.86461566114555L89.176,95.84164021166855L89.602,95.72295758238029L89.815,94.97283576415045L89.886,94.94408554088939L90.09899999999999,94.86674926145648L90.17,94.51500224567866L90.241,93.90383747458199L90.383,93.74689144002984L90.45400000000001,93.46436144630637L90.88,93.22341420338907L91.164,92.61239070708045L91.235,92.3937469390666L91.377,93.24765139673362L91.51899999999999,93.15541136507849L91.661,92.79124546467708L91.732,93.25030003160553L91.803,92.78718476015717L91.87400000000001,92.50609391371012L91.945,92.65900386572793L92.158,92.53377528639217L92.3,92.3801760387048L92.44200000000001,92.34111700851689L92.655,92.27160048446638L92.797,92.56594468734144L92.86800000000001,92.58457866637053L92.939,92.40102985724819L93.365,91.94554442435812L93.436,91.87710834248168L93.578,91.94948995387847L93.791,91.6308327795309L94.075,91.29419847729697L94.28800000000001,91.0797296213884L94.50099999999999,90.65666813811886L94.572,90.61904791239182L94.714,90.12539118476278L94.85600000000001,89.79208031763639L94.998,89.42557879166343L95.353,89.16909961185152L95.566,88.7909973720646L95.70800000000001,88.69137977458813L96.773,88.52120977482001L97.057,88.49758305279094L97.199,88.24660517484142L97.27000000000001,88.12714491584248L97.554,88.09320856713933L97.696,88.12142617364499L97.767,87.53872972146351L97.97999999999999,87.52409477565207L98.12199999999999,87.26766517428847L98.264,87.14425886807733L98.477,87.15291398958472L98.619,86.88246088962252L98.69,86.65477358160024L98.832,86.60847850974832L99.116,86.2788706390141L99.39999999999999,86.26995306964166L99.897,86.20625197727426L99.96799999999999,85.6209941976886L100.039,85.22407865543607L100.11,85.11803321595225L100.252,85.36562733882323L100.465,85.45644385836603L100.536,85.43023092527149L100.607,85.06318390663652L100.82,84.92855439877661L100.891,85.15889395207368L100.96199999999999,84.97240132687301L101.033,84.77731174404728L101.601,84.73861658267336L101.672,84.3647878897357L101.885,83.97679121227891L102.38199999999999,83.75547387662213L102.595,83.40539012575346L103.16300000000001,83.31942024666029L103.234,83.26555891980087L103.37599999999999,82.8179415956291L103.447,82.69444949134488L103.518,82.48991385347247L103.73100000000001,82.48908026594842L103.80199999999999,82.163694805752L103.944,81.84475512133857L104.086,81.32750944203183L104.441,80.83127485165858L104.512,80.51016587057987L104.79599999999999,80.26742980984018L104.867,80.26084581662067L104.938,80.05912503601733L105.009,80.31921966002093L105.222,79.9994849427302L105.293,80.01373718585403L105.364,79.78634245355826L105.57700000000001,79.51049934095933L105.648,79.26792211366809L106.216,79.5400226579966L106.5,79.1033554363194L106.642,79.26206523136662L106.784,79.09411280554559L106.85499999999999,78.80135018364666L107.068,78.73785790595079L107.28099999999999,78.30955436776065L107.352,78.2892009848511L107.42299999999999,77.95904249986731L107.494,78.06505605700247L107.707,77.68125960672211L108.27499999999999,77.44069910305363L108.41699999999999,77.1036369391862L108.559,77.05798022478103L108.701,76.7826075120915L108.772,76.64088307993855L108.985,76.46540752084175L109.127,76.11785835063718L109.26899999999999,75.85866373487482L109.62400000000001,75.4274369020293L110.121,75.0702137828072L110.19200000000001,75.046076829339L110.405,75.04348377264759L110.547,74.61516693789535L110.973,75.02070473593523L111.04400000000001,75.37424233276477L111.186,75.40725695693608L111.328,75.17964019289178L111.61200000000001,75.18256415636793L111.896,74.90502728213342L112.03800000000001,74.65786991588627L112.393,74.38048338342823L112.464,74.17235953636246L112.535,74.13726567412327L113.03200000000001,73.96088348011405L113.103,73.86887721572018L113.529,73.76242659334402L113.813,73.53745793377915L113.884,73.31330084083308L113.955,72.95326801511015L114.59400000000001,72.63893009658827L114.736,72.69826908862478L114.949,72.42787712693391L115.375,72.0904533080164L115.446,71.69998841162923L115.72999999999999,71.55123986000787L115.943,71.42463614602876L116.014,71.30065175084674L116.085,71.06703800594981L116.29799999999999,70.91043332068062L117.07900000000001,70.79600562546122L117.29199999999999,70.5269698276487L117.505,70.17193506271471L117.576,70.39027322640312L117.647,70.01423486914105L117.86,70.99809521705377L117.931,70.93524025806303L118.002,70.68903505134176L119.06700000000001,70.52552743593279L119.28,70.34498063428968L119.422,70.51667124930268L119.49300000000001,70.30135543683193L119.635,70.09667412187095L119.70599999999999,70.07026671156068L119.91900000000001,70.02533946242045L120.13199999999999,69.67649019795829L120.203,69.3940302048331L120.345,69.39670318820573L120.48700000000001,69.13096018236493L120.629,68.75137367998896L120.771,68.4229410197089L120.984,68.27928973227314L121.12599999999999,68.43080581551432L121.268,68.62625462978816L121.41,68.34388196042298L121.55199999999999,68.77337663035281L121.694,69.55730872715868L122.404,69.3933232462468L122.688,69.30473363569104L122.972,69.14398715230692L123.043,69.13054967705735L123.114,69.69276657441384L123.256,69.61181781541293L123.46900000000001,69.55096586164646L123.682,69.1178536494394L123.824,69.15543115945107L124.037,69.04123091844673L124.463,68.84124424990594L124.60499999999999,68.51591932824329L124.74699999999999,68.23803914516562L124.818,68.15142505520734L125.03099999999999,67.80280909370192L125.102,67.74956076116842L125.17299999999999,67.48294686469174L125.386,67.40519213372905L125.95400000000001,67.16254853488165L126.309,67.03279469378505L126.451,66.98568242083974L126.877,67.389889126747L127.161,67.3923434932151L127.232,67.26350321285936L127.303,67.12883387693915L127.37400000000001,66.89073024194565L127.8,66.56583099020057L128.013,66.1862241824813L128.51,66.14831998718996L128.65200000000002,66.05235117188474L128.865,66.03648505958776L128.936,65.67510934735326L129.149,65.58745568752312L129.22,65.61969355970201L129.575,65.63880504984323L129.64600000000002,65.43449629191717L129.71699999999998,65.36916654583116L129.93,65.26666276472389L130.143,64.91156263723195L130.214,64.58769690889054L130.285,64.26129697533158L130.356,64.24375230463733L130.427,64.17194170938897L130.853,64.12033198231205L131.279,63.761660954129624L131.705,63.84209648874861L131.989,63.52998381591529L132.131,63.5437580140139L132.48600000000002,63.370895652476804L132.77,63.169752163041494L133.267,63.118976022698334L133.409,62.95547636960053L133.62199999999999,62.79905890635679L133.76399999999998,62.63616261908189L133.835,62.34076159607231L134.048,62.231973718951L134.119,62.1000748970437L134.261,61.833368473026425L134.332,61.48135647468186L134.545,61.340801332138795L135.75199999999998,61.0767212841117L135.823,60.818292324729896L135.894,60.758598859913135L135.965,60.56595875718686L136.249,60.51518243439628L136.462,60.1877082246383L136.746,59.922644117013164L136.817,59.68725678950382L136.888,59.46993168276519L137.172,59.41941189956404L137.243,59.33707389472933L137.314,59.35763153124873L137.456,59.2927392675213L137.59799999999998,59.24577915293233L137.74,59.161001422861574L137.882,59.22818020374035L138.45,58.91477722839666L138.805,58.8118975092965L138.876,58.69136793663246L139.51500000000001,58.60398729649047L139.58599999999998,58.555326463954785L140.36700000000002,58.241825419314225L140.722,58.47554869890193L140.935,58.168101231882474L141.006,57.94877859672772L141.219,57.87874720946844L141.36100000000002,57.67226643119028L141.432,57.71006744618707L142,57.542848391221696L142.071,57.33934473244018L142.142,57.22854311088034L142.21300000000002,57.07322780671342L142.426,56.893436187745195L142.568,56.81794883673629L142.63899999999998,56.72677594372013L142.70999999999998,56.6111853395647L143.278,56.29290447798823L143.633,56.2451570573308L143.704,56.07480558695795L143.917,55.835121441795934L144.414,55.49818002585053L144.556,55.18148110590596L145.266,54.94688475969144L145.621,54.69980594286697L145.692,54.473031124580075L145.83399999999997,54.24773647673919L145.905,54.12038829501691L146.331,53.87509581382636L146.402,53.8416421830221L146.828,53.6297263918009L146.899,53.621561917481586L147.53799999999998,53.40479768166874L147.822,53.30871259543589L147.964,53.086437096672284L148.24800000000002,52.870148071859134L148.887,52.727139396888816L149.02900000000002,52.41406490060105L149.242,52.41464863560262L149.38400000000001,52.13222864754316L149.455,52.01218482761915L149.81,51.81851859666469L150.023,51.72316316785147L150.378,51.674207203989525L150.52,51.44006197520629L150.804,51.174595909594274L150.946,51.046388157585255L151.017,51.00950681444071L151.08800000000002,50.91799604119787L151.23,50.80006181431544L151.372,50.66273193746697L151.727,50.47778671011973L151.94,50.312425840227235L152.082,50.43032422207922L152.295,50.24327589112934L152.508,50.26651045863166L152.792,50.107594103255764L153.005,49.838488380347L153.289,49.54126388858256L153.36,49.52151429903188L153.431,49.343837559941306L153.928,49.22770694162969L154.07,49.33948019439501L154.21200000000002,49.07632480185001L154.42499999999998,48.79712955712492L154.496,48.66228529883034L154.922,48.53875369700319L154.993,48.30743262374236L155.277,48.51738086517912L155.56099999999998,48.35695447793515L155.774,48.203069228695455L155.845,48.00723348234831L155.91600000000003,47.757239037922346L155.987,47.84903673602878L156.129,47.60791278258671L156.34199999999998,47.43757322406475L156.839,47.21602069621039L156.91,47.034600234119296L157.265,46.84067069972275L157.407,46.580106086153705L157.478,46.35081907789211L157.54899999999998,46.209807837974296L158.18800000000002,46.2587530517533L158.472,46.07887095061287L158.543,46.04826223497537L158.614,46.20967051541419L158.685,46.04133529518043L158.827,45.81386773368479L159.182,45.76090620343567L159.253,45.75000901137372L159.395,45.54897829712891L159.466,45.358399958895745L159.53699999999998,45.08322012989012L159.75,45.00257459734823L159.892,44.8593957999619L159.96300000000002,44.59227082174212L160.034,44.495770763595715L160.673,44.25050349358L160.886,44.3792154188605L161.525,44.192903419250484L161.95100000000002,44.18830243645965L162.022,44.14563965026443L162.44799999999998,44.192618145161674L162.519,44.10975837362463L162.59,44.04475303364606L162.732,43.78670948570641L163.15800000000002,43.828716595005915L163.58399999999997,43.785653945974616L163.655,43.67386605789858L164.223,43.446386938310496L164.294,43.37735393191673L164.507,43.22913083819816L164.72,43.21511048431094L165.004,43.01197695544383L165.14600000000002,43.48931448763125L165.43,43.77261300261321L165.856,43.878130321450215L166.14,43.865678681912925L166.211,44.01810417950662L166.42399999999998,44.1607212484852L166.566,44.07983929535314L166.77900000000002,44.14024821794024L167.06300000000002,43.994312100549024L167.205,43.85937892869691L167.347,43.67942690495843L167.418,43.52007615748417L167.489,43.722481500631034L167.98600000000002,43.646786272986475L168.128,43.46602838175011L168.199,43.35443803039263L168.625,43.12639292709983L168.696,42.98114965331405L168.767,42.918158356025515L168.909,42.80327510434819L169.051,42.602133585748135L169.903,42.55554116774903L170.542,42.37472682409381L170.82600000000002,42.708541143058994L171.181,42.52478137154955L171.25199999999998,42.35650017268398L171.607,43.102901195848915L171.678,43.39084549808646L171.749,43.297313441601716L172.03300000000002,43.29963873226012L172.10399999999998,43.306923454771834L172.53,43.12107789197856L172.81400000000002,43.028353517539784L172.885,42.880590873171116L172.956,42.72053670890139L173.098,42.92637550566877L173.169,42.87923151277536L173.524,42.75829642351832L173.737,42.65933444884729L173.879,42.496259216790236L174.09199999999998,42.41963663892727L174.305,42.4022257974909L174.518,42.902455576408045L174.66,42.764679505364285L175.086,42.804198925684915L175.157,42.729848214562L175.29899999999998,42.59605921209862L175.441,42.518577699491146L176.08,42.39655630984521L176.15099999999998,42.22569652552204L176.222,42.21369803560981L176.293,42.03093334930864L177.28699999999998,42.08950074793054L177.571,41.943393019304864L177.855,41.93487082168079L177.926,41.828815071242246L178.13899999999998,41.74709739773769L178.20999999999998,41.65589543035642L178.423,42.33647942590517L178.565,42.269022704716605L178.707,42.12052308257262L179.06199999999998,41.96448372137604L179.275,42.14401582279373L179.417,42.385471690064975L179.488,42.40585482936493L179.63,42.15625759840799L179.843,41.94486452394915L180.056,41.88603842220755L180.19799999999998,41.74213927682396L180.411,41.73698470797282L180.624,41.55603378105994L180.695,41.67994332427847L180.90800000000002,41.630902482631654L181.121,41.50487980336635L181.68900000000002,41.39417872602485L181.76,41.452927150852645L181.902,41.33767182170905L182.257,41.46502884088184L182.612,41.45712293220373L182.683,41.42064529750945L182.754,41.21288213618172L182.89600000000002,41.068282446173725L182.96699999999998,40.881420896172756L183.109,40.73694413247702L183.251,40.62410631413479L183.464,40.62250538334419L183.535,40.485795532163195L183.819,40.35949703735909L184.17399999999998,40.23313341601897L184.316,40.22788805210004L184.742,40.05101432919989L184.81300000000002,39.961369490801815L184.88400000000001,39.92509117590751L184.955,39.91434889757247L185.02599999999998,39.8410482430657L185.239,39.68260938901565L185.38100000000003,39.5513168914066L185.594,39.56099437303013L185.66500000000002,39.446650904578945L185.878,39.30947876277193L186.02,39.835883168196574L186.16199999999998,39.7134885838112L186.233,39.49817619212379L186.304,39.47518828295159L186.58800000000002,39.37734398042011L186.872,39.223973105270005L186.943,39.2150521104964L187.01399999999998,39.108384898080004L187.298,39.049683839261206L187.36899999999997,38.954193677946364L187.511,38.88680797392283L187.582,38.77832285243662L187.72400000000002,38.6097266924931L187.795,38.50131073762137L187.86599999999999,38.34358619865628L188.008,38.31045636825078L188.079,38.15274624696005L188.22099999999998,38.02787062177481L188.434,37.96345960054737L188.57600000000002,38.642619958199504L188.647,38.49365417344103L189.07299999999998,38.35902775519682L189.144,38.655986843537164L189.215,38.82146115099013L189.499,38.662100983197234L189.641,38.57598537898215L189.78300000000002,38.440779338263354L190.067,38.3997906660496L190.56400000000002,38.24485133213088L190.777,38.50848881003145L190.919,38.30551009456016L191.06099999999998,38.199903889865595L191.132,38.09519356435226L191.41600000000003,37.96484875848233L191.558,37.82087938260938L191.629,37.79237533222883L191.70000000000002,37.72654244817002L191.91299999999998,37.74687434777391L191.984,37.6391359029289L192.197,37.77521753335998L192.268,38.07368234523503L192.481,37.86502272565875L192.694,37.784064862414596L192.978,37.74053262563854L193.40400000000002,37.54793467874737L193.475,37.604094471361265L193.68800000000002,37.54939459871872L193.75900000000001,37.433588366013225L193.90099999999998,37.349102935446496L194.043,37.239224307639574L194.114,37.18970542295662L194.25600000000003,37.170526942235625L194.327,37.065852077443935L194.469,37.219585117400555L194.54000000000002,37.098764269574076L194.61100000000002,37.02534741274789L194.682,36.92105937167611L194.824,36.85808735822866L194.966,36.81610811975477L195.03699999999998,36.76523705251063L195.321,36.57803014130977L195.392,36.49455527292096L195.534,36.39095198004358L195.747,36.21993631229927L195.88899999999998,36.14092466941608L196.102,36.052397803389994L196.954,35.90549935888629L197.238,35.89868649243874L197.45100000000002,35.695834039896766L197.806,35.614843186158396L197.94799999999998,35.542165752240464L198.161,35.48105684499865L198.58700000000002,35.50243259354781L198.65800000000002,35.38438954745203L198.79999999999998,35.34374535621254L199.013,35.18141147561144L199.226,35.13418930734528L199.297,34.971710828826275L199.368,35.484243088448665L200.007,35.37410556844509L200.078,35.367845693552255L200.149,35.300642392062485L200.22,35.27174270732621L200.362,35.22706891484208L200.504,35.2541979065457L200.71699999999998,35.24564721711121L201.072,35.14664362233975L201.214,35.0316639542373L201.285,34.87805669098867L201.356,34.810978547193514L201.42700000000002,34.70957788756971L201.995,34.555816900294275L202.63400000000001,34.91377863350877L202.989,34.856003645174155L203.557,34.78983392876839L203.628,34.71683174214249L203.841,34.61932153766904L204.125,34.51294045250256L204.33800000000002,34.41048183989889L204.622,34.734871141209084L204.83499999999998,34.96189533750177L205.048,34.811848026993374L205.11899999999997,34.71096522137401L205.19,34.56867597124028L205.332,34.44705385268222L205.9,34.35585781437419L206.042,34.38132998247869L206.184,34.271305285744916L206.32600000000002,34.25034883790775L206.681,34.08945049805402L207.036,34.364087049968816L207.60399999999998,34.234602389133045L207.67499999999998,34.13001143607525L207.746,33.97490098779292L208.03,33.84797962573549L208.243,33.71992452685137L208.456,33.638897076114034L209.024,33.51941716352974L209.16600000000003,33.45500084257728L209.45000000000002,33.35804416052221L209.52100000000002,33.28754289361163L209.59199999999998,33.17582896491649L209.66299999999998,33.14847784091552L209.805,33.04935482035796L209.947,33.0030979177713L210.16,32.93752372181055L210.37300000000002,32.889466195038324L210.444,32.82088644476602L210.586,32.656240415559864L210.728,32.536380888931575L211.225,32.49864180639531L211.50900000000001,32.636953964530505L211.65099999999998,32.771649997762495L211.793,32.74070654270648L211.935,32.64075468993616L212.00600000000003,32.5989743335231L212.148,32.49911905434624L212.36100000000002,32.3798064234885L212.503,32.342628126816834L212.716,32.22382799096982L212.858,32.163888956061925L213.071,32.047350756809976L213.142,31.935126801163506L213.21300000000002,31.83916287001938L213.923,31.866758106393405L213.99399999999997,31.78533746573561L214.136,31.66407689819809L214.207,31.741470332076716L214.278,31.659203596554534L214.34900000000002,31.60089763113774L214.56199999999998,31.66764192474662L214.633,31.60654129492454L214.775,31.511198260413636L214.988,31.43863492480486L215.13,32.021686010117264L215.272,31.88221432992742L215.414,31.87362004574055L216.053,31.828489555022998L216.124,31.831344053905838L216.33700000000002,31.69602713526575L216.47899999999998,31.639194820946784L216.621,31.67758361245231L216.763,31.560915666366952L216.905,31.375576510998826L216.976,31.355317377379066L217.18900000000002,31.3354202841565L217.615,31.371688703167194L217.68599999999998,31.200829162669947L217.97,31.120007697303464L218.183,31.039781996516098L218.39600000000002,30.973610851631264L218.53799999999998,30.82269372690763L218.609,30.704279358973764L218.893,30.64907581454537L219.17700000000002,30.612237257269157L219.39,30.599658553183104L219.461,30.478703207651364L219.532,30.397096100658786L219.603,30.30437931329675L219.816,30.220328633072057L220.1,30.266289179546476L220.242,30.137691449110207L220.52599999999998,30.05537995941762L220.597,29.894824233304888L220.739,29.716239026184894L220.81,29.734384454966232L221.16500000000002,29.70892695056139L221.378,29.64500961696737L221.449,29.67906154466317L221.591,29.610148403252907L221.733,29.495466336708006L221.875,29.392165999059756L221.946,29.376955720578565L222.159,29.262696586279617L222.23,29.317625196545777L222.372,29.33850515456524L222.58499999999998,29.286185226413977L222.656,29.17613740191109L222.798,29.138253983729697L223.22400000000002,29.078793712587213L223.43699999999998,28.986552219596092L223.65,28.90125485869231L223.72099999999998,28.852275170546932L224.005,28.71624115925647L224.431,28.562129290702188L225.35399999999998,28.520179982088393L225.638,28.4433731571838L225.78,28.462024127268222L226.135,28.344455265802196L226.348,28.53219401553858L226.49,28.452961245826003L226.774,28.51649577097143L227.129,28.435802136488036L227.41299999999998,28.441212131188536L227.697,28.652862534769127L227.91,28.57378781260843L228.54899999999998,28.555114001592642L228.975,28.61260710241683L229.685,28.520032763830642L229.75600000000003,28.505168114416136L229.827,28.387368292303904L230.04000000000002,28.308974952897074L230.11100000000002,28.324849411980466L230.466,28.245700042197285L230.608,28.291385993397L230.892,28.13851484173898L230.96300000000002,28.07003513238962L231.034,28.06629109625584L231.105,27.88893680215989L231.176,27.771141796135396L231.247,27.754310142239262L231.318,27.607786219527355L231.886,27.747451407312184L232.09900000000002,27.6417695763391L232.525,27.797928670510885L232.809,27.734767018528686L233.519,27.851082967524178L233.59,27.721967278622316L233.661,27.567776373203657L234.15800000000002,27.53948656093968L234.513,27.440808850051496L234.726,27.826288550409885L234.868,27.66440049529612L234.93900000000002,27.624356675827073L235.01,27.572188734042697L235.081,27.432140189058913L235.365,27.397725784225543L235.933,27.265847879692927L236.004,27.209060030382005L236.21699999999998,27.16222792749383L236.359,27.253006182034653L236.43,27.28816837767411L236.572,27.33406043252384L236.92700000000002,27.541523962624893L237.42399999999998,27.447222387675822L237.566,27.356900834781158L237.77900000000002,27.29779834397044L237.921,27.209098944045508L238.27599999999998,27.112747831370314L238.489,26.97794700871134L238.702,26.859927344568035L239.341,26.748082602404224L239.41199999999998,26.69187557869472L239.625,26.541365842507105L239.83800000000002,26.42515106551093L239.98,26.400890267797337L240.051,26.36148925038438L240.477,26.23694676714365L240.69,26.464434306847295L240.761,26.45537168684055L240.903,26.421098240575674L241.11599999999999,26.329200043995485L241.258,26.27232368728582L241.4,26.149059785045296L241.613,26.045861143164956L241.684,25.911395822797402L241.755,25.93545643983819L242.25199999999998,25.97507413017391L242.607,25.932634694782678L242.749,25.947836319429115L242.82,25.938007900969325L242.891,25.811199330923017L243.17499999999998,25.921407070974652L243.246,25.944909515341692L243.601,25.91701169521474L243.672,25.782489698787373L243.956,25.69372917423391L244.169,25.756421734340677L244.24,25.60628754382614L244.382,25.59928055279636L244.879,25.61317621582438L244.95000000000002,25.55602518929632L245.305,25.453503549951336L246.157,25.371060829794033L246.512,25.21754932791822L246.65400000000002,25.10049642613052L246.725,25.080950601520698L246.93800000000002,25.070941816528517L247.00900000000001,24.989042744715334L247.648,24.88087118576351L248.074,24.865068598704454L248.358,24.903045777680262L248.429,24.961224424178113" fill="none"></path></g></g></g></g><g opacity="0.2"><g><g><g><path style="fill: none;" stroke="rgb(204, 51, 17)" stroke-width="2px" d="M35.855,93.18474801381431L35.926,82.19656976064049L36.281,227.34145090315081L36.494,165.38778495788577L36.565,150.66105715433758L36.778,85.60018518235951L36.92,5.985027207268615L37.204,326.9513936042786L38.056000000000004,432.63888417349926L38.34,118.08469327290855L38.482,34.295991049872526L38.624,186.68880335489914L38.695,119.73894627889L38.837,206.92305914560959L39.263000000000005,236.93095027075879L39.334,63.98483890957304L39.405,325.0972316530016L39.476000000000006,378.45601537492547L39.547000000000004,1.2667139901055293L40.114999999999995,241.24770090315081L40.327999999999996,145.83513874477813L40.541,31.363490210639128L40.611999999999995,331.68981795840796L40.683,119.86550733778215L40.754,70.20849312676327L41.108999999999995,198.6742865244548L42.174,368.3611205418905L42.742,163.52270687950985L42.955,229.2986205418905L43.025999999999996,205.90264881981747L43.522999999999996,143.6167365180122L43.736,342.50579018063024L43.878,91.94521352979875L44.446,103.718315548367L44.659,214.5038968192207L44.73,75.329217698839L45.369,-13.69517029656302L45.511,131.5991886986627L45.582,121.20835600958932L45.653,123.25370343526207L46.15,34.85103956858319L46.505,79.79756810930043L46.647000000000006,256.75058184729687L46.718,131.31103123558896L47.002,65.08493932088219L47.357,75.8373480902778L47.428000000000004,328.3935248057048L47.641000000000005,67.71537229749893L48.067,18.789149178398986L48.138000000000005,136.73278628455273L48.28,174.17576238844134L48.493,89.86077552371557L48.635000000000005,288.83795981936987L48.706,126.75289980570479L48.848,96.44713751475018L48.989999999999995,-6.005925814310672L49.06099999999999,71.14280043707956L49.558,29.979334725273986L50.126,89.66456815931535L50.196999999999996,265.9183839162191L50.268,-33.39022127787268L50.552,22.51091194152835L51.262,27.062677595350493L51.333,210.62817658318417L51.475,12.579169591267942L51.759,18.990260548061798L51.972,139.18931568993466L52.043,77.3696139653524L52.114,62.9080325232612L52.327,148.79687500000003L53.179,81.42249139149986L53.605,388.9629645347595L53.818,129.56341351403134L53.96,125.65921232435441L54.031,176.7124062644111L54.173,26.977942042880613L54.457,147.40597650739886L54.741,73.66874037848581L54.883,153.0729789733887L55.238,10.495627509223112L56.232,68.28258652157255L56.587,131.85811074574792L56.658,95.23339621225995L56.942,29.43041621314157L57.013000000000005,89.0148817698161L57.297000000000004,166.7432237201267L57.368,40.480366071065305L57.510000000000005,88.73181692759199L57.723,161.41959593031146L58.077999999999996,127.88416894276939L58.148999999999994,92.07432089911569L58.22,426.0462978680929L58.574999999999996,153.87341637081573L58.645999999999994,38.77443239423965L58.717,91.74018838670521L58.93,101.05473338233102L59.568999999999996,46.431376457214384L59.711,59.772062619527205L60.137,133.63920773400204L60.562999999999995,22.169659190707762L60.634,140.24386543697784L61.06,39.25752406650122L61.272999999999996,93.45489268832739L61.557,64.51946979098852L61.841,-49.13801956176758L61.983,113.63850519392228L62.267,323.65510045157544L62.338,122.22046724955244L62.409,-11.422776858011844L62.551,122.5214505725437L62.906,383.1944397290548L63.261,46.528937869601805L63.332,74.32526408301462L63.403,31.592516687181273L64.468,-3.9242227342393505L64.965,4.211993535359738L65.391,-17.708862834506533L65.462,32.49919181399878L65.604,43.330017513699005L65.74600000000001,116.07730473412411L66.03,50.85563797420927L66.669,36.673773447672545L66.81099999999999,147.12295881907147L66.88199999999999,51.71355597178143L67.095,144.00693501366513L67.521,228.03593349456793L68.089,-13.277811156378817L68.16,23.268344985114226L68.373,110.2022121217516L68.444,-65.54667970869275L69.083,-31.773314158121707L69.154,86.53270064459909L69.935,30.66641415490045L70.148,16.999234411451567L70.219,130.75961356692846L70.361,128.78047021230066L70.503,12.619156095716704L71.49699999999999,20.602876663208036L71.852,392.25925768746276L71.994,46.39945326911081L72.207,70.09456931220163L72.34899999999999,89.48689227634009L72.70400000000001,30.973244561089416L72.77499999999999,-5.689853244357607L73.201,61.689670138888914L73.34299999999999,137.31409952375628L73.414,82.47175990210641L73.556,-21.366260528564453L73.627,415.33333333333337L73.84,55.72196727328833L73.982,95.02092075347903L74.33699999999999,70.47712887658017L74.408,95.44610744052466L75.047,122.92560662163632L75.189,19.34141561720108L75.473,-13.195857683817508L75.54400000000001,49.18205187055801L75.615,19.85968409644235L75.899,-46.34462271796329L76.18299999999999,94.03696038987904L76.254,73.00471920437285L76.467,83.39531612396242L76.609,56.21406533983021L76.68,-5.737620141771089L76.75099999999999,-40.437135378519656L76.822,111.20654296875003L76.893,119.3491250144111L76.964,96.39781453874379L77.10600000000001,158.68575445810956L77.17699999999999,93.76096863216827L77.53200000000001,164.45427926381433L77.603,146.41480159759524L77.887,137.02806398603656L78.10000000000001,-18.564941830105255L78.668,-23.330880482991518L78.81,30.509108755323638L79.165,45.84421613481311L79.449,44.79358016120065L79.52000000000001,-52.954042964511444L79.662,54.55985948774551L80.514,45.529558181762724L81.011,-25.02672322591144L81.22399999999999,-22.68081686231824L81.295,105.02617602878149L81.366,25.354244761996824L81.437,161.38974751366513L81.57900000000001,35.79991743299698L81.79199999999999,-31.16267119513614L82.147,-21.337638113233766L82.431,56.44059265984433L82.64399999999999,128.008325152927L82.928,-5.349732187059175L83.141,286.7777589162191L83.21199999999999,100.77525223626034L83.283,52.48268318176271L83.354,110.4959337446425L83.425,148.8483670552572L83.56700000000001,69.74671501583525L83.63799999999999,68.65005683898927L83.709,35.3703454335531L83.922,-8.128747092352938L83.99300000000001,2.328761206732878L84.064,113.41367541419137L84.20599999999999,269.8842624028524L84.348,42.744931962755004L84.41900000000001,89.50721560584176L84.916,-20.00742668575711L85.129,71.2437569300334L85.41300000000001,95.51603666941327L85.62599999999999,27.627015431722043L85.768,328.3935248057048L85.91,-17.684814347161165L86.194,132.6534083684286L86.478,3.8253787358602267L86.691,0.95356496175134L86.762,-10.987735006544312L86.83300000000001,65.52828025817873L86.904,1.9302636252509444L87.33,76.88355159759523L87.756,42.87804741329617L87.898,32.82450654771594L87.96900000000001,-6.582853741115997L88.25300000000001,178.8240520689223L88.466,41.81972535451257L88.537,91.52285607655845L88.75,21.20946439107263L88.821,124.6959053675334L88.892,-68.82222514682346L89.034,81.6604771084256L89.176,91.05075126224096L89.602,70.88119061787926L89.815,-62.62945673200818L89.886,88.88091754913331L90.09899999999999,78.49626202053497L90.17,19.78051270378961L90.241,-36.42895984649658L90.383,60.15433926052519L90.45400000000001,32.77018525865344L90.88,41.27325884501141L91.164,-39.6078397962782L91.235,44.91000313229031L91.377,279.3611111111112L91.51899999999999,72.97911463843454L91.661,12.850587420993406L91.732,194.37847222222226L91.803,-9.59617635938855L91.87400000000001,30.145174980163603L91.945,126.70140775044761L92.158,64.55686283111574L92.3,57.94593365987144L92.44200000000001,83.55450767940948L92.655,76.57955042521162L92.797,159.23622904883493L92.86800000000001,96.81965329911976L92.939,50.542960484822615L93.365,-12.278478622436523L93.436,76.16487905714249L93.578,108.62326388888891L93.791,17.980271233452697L94.075,13.230129135979553L94.28800000000001,41.1807900534736L94.50099999999999,-8.098238521152041L94.572,81.80858749813507L94.714,-25.863987816704622L94.85600000000001,11.222834904988645L94.998,2.7527690463596173L95.353,28.31956471337213L95.566,-1.2015567355685448L95.70800000000001,64.90547158983021L96.773,47.759984652201354L97.057,82.82027435302736L97.199,27.74824810028079L97.27000000000001,59.24063820309111L97.554,79.86141448550757L97.696,94.98739433288577L97.767,-54.684543821546754L97.97999999999999,83.94098101721872L98.12199999999999,24.29191462198895L98.264,56.74431090884741L98.477,89.29153368208146L98.619,19.852045165167937L98.69,30.052611880832274L98.832,75.06496726142038L99.116,3.8452305263943174L99.39999999999999,84.03302542368574L99.897,70.17949348025854L99.96799999999999,-62.06327989366318L100.039,-15.230171097649446L100.11,58.20018747117787L100.252,148.39771726396353L100.465,108.64396444956465L100.536,78.71797964307999L100.607,-9.197914547390411L100.82,50.254520098368346L100.891,144.65398078494604L100.96199999999999,36.664531283908445L101.033,34.098180452982604L101.601,74.65802913241919L101.672,-13.298464563157808L101.885,-17.674110412597656L102.38199999999999,25.609630266825377L102.595,-8.828510920206668L103.16300000000001,60.606356514824796L103.234,68.99593067169191L103.37599999999999,-36.09911833869083L103.447,49.79613706800674L103.518,27.851750903659422L103.73100000000001,82.26579168107777L103.80199999999999,-5.233450677659761L104.512,-6.675086763170015L104.79599999999999,14.184854083591063L104.867,78.46363152398007L104.938,24.84950945112442L105.009,151.69401041666669L105.222,-7.973327848646363L105.293,83.9454606374105L105.364,16.891204833984403L105.57700000000001,3.0157463285658253L105.648,11.823151164584715L106.216,155.3894613054064L106.5,-42.93440575069852L106.642,123.73174964057077L106.784,31.9139648013645L106.85499999999999,-3.649928516811798L107.068,60.810862965054L107.28099999999999,-42.928558667500795L107.352,72.51328129238554L107.42299999999999,-15.970062891642215L107.494,108.30134423573814L107.707,-32.05586030748154L108.27499999999999,8.486824353536008L108.41699999999999,-19.751428180270693L108.559,63.905997594197615L108.701,-2.737689230177125L108.772,35.61398961808948L108.985,25.543614811367462L109.127,-24.98485056559241L109.26899999999999,0.27492607964410354L109.62400000000001,-50.62765831417508L110.121,-29.604753600226474L110.19200000000001,67.95632870992027L110.405,74.2799963421292L110.547,-51.79820664723712L111.04400000000001,180.2147147920397L111.186,85.22083208296036L111.328,7.360977914598266L111.61200000000001,76.05581209394668L111.896,-8.176325374179385L112.03800000000001,0.4977753957113009L112.393,-9.043815612792969L112.464,11.433565669589598L112.535,63.533764733208585L113.03200000000001,20.54464160071481L113.103,45.941306008233L113.529,41.376384417216L113.813,4.937739160325805L113.884,4.805472479926237L113.955,-37.3311081992255L114.59400000000001,-23.866030057271303L114.736,90.95700931549075L114.949,-10.959254052903901L115.446,-49.25590430365665L115.72999999999999,25.370277086893736L115.943,32.031660927666564L116.014,32.637399885389556L116.085,-1.9435233010185868L116.29799999999999,21.859763781229674L117.07900000000001,34.87725713517932L117.29199999999999,-14.107436815897586L117.505,-41.75937779744464L117.576,139.37472481197784L117.647,-49.05281247033011L117.86,383.1944397290548L117.931,50.94739945729576L118.002,-7.771744940015992L119.06700000000001,18.307613584730376L119.28,12.5627128813002L119.422,125.58117262522383L119.49300000000001,1.0993648105197735L119.635,4.173893186781157L119.70599999999999,61.54721821679013L119.91900000000001,55.49459118313261L120.13199999999999,-43.3869416978624L120.203,-22.343006345960816L120.345,70.26663388146298L120.48700000000001,-17.534912109375L120.771,-39.1294635136922L120.984,21.141091240776916L121.12599999999999,118.25142945183651L121.268,133.02356645796038L121.41,-24.88252660963269L121.694,329.4236016803318L122.404,14.924180030822782L122.688,39.81988143920901L122.972,15.536426226298033L123.043,64.64032522837324L123.114,257.9351820415921L123.256,42.45465257432727L123.46900000000001,49.09561877780493L123.682,-76.75964058770072L123.824,81.83687983618844L124.037,30.426023589240202L124.463,1.0863974889119845L124.60499999999999,-41.91790919833713L124.74699999999999,-26.273613717820893L124.818,38.63546986050076L125.03099999999999,-51.22641849517822L125.102,49.53377278645837L125.17299999999999,-23.89847193823917L125.386,40.70387554168704L125.95400000000001,-16.32140657636853L126.309,22.3047079510159L126.451,50.71455351511639L126.877,207.25464534759524L127.161,68.2432130177816L127.232,22.51364686754016L127.303,20.26662222544354L127.37400000000001,-16.119540744357607L128.013,-66.6499394310845L128.51,52.8598672019111L128.65200000000002,32.34537580278186L128.865,60.453577889336515L128.936,-61.71825483110214L129.149,34.63083087073434L129.22,77.02595636579727L129.575,72.4130792617798L129.64600000000002,-7.116635852389834L129.71699999999998,42.12815899319119L129.93,28.735084851582883L130.143,-61.87164645724826L130.285,-52.69380060831702L130.356,57.94593365987144L130.427,38.348915629916746L130.853,45.52852079603409L131.279,-65.67456107669406L131.705,92.92078049977623L131.989,-49.50251918368869L132.131,68.54089556799997L132.48600000000002,0.5482300652398067L132.77,-10.058850394354891L133.267,44.60109795464413L133.409,3.2240250905355197L133.62199999999999,5.555832438998777L133.76399999999998,2.918797916836212L133.835,-46.13931465148926L134.048,22.21308792961969L134.119,13.49631288316516L134.261,-36.61418035295273L134.332,-68.67618952857126L134.545,9.281650437249084L135.75199999999998,-36.899885813395144L135.823,-35.22398916880286L135.894,38.53672960069446L135.965,-11.26820638444687L136.249,41.549250602722196L136.462,-62.33502780066593L136.888,-22.24808555179169L137.172,40.39162243737118L137.243,28.2740140491062L137.314,67.12604289584692L137.456,34.730655670166044L137.59799999999998,41.441975487603116L137.74,26.967002338833282L137.882,84.78065045674644L138.45,-60.486689355638276L138.805,19.552806536356627L138.876,12.622645484076628L139.51500000000001,25.1515301598443L139.58599999999998,39.896223598056395L140.36700000000002,-62.163812001546205L140.722,148.38484425014923L140.935,-60.29048199123807L141.006,-26.690171241760254L141.219,30.809950616624633L141.36100000000002,-22.263929261101595L141.432,72.36733998192685L142,-7.398238923814546L142.071,-21.817476166619173L142.142,14.062442567613402L142.21300000000002,-3.529167387220582L142.426,-13.36881817711722L142.568,27.271710819668243L142.63899999999998,20.98571915096707L142.70999999999998,11.227880371941467L143.278,-68.86386203765869L143.633,37.44063727060956L143.704,-11.118351300557435L145.83399999999997,-35.56769392225476L145.905,3.2756114535861798L146.331,-44.206995116339755L146.402,40.444906340705046L146.828,-31.3602460225423L146.899,50.342273500230604L147.53799999999998,-33.788766013251376L147.822,14.601081530253111L147.964,-36.58918878767224L149.02900000000002,-74.45263618893094L149.242,52.651541286044676L149.38400000000001,-62.647610982259096L149.455,3.1533885531955548L149.81,-27.11983754899765L150.023,12.799896981981078L150.378,31.661880069308836L150.52,-44.41253895229764L150.946,-1.5894446902804589L151.017,35.846128251817504L151.08800000000002,13.240502993265807L151.23,2.1740492714775996L151.372,-6.04096115960013L151.94,-18.159041086832644L152.082,99.31781959533694L152.295,-27.427092340257417L152.508,59.92804770999487L152.792,-16.066634072197786L153.289,-74.57188839382596L153.36,41.26312075720895L153.431,-25.055817180209687L153.928,0.5322448942396534L154.07,96.27262094285756L154.21200000000002,-61.57396390702988L154.993,-49.491815249125125L155.277,137.40147569444449L155.56099999999998,-19.653819613986514L155.91600000000003,-58.65565639071994L155.987,86.97637165917294L156.129,-55.305513487921786L157.54899999999998,-14.537904739379883L158.18800000000002,67.37218623691138L158.472,-31.618743684556733L158.543,32.80988883972171L158.614,116.11073684692386L158.685,-26.954846064249637L158.827,-52.9528169631958L159.182,22.73503441280789L159.253,41.006132019890714L159.395,-42.07908121744788L159.53699999999998,-75.17574119567871L159.75,9.71358013153079L159.892,-17.87338278028699L159.96300000000002,-72.59647019704181L160.034,2.1067606608073106L160.673,-63.6238852606879L160.886,101.06175931294761L161.525,-37.95981110466849L161.95100000000002,42.156970024108915L162.022,25.28624884287518L162.44799999999998,64.98596329159209L162.519,7.388751559787352L162.59,15.200171788533567L162.732,-70.85729302300345L163.15800000000002,62.51500479380293L163.58399999999997,24.60595957438153L163.655,-6.177283075120698L164.223,-58.122392972310365L164.294,12.51617198520239L164.507,-23.11576440599228L164.72,36.93184672461618L165.004,-48.13482040829129L165.14600000000002,257.9351820415921L165.43,171.2013888888889L165.856,91.39818117353654L166.14,38.25121275583905L166.211,112.8305703269111L166.42399999999998,108.62326388888891L166.566,7.477165116204162L166.77900000000002,71.51097806294761L167.06300000000002,-22.207674662272098L167.418,-29.027731365627716L167.489,135.9818604787191L167.98600000000002,9.102654245164672L168.128,-39.122390429178836L168.696,-23.61658594343396L168.767,14.001001040140807L168.909,-9.997738944159579L169.051,-49.95217874315048L169.903,21.0911552641127L170.542,-41.020900620354524L171.607,388.9629645347595L171.678,176.96991369459369L171.749,-0.1428102917141416L172.03300000000002,44.38084210289853L172.10399999999998,46.69803174336755L172.53,-43.49096319410535L172.956,-32.12725130716956L173.098,139.29428026411273L173.169,20.78272162543405L173.524,-13.98842038048636L173.879,-34.19669437408447L174.09199999999998,6.344151284959594L174.305,34.195647557576535L174.518,278.94908036126037L174.66,-22.3212212456597L175.086,61.49412292904326L175.157,7.528044170803497L175.29899999999998,-20.817483478122256L175.441,5.753077189127623L176.08,-15.567415767245791L176.15099999999998,-39.027563942803255L176.222,36.50147310892743L176.293,-45.07500404781766L177.28699999999998,70.03341070810957L177.571,-27.844357172648074L177.855,37.85983541276721L177.926,-8.93880388471814L178.13899999999998,2.5873060226440714L178.20999999999998,-2.0962547726101377L178.423,369.1851820415921L178.565,9.838113572862426L178.707,-29.350028249952516L179.06199999999998,-33.215610398186556L179.275,128.73581547207306L179.417,158.96905506981747L179.488,52.25808917151559L179.63,-78.61580657958984L179.843,-60.45033370123966L180.056,13.36140558454727L180.19799999999998,-28.108183224995912L180.411,39.23224957784021L180.624,-46.465431001451265L180.695,102.01780456966827L180.90800000000002,17.725310113694945L181.121,-19.99096997578937L181.68900000000002,-12.681691593594024L181.76,70.18067232767744L181.902,-15.080504629347047L182.257,103.87194294399688L182.612,37.57908111148413L182.683,23.50892416636151L182.754,-60.911215888129306L183.251,-15.068999078538667L183.464,39.83152845170764L183.535,-27.127900865342866L184.17399999999998,-22.390961858961305L184.316,37.625716315375456L184.742,-47.78319380018445L184.81300000000002,-4.600645383199037L184.88400000000001,21.873108334011505L184.955,34.56363656785754L185.02599999999998,3.293388472663054L185.239,-39.3941854900784L185.38100000000003,-26.042371008131227L185.594,44.400693893432646L185.66500000000002,-17.793456925286165L186.233,-68.71537441677518L186.304,27.91031604342993L186.58800000000002,-9.895179218716095L186.872,-38.08665508694119L186.943,34.71377457512753L187.01399999999998,-14.765563752916108L187.298,9.372798919677763L187.36899999999997,-9.368894577026367L187.511,4.7528487311469405L187.582,-16.227806091308594L187.86599999999999,-41.86137167612708L188.008,21.447261492411315L188.079,-42.19951226976181L188.22099999999998,-25.656557824876558L188.434,5.083444701300749L188.57600000000002,385.6666713820564L189.144,190.82467163933651L189.215,123.6948281394111L189.499,-43.152728292677125L189.78300000000002,-31.10467190212674L190.067,17.296728346082915L190.56400000000002,-41.60084639655216L190.777,174.4976820415921L190.919,-66.49282264709473L191.558,-36.788366847568085L191.629,23.007018089294462L191.70000000000002,3.5466992060343614L191.91299999999998,48.312769783867765L191.984,-18.401034884982607L192.197,108.62326388888891L192.268,193.60590277777783L192.694,-4.4810159471299755L192.978,14.993213335673033L193.40400000000002,-63.183892250061035L193.475,67.00330130259199L193.68800000000002,8.888434092203795L193.75900000000001,-23.300136142306854L194.043,-20.490046819051088L194.114,11.14946344163684L194.25600000000003,27.07616360982263L194.327,-18.077983538309695L194.469,118.28038194444449L194.54000000000002,-26.664991060892703L194.682,-18.215672916836212L194.824,3.5353822708130167L194.966,14.582361433241118L195.03699999999998,9.798174222310422L195.321,-62.749274783664276L196.954,-42.446975919935426L197.238,32.26167763604059L197.45100000000002,-72.69011783599854L197.94799999999998,-3.35757435692679L198.161,2.7448943456014376L198.58700000000002,46.96336672041153L198.65800000000002,-27.96082729763455L198.79999999999998,13.514137056138793L199.013,-52.0815544128418L199.226,9.728009223938017L199.297,-52.51885965135361L200.007,-24.033567852444122L200.078,31.988420804341672L200.149,-1.0102533764309385L200.22,19.643577787611235L200.362,11.048224025302488L200.504,49.94967015584314L200.71699999999998,30.60992378658719L201.072,-18.57300514645047L202.63400000000001,230.1226820415921L202.989,3.3230954276191085L203.557,-1.354806900024414L204.622,212.66263145870636L204.83499999999998,159.58710119459369L205.048,-47.62433232201468L205.9,-15.911120520697665L206.042,48.432917912801145L206.184,-26.472461700439453L206.32600000000002,22.67109372880725L206.681,-54.884995036655L209.59199999999998,-29.194986237419954L209.66299999999998,17.86606449551053L209.805,-22.379173384772372L209.947,7.116390652126739L210.16,-3.7885138193765897L210.37300000000002,5.9528682496812735L210.444,-5.648640738593173L210.728,-34.80328210194904L211.225,11.279513888888914L211.50900000000001,110.4645764033L211.65099999999998,108.62326388888891L211.793,15.301977051628967L211.935,-23.732395913865815L212.00600000000003,9.016551229688872L212.148,-23.906393792894136L212.36100000000002,-35.068428463406036L212.503,11.309362305535217L212.716,-35.037684122721316L213.21300000000002,-22.65898460812039L213.923,47.55005550384524L213.99399999999997,-14.523805724249911L214.136,-37.35675991906058L214.207,75.82664415571426L214.278,-15.237244182162783L214.34900000000002,-1.661637306213379L214.56199999999998,69.77269681294761L214.633,-3.302640067206454L215.272,-48.041644308302125L215.414,26.945028622945188L216.053,5.928159607781311L216.124,33.47075070275204L216.33700000000002,-46.07716581556531L216.47899999999998,-1.0492024951510643L216.621,53.77403979831274L216.763,-35.642149925231934L216.905,-75.46187104119193L216.976,19.668522198994992L217.18900000000002,19.84907446967233L217.615,52.324293242560515L217.68599999999998,-67.57830535040964L218.893,-1.404837184482119L219.17700000000002,9.206534279717346L219.39,23.285320387946257L219.461,-39.90561665429007L219.816,-18.794109768337677L220.1,57.08744981553822L220.242,-44.961410310533296L220.739,-74.79690678914386L220.81,40.361113866170285L221.16500000000002,14.78941419389514L221.378,-7.840495321485719L221.449,49.663493156433134L221.591,-10.862069871690522L221.875,-31.360434638129306L221.946,20.425295088026274L222.159,-38.02879725562198L222.23,61.689670138888914L222.372,41.65261194441055L222.58499999999998,-1.5912836922539384L222.656,-35.81539334191214L222.798,6.749769104851623L223.22400000000002,-6.085521592034212L224.431,-62.89182101355655L225.35399999999998,3.609366734822629L225.638,-17.19804467095267L225.78,39.5526603062948L226.135,-41.61437956492102L226.348,140.32115067376034L226.49,-18.7581313451131L226.774,66.39935419294571L227.129,-19.710781521267364L227.41299999999998,31.671310848659942L227.697,155.10620784759524L227.91,-18.702206823560914L228.54899999999998,17.383208592732785L228.975,63.031811502244764L229.685,-26.938200738694917L229.75600000000003,19.594301965501586L229.827,-42.27679750654431L230.04000000000002,-18.74785179562039L230.11100000000002,37.860071182251005L230.466,-19.32803334130179L230.608,55.76968701680504L230.892,-63.86823675367566L230.96300000000002,-13.172233581542969L231.034,25.809940020243346L231.105,-79.06428729163275L231.176,-43.31158977084689L231.247,17.59068573845758L231.318,-60.92710675133597L231.886,112.19319110446509L232.09900000000002,-36.2982963985867L232.525,122.33948368496368L232.809,-10.529304822285951L233.519,98.36238733927411L233.59,-50.599318822224916L233.661,-66.02458445231116L234.15800000000002,10.35675928327774L234.513,-32.532916280958375L234.868,-70.853520711263L234.93900000000002,3.2398216459486378L235.01,-4.215633816189239L235.081,-57.95909902784558L235.365,6.400971730550168L235.933,-53.24616135491263L236.21699999999998,-1.465335634019624L236.359,82.77920330895321L236.43,48.80939462449817L236.572,55.440317047966886L236.92700000000002,154.68125693003338L237.42399999999998,-30.379963662889253L239.83800000000002,-45.28587627410889L239.98,11.421352810329864L240.051,2.018771489461301L240.477,-50.7553039126926L240.69,167.18401834699847L240.761,20.845955000983366L240.903,5.194114896986235L241.11599999999999,-30.622098922729492L241.684,-57.623363282945405L241.755,40.891878128051786L242.25199999999998,50.61694494883221L242.607,-0.4803378846910107L242.749,35.41457578870987L242.82,19.81370904710559L242.891,-53.25361167060001L243.17499999999998,94.67702738444012L243.246,40.616263601515044L243.601,8.49139828152127L243.672,-58.29337300194632L243.956,-29.814541286892364L244.169,64.98596329159209L244.24,-68.39543522728812L244.382,21.20946439107263L244.879,34.3238590028551L244.95000000000002,-10.291130489773224L246.65400000000002,-48.49304856194388L246.725,12.784854888916044L246.93800000000002,18.770806312561064L247.00900000000001,-26.593458599514435L247.648,-43.28876728481717L248.074,14.900461620754669L248.358,48.864234606424986L248.429,61.689670138888914" fill="none"></path></g></g></g></g></g></g><g transform="translate(46, 178)" clip-path="url(#clip_1)"><clipPath id="clip_1"><rect width="284" height="22"></rect></clipPath><g><g><line x1="0" y1="0" x2="0" y2="5" style="visibility: inherit;" fill="rgb(0, 0, 0)" stroke="rgb(204, 204, 204)" stroke-width="1px"></line><line x1="35.5" y1="0" x2="35.5" y2="5" style="visibility: inherit;" fill="rgb(0, 0, 0)" stroke="rgb(204, 204, 204)" stroke-width="1px"></line><line x1="71" y1="0" x2="71" y2="5" style="visibility: inherit;" fill="rgb(0, 0, 0)" stroke="rgb(204, 204, 204)" stroke-width="1px"></line><line x1="106.5" y1="0" x2="106.5" y2="5" style="visibility: inherit;" fill="rgb(0, 0, 0)" stroke="rgb(204, 204, 204)" stroke-width="1px"></line><line x1="142" y1="0" x2="142" y2="5" style="visibility: inherit;" fill="rgb(0, 0, 0)" stroke="rgb(204, 204, 204)" stroke-width="1px"></line><line x1="177.5" y1="0" x2="177.5" y2="5" style="visibility: inherit;" fill="rgb(0, 0, 0)" stroke="rgb(204, 204, 204)" stroke-width="1px"></line><line x1="213" y1="0" x2="213" y2="5" style="visibility: inherit;" fill="rgb(0, 0, 0)" stroke="rgb(204, 204, 204)" stroke-width="1px"></line><line x1="248.5" y1="0" x2="248.5" y2="5" style="visibility: inherit;" fill="rgb(0, 0, 0)" stroke="rgb(204, 204, 204)" stroke-width="1px"></line><line x1="284" y1="0" x2="284" y2="5" style="visibility: inherit;" fill="rgb(0, 0, 0)" stroke="rgb(204, 204, 204)" stroke-width="1px"></line></g><g transform="translate(0, 8)"><text x="0" y="0" dx="0em" dy="0.95em" style="text-anchor: middle; visibility: hidden; font-family: &quot;Helvetica Neue&quot;, sans-serif; font-size: 12px; font-weight: 200;" fill="rgb(50, 49, 63)" stroke="none" stroke-width="1px">-500</text><text x="35.5" y="0" dx="0em" dy="0.95em" style="text-anchor: middle; visibility: inherit; font-family: &quot;Helvetica Neue&quot;, sans-serif; font-size: 12px; font-weight: 200;" fill="rgb(50, 49, 63)" stroke="none" stroke-width="1px">0</text><text x="71" y="0" dx="0em" dy="0.95em" style="text-anchor: middle; visibility: inherit; font-family: &quot;Helvetica Neue&quot;, sans-serif; font-size: 12px; font-weight: 200;" fill="rgb(50, 49, 63)" stroke="none" stroke-width="1px">500</text><text x="106.5" y="0" dx="0em" dy="0.95em" style="text-anchor: middle; visibility: inherit; font-family: &quot;Helvetica Neue&quot;, sans-serif; font-size: 12px; font-weight: 200;" fill="rgb(50, 49, 63)" stroke="none" stroke-width="1px">1k</text><text x="142" y="0" dx="0em" dy="0.95em" style="text-anchor: middle; visibility: inherit; font-family: &quot;Helvetica Neue&quot;, sans-serif; font-size: 12px; font-weight: 200;" fill="rgb(50, 49, 63)" stroke="none" stroke-width="1px">1.5k</text><text x="177.5" y="0" dx="0em" dy="0.95em" style="text-anchor: middle; visibility: inherit; font-family: &quot;Helvetica Neue&quot;, sans-serif; font-size: 12px; font-weight: 200;" fill="rgb(50, 49, 63)" stroke="none" stroke-width="1px">2k</text><text x="213" y="0" dx="0em" dy="0.95em" style="text-anchor: middle; visibility: inherit; font-family: &quot;Helvetica Neue&quot;, sans-serif; font-size: 12px; font-weight: 200;" fill="rgb(50, 49, 63)" stroke="none" stroke-width="1px">2.5k</text><text x="248.5" y="0" dx="0em" dy="0.95em" style="text-anchor: middle; visibility: inherit; font-family: &quot;Helvetica Neue&quot;, sans-serif; font-size: 12px; font-weight: 200;" fill="rgb(50, 49, 63)" stroke="none" stroke-width="1px">3k</text><text x="284" y="0" dx="0em" dy="0.95em" style="text-anchor: middle; visibility: hidden; font-family: &quot;Helvetica Neue&quot;, sans-serif; font-size: 12px; font-weight: 200;" fill="rgb(50, 49, 63)" stroke="none" stroke-width="1px">3.5k</text></g><line x1="0" y1="0" x2="284" y2="0" fill="rgb(0, 0, 0)" stroke="rgb(204, 204, 204)" stroke-width="1px"></line></g></g></g></g></svg>