<svg viewBox="0 0 330 200" xmlns="http://www.w3.org/2000/svg"><g><g><g><g><g><line x1="34" y1="178" x2="29" y2="178" style="visibility: inherit;" fill="rgb(0, 0, 0)" stroke="rgb(204, 204, 204)" stroke-width="1px"></line><line x1="34" y1="166.13333333333333" x2="29" y2="166.13333333333333" style="visibility: inherit;" fill="rgb(0, 0, 0)" stroke="rgb(204, 204, 204)" stroke-width="1px"></line><line x1="34" y1="154.26666666666665" x2="29" y2="154.26666666666665" style="visibility: inherit;" fill="rgb(0, 0, 0)" stroke="rgb(204, 204, 204)" stroke-width="1px"></line><line x1="34" y1="142.4" x2="29" y2="142.4" style="visibility: inherit;" fill="rgb(0, 0, 0)" stroke="rgb(204, 204, 204)" stroke-width="1px"></line><line x1="34" y1="130.53333333333333" x2="29" y2="130.53333333333333" style="visibility: inherit;" fill="rgb(0, 0, 0)" stroke="rgb(204, 204, 204)" stroke-width="1px"></line><line x1="34" y1="118.66666666666667" x2="29" y2="118.66666666666667" style="visibility: inherit;" fill="rgb(0, 0, 0)" stroke="rgb(204, 204, 204)" stroke-width="1px"></line><line x1="34" y1="106.8" x2="29" y2="106.8" style="visibility: inherit;" fill="rgb(0, 0, 0)" stroke="rgb(204, 204, 204)" stroke-width="1px"></line><line x1="34" y1="94.93333333333334" x2="29" y2="94.93333333333334" style="visibility: inherit;" fill="rgb(0, 0, 0)" stroke="rgb(204, 204, 204)" stroke-width="1px"></line><line x1="34" y1="83.06666666666666" x2="29" y2="83.06666666666666" style="visibility: inherit;" fill="rgb(0, 0, 0)" stroke="rgb(204, 204, 204)" stroke-width="1px"></line><line x1="34" y1="71.2" x2="29" y2="71.2" style="visibility: inherit;" fill="rgb(0, 0, 0)" stroke="rgb(204, 204, 204)" stroke-width="1px"></line><line x1="34" y1="59.33333333333334" x2="29" y2="59.33333333333334" style="visibility: inherit;" fill="rgb(0, 0, 0)" stroke="rgb(204, 204, 204)" stroke-width="1px"></line><line x1="34" y1="47.46666666666667" x2="29" y2="47.46666666666667" style="visibility: inherit;" fill="rgb(0, 0, 0)" stroke="rgb(204, 204, 204)" stroke-width="1px"></line><line x1="34" y1="35.599999999999994" x2="29" y2="35.599999999999994" style="visibility: inherit;" fill="rgb(0, 0, 0)" stroke="rgb(204, 204, 204)" stroke-width="1px"></line><line x1="34" y1="23.73333333333332" x2="29" y2="23.73333333333332" style="visibility: inherit;" fill="rgb(0, 0, 0)" stroke="rgb(204, 204, 204)" stroke-width="1px"></line><line x1="34" y1="11.866666666666674" x2="29" y2="11.866666666666674" style="visibility: inherit;" fill="rgb(0, 0, 0)" stroke="rgb(204, 204, 204)" stroke-width="1px"></line><line x1="34" y1="0" x2="29" y2="0" style="visibility: inherit;" fill="rgb(0, 0, 0)" stroke="rgb(204, 204, 204)" stroke-width="1px"></line></g><g transform="translate(24, 0)"><text x="0" y="178" dx="0em" dy="0.3em" style="text-anchor: end; visibility: hidden; font-family: &quot;Helvetica Neue&quot;, sans-serif; font-size: 12px; font-weight: 200;" fill="rgb(50, 49, 63)" stroke="none" stroke-width="1px">-4</text><text x="0" y="166.13333333333333" dx="0em" dy="0.3em" style="text-anchor: end; visibility: inherit; font-family: &quot;Helvetica Neue&quot;, sans-serif; font-size: 12px; font-weight: 200;" fill="rgb(50, 49, 63)" stroke="none" stroke-width="1px">-2</text><text x="0" y="154.26666666666665" dx="0em" dy="0.3em" style="text-anchor: end; visibility: hidden; font-family: &quot;Helvetica Neue&quot;, sans-serif; font-size: 12px; font-weight: 200;" fill="rgb(50, 49, 63)" stroke="none" stroke-width="1px">0</text><text x="0" y="142.4" dx="0em" dy="0.3em" style="text-anchor: end; visibility: inherit; font-family: &quot;Helvetica Neue&quot;, sans-serif; font-size: 12px; font-weight: 200;" fill="rgb(50, 49, 63)" stroke="none" stroke-width="1px">2</text><text x="0" y="130.53333333333333" dx="0em" dy="0.3em" style="text-anchor: end; visibility: hidden; font-family: &quot;Helvetica Neue&quot;, sans-serif; font-size: 12px; font-weight: 200;" fill="rgb(50, 49, 63)" stroke="none" stroke-width="1px">4</text><text x="0" y="118.66666666666667" dx="0em" dy="0.3em" style="text-anchor: end; visibility: inherit; font-family: &quot;Helvetica Neue&quot;, sans-serif; font-size: 12px; font-weight: 200;" fill="rgb(50, 49, 63)" stroke="none" stroke-width="1px">6</text><text x="0" y="106.8" dx="0em" dy="0.3em" style="text-anchor: end; visibility: hidden; font-family: &quot;Helvetica Neue&quot;, sans-serif; font-size: 12px; font-weight: 200;" fill="rgb(50, 49, 63)" stroke="none" stroke-width="1px">8</text><text x="0" y="94.93333333333334" dx="0em" dy="0.3em" style="text-anchor: end; visibility: inherit; font-family: &quot;Helvetica Neue&quot;, sans-serif; font-size: 12px; font-weight: 200;" fill="rgb(50, 49, 63)" stroke="none" stroke-width="1px">10</text><text x="0" y="83.06666666666666" dx="0em" dy="0.3em" style="text-anchor: end; visibility: hidden; font-family: &quot;Helvetica Neue&quot;, sans-serif; font-size: 12px; font-weight: 200;" fill="rgb(50, 49, 63)" stroke="none" stroke-width="1px">12</text><text x="0" y="71.2" dx="0em" dy="0.3em" style="text-anchor: end; visibility: inherit; font-family: &quot;Helvetica Neue&quot;, sans-serif; font-size: 12px; font-weight: 200;" fill="rgb(50, 49, 63)" stroke="none" stroke-width="1px">14</text><text x="0" y="59.33333333333334" dx="0em" dy="0.3em" style="text-anchor: end; visibility: hidden; font-family: &quot;Helvetica Neue&quot;, sans-serif; font-size: 12px; font-weight: 200;" fill="rgb(50, 49, 63)" stroke="none" stroke-width="1px">16</text><text x="0" y="47.46666666666667" dx="0em" dy="0.3em" style="text-anchor: end; visibility: inherit; font-family: &quot;Helvetica Neue&quot;, sans-serif; font-size: 12px; font-weight: 200;" fill="rgb(50, 49, 63)" stroke="none" stroke-width="1px">18</text><text x="0" y="35.599999999999994" dx="0em" dy="0.3em" style="text-anchor: end; visibility: hidden; font-family: &quot;Helvetica Neue&quot;, sans-serif; font-size: 12px; font-weight: 200;" fill="rgb(50, 49, 63)" stroke="none" stroke-width="1px">20</text><text x="0" y="23.73333333333332" dx="0em" dy="0.3em" style="text-anchor: end; visibility: inherit; font-family: &quot;Helvetica Neue&quot;, sans-serif; font-size: 12px; font-weight: 200;" fill="rgb(50, 49, 63)" stroke="none" stroke-width="1px">22</text><text x="0" y="11.866666666666674" dx="0em" dy="0.3em" style="text-anchor: end; visibility: hidden; font-family: &quot;Helvetica Neue&quot;, sans-serif; font-size: 12px; font-weight: 200;" fill="rgb(50, 49, 63)" stroke="none" stroke-width="1px">24</text><text x="0" y="0" dx="0em" dy="0.3em" style="text-anchor: end; visibility: hidden; font-family: &quot;Helvetica Neue&quot;, sans-serif; font-size: 12px; font-weight: 200;" fill="rgb(50, 49, 63)" stroke="none" stroke-width="1px">26</text></g><line x1="34" y1="0" x2="34" y2="178" fill="rgb(0, 0, 0)" stroke="rgb(204, 204, 204)" stroke-width="1px"></line></g></g><g transform="translate(34, 0)" clip-path="url(#clip_0)"><clipPath id="clip_0"><rect width="296" height="178"></rect></clipPath><g><g><g><line x1="0" y1="0" x2="0" y2="178" fill="rgb(0, 0, 0)" stroke="rgb(60, 60, 60)" stroke-width="1px" opacity="0.25"></line><line x1="37" y1="0" x2="37" y2="178" fill="rgb(0, 0, 0)" stroke="rgb(60, 60, 60)" stroke-width="1px" opacity="0.25"></line><line x1="74" y1="0" x2="74" y2="178" fill="rgb(0, 0, 0)" stroke="rgb(60, 60, 60)" stroke-width="1px" opacity="0.25"></line><line x1="111" y1="0" x2="111" y2="178" fill="rgb(0, 0, 0)" stroke="rgb(60, 60, 60)" stroke-width="1px" opacity="0.25"></line><line x1="148" y1="0" x2="148" y2="178" fill="rgb(0, 0, 0)" stroke="rgb(60, 60, 60)" stroke-width="1px" opacity="0.25"></line><line x1="185" y1="0" x2="185" y2="178" fill="rgb(0, 0, 0)" stroke="rgb(60, 60, 60)" stroke-width="1px" opacity="0.25"></line><line x1="222" y1="0" x2="222" y2="178" fill="rgb(0, 0, 0)" stroke="rgb(60, 60, 60)" stroke-width="1px" opacity="0.25"></line><line x1="259" y1="0" x2="259" y2="178" fill="rgb(0, 0, 0)" stroke="rgb(60, 60, 60)" stroke-width="1px" opacity="0.25"></line><line x1="296" y1="0" x2="296" y2="178" fill="rgb(0, 0, 0)" stroke="rgb(60, 60, 60)" stroke-width="1px" opacity="0.25"></line></g><g><line x1="0" y1="178" x2="296" y2="178" fill="rgb(0, 0, 0)" stroke="rgb(60, 60, 60)" stroke-width="1px" opacity="0.25"></line><line x1="0" y1="166.13333333333333" x2="296" y2="166.13333333333333" fill="rgb(0, 0, 0)" stroke="rgb(60, 60, 60)" stroke-width="1px" opacity="0.25"></line><line x1="0" y1="154.26666666666665" x2="296" y2="154.26666666666665" fill="rgb(0, 0, 0)" stroke="rgb(60, 60, 60)" stroke-width="1px" opacity="0.25"></line><line x1="0" y1="142.4" x2="296" y2="142.4" fill="rgb(0, 0, 0)" stroke="rgb(60, 60, 60)" stroke-width="1px" opacity="0.25"></line><line x1="0" y1="130.53333333333333" x2="296" y2="130.53333333333333" fill="rgb(0, 0, 0)" stroke="rgb(60, 60, 60)" stroke-width="1px" opacity="0.25"></line><line x1="0" y1="118.66666666666667" x2="296" y2="118.66666666666667" fill="rgb(0, 0, 0)" stroke="rgb(60, 60, 60)" stroke-width="1px" opacity="0.25"></line><line x1="0" y1="106.8" x2="296" y2="106.8" fill="rgb(0, 0, 0)" stroke="rgb(60, 60, 60)" stroke-width="1px" opacity="0.25"></line><line x1="0" y1="94.93333333333334" x2="296" y2="94.93333333333334" fill="rgb(0, 0, 0)" stroke="rgb(60, 60, 60)" stroke-width="1px" opacity="0.25"></line><line x1="0" y1="83.06666666666666" x2="296" y2="83.06666666666666" fill="rgb(0, 0, 0)" stroke="rgb(60, 60, 60)" stroke-width="1px" opacity="0.25"></line><line x1="0" y1="71.2" x2="296" y2="71.2" fill="rgb(0, 0, 0)" stroke="rgb(60, 60, 60)" stroke-width="1px" opacity="0.25"></line><line x1="0" y1="59.33333333333334" x2="296" y2="59.33333333333334" fill="rgb(0, 0, 0)" stroke="rgb(60, 60, 60)" stroke-width="1px" opacity="0.25"></line><line x1="0" y1="47.46666666666667" x2="296" y2="47.46666666666667" fill="rgb(0, 0, 0)" stroke="rgb(60, 60, 60)" stroke-width="1px" opacity="0.25"></line><line x1="0" y1="35.599999999999994" x2="296" y2="35.599999999999994" fill="rgb(0, 0, 0)" stroke="rgb(60, 60, 60)" stroke-width="1px" opacity="0.25"></line><line x1="0" y1="23.73333333333332" x2="296" y2="23.73333333333332" fill="rgb(0, 0, 0)" stroke="rgb(60, 60, 60)" stroke-width="1px" opacity="0.25"></line><line x1="0" y1="11.866666666666674" x2="296" y2="11.866666666666674" fill="rgb(0, 0, 0)" stroke="rgb(60, 60, 60)" stroke-width="1px" opacity="0.25"></line><line x1="0" y1="0" x2="296" y2="0" fill="rgb(0, 0, 0)" stroke="rgb(60, 60, 60)" stroke-width="1px" opacity="0.25"></line></g></g></g><g><g><line x1="0" y1="154.26666666666665" x2="296" y2="154.26666666666665" fill="rgb(0, 0, 0)" stroke="rgb(153, 153, 153)" stroke-width="1.5px"></line></g></g><g><g><line x1="37" y1="0" x2="37" y2="178" fill="rgb(0, 0, 0)" stroke="rgb(153, 153, 153)" stroke-width="1.5px"></line></g></g><g><g><g><g><g><path style="fill: none;" stroke="rgb(204, 51, 17)" stroke-width="2px" d="M37.37,119.35888964335123L37.444,119.06207485221188L37.814,123.8465365034452L38.036,123.98566653624701L38.11,119.74895679034728L38.332,109.42316513631647L38.480000000000004,86.05033091299319L38.776,92.69697861678685L39.664,98.49539220933833L39.96,93.97545615860001L40.108000000000004,89.47322317423418L40.256,91.96913639633166L40.330000000000005,87.45391972576722L40.478,90.45864811342915L40.922000000000004,93.0029901543597L40.996,94.34504415989767L41.07,96.91303214142545L41.144000000000005,99.4006865017419L41.218,98.89035225120602L41.809999999999995,100.6223570590981L42.032,99.42601816134876L42.254,99.99639072736872L42.327999999999996,101.65173103086855L42.401999999999994,97.13392596828481L42.476,91.2721867279921L42.846,92.47769258975931L43.437999999999995,92.44738730220989L43.512,93.74013958003246L43.955999999999996,95.44513221712653L44.548,95.28401709010201L44.769999999999996,96.43823893841862L44.844,97.48579346576437L45.362,93.10482736300499L45.583999999999996,94.44569313975884L45.732,94.9282798525448L46.324,94.48397306023737L46.546,95.49225524339481L46.62,94.9683201831597L47.286,92.36262265623023L47.434,92.86676449029481L47.508,92.54418761955532L47.582,92.36193542452214L48.1,92.02847075714308L48.47,92.64240604866664L48.618,93.58171184250668L48.692,94.3064894887082L48.988,94.68180600091513L49.358000000000004,93.21087381138642L49.432,94.17495065596952L49.654,93.12650424506212L50.098000000000006,92.12315750760531L50.172000000000004,91.82942651928134L50.32,92.51565904917547L50.542,92.6424788086822L50.690000000000005,93.4831605491381L50.764,94.070578292888L50.912,94.11825318709955L51.059999999999995,93.55913614536861L51.13399999999999,93.86776379834599L51.651999999999994,93.26485421166127L52.244,92.98236586499236L52.318,93.68067963358357L52.391999999999996,93.63805111820834L52.687999999999995,93.72270789522491L53.428,93.93825885517741L53.501999999999995,94.49547575212979L53.65,93.22715166617647L53.946,90.44901659174312L54.168,88.09537039720516L54.242,88.53126669968309L54.316,87.23873924011313L54.538,87.75921735443728L55.426,87.44548718389136L55.87,88.2266464202854L56.092,87.8980995361149L56.24,88.33453293819187L56.314,88.88766104353147L56.462,89.1921272184881L56.758,89.48497782934952L57.054,89.43753377909759L57.202,89.8015855782111L57.572,89.47377249932066L58.608000000000004,88.43038018737387L58.978,88.70488849507352L59.05200000000001,88.73276752407365L59.348000000000006,88.4937201121086L59.422000000000004,88.6551917015044L59.718,89.01480659422965L59.792,88.99838250988871L59.940000000000005,88.89159986315887L60.162,89.11215956119264L60.532,89.44037565349025L60.605999999999995,87.49768492137001L60.68,88.13247715671748L61.05,86.80818901944176L61.123999999999995,87.03620713030217L61.19799999999999,87.15366872891056L61.419999999999995,85.6296810945955L62.086,84.6230737494104L62.233999999999995,84.36264042268266L62.678,84.6886886712396L63.122,84.45282030255864L63.196,84.86181220920918L63.64,84.38033138034078L63.862,84.49607116754278L64.158,84.68726368664609L64.454,83.90861217745318L64.602,84.29335620510867L64.898,84.82225994239894L64.972,85.16883953748753L65.046,85.26173655360854L65.194,85.62350318030683L65.56400000000001,86.1601722053007L65.934,86.34614443197778L66.008,86.05665857941483L66.08200000000001,86.18098585643676L67.19200000000001,84.56741137450175L67.71000000000001,84.65872305728372L68.154,83.99435481209093L68.22800000000001,83.61379009212315L68.376,83.04351415412091L68.524,82.94302435785148L68.82000000000001,82.6622619495597L69.48599999999999,82.5292710635569L69.634,82.90144252335558L69.708,82.35512807944025L69.92999999999999,82.71662694656693L70.374,83.07411521991473L70.966,83.13203975589188L71.03999999999999,82.25581886609238L71.262,82.53129764739391L71.336,82.0816134746188L72.002,80.72992125819712L72.076,80.92430432144927L72.89,80.17030043588052L73.112,80.28634672635744L73.18599999999999,80.57594698352241L73.334,80.85750955872227L73.482,80.70162698101545L74.51799999999999,80.17800029699347L74.888,80.65692538808584L75.036,80.43917348090834L75.258,80.72890151550199L75.40599999999999,80.97701091047897L75.776,81.17482562128954L75.85,80.21008321477406L76.294,80.49126125023956L76.442,80.73342637014495L76.516,80.24760027989582L76.664,79.73633131921291L76.738,80.19451949439289L76.96000000000001,80.16581123089814L77.108,80.37087842272703L77.478,80.3218895252802L77.552,80.57023252021318L78.21799999999999,80.06742764976161L78.366,80.22275760372894L78.66199999999999,80.19757077954885L78.736,80.2540602206967L78.81,80.4254942093359L79.106,79.12584943223037L79.402,79.25198272756846L79.476,79.09201268679706L79.698,79.11827791199647L79.846,79.37036529687836L79.92,78.6280906585514L79.994,78.53161537345827L80.06800000000001,78.77568463435892L80.142,79.06262814064974L80.21600000000001,78.11139608478278L80.364,78.43721546874691L80.438,78.71732791498295L80.808,79.03712567536738L80.882,79.33343300728845L81.178,79.61280043279002L81.4,79.6776787076039L81.548,80.00565667128977L81.992,78.84356450138843L82.14,78.66909243866652L82.51,78.18334544256349L82.806,77.16268606437677L82.88000000000001,76.61126101673925L83.028,76.75032491310802L83.916,75.79571294142659L84.434,74.83155194411304L84.508,75.157258842778L84.65599999999999,75.30097440785626L84.73,75.52159263554475L84.80399999999999,74.5408632892109L84.878,74.85686998938688L85.026,74.9222593657403L85.24799999999999,74.38946462890286L85.544,73.36268853993954L85.618,72.44854592628072L85.914,72.11121307934901L86.136,72.40486999692584L86.43199999999999,72.385420571159L86.654,72.74750183321669L86.728,73.01445554788195L86.802,73.06715864614713L86.87599999999999,73.30661504707629L86.95,73.59773394941847L87.098,73.36948464767005L87.172,73.61537274997731L87.24600000000001,73.69407105177426L87.46799999999999,73.31326635672403L87.542,72.70196847477887L87.616,72.9018814320126L87.764,73.24190078402046L87.91199999999999,73.42890245219469L87.986,73.5522907762986L88.50399999999999,72.75040790221539L88.726,72.99427943440138L89.022,73.07321875060073L89.244,73.23317041260876L89.392,73.5732819218751L89.53999999999999,72.83044028492466L89.836,73.03911199875053L90.132,73.12625879972782L90.35400000000001,72.3557079969435L90.428,71.6116000303049L90.50200000000001,71.22474912044555L90.576,70.44725923700975L91.02,70.67560539850783L91.464,70.16848972885491L91.612,70.27033930129657L91.686,69.38760544073274L91.98200000000001,69.68884303661028L92.204,68.97228982718846L92.278,69.11397983900636L92.5,69.31961212320954L92.574,69.56499658086152L92.648,69.28561678480506L92.796,69.39712108679271L92.944,69.60017891268245L93.388,69.6613885291002L93.61,69.58669989245247L93.684,69.82672862900759L93.90599999999999,70.05636989983543L93.98,70.16225307141691L94.05399999999999,70.08217109404137L94.202,69.62474499729197L94.276,69.6829031893628L94.72,69.53970742636784L95.016,68.79177463305376L95.08999999999999,68.97686340376546L95.238,69.27967851754727L95.386,69.30371883035095L95.53399999999999,69.43025800916517L95.608,69.71084052793077L95.68199999999999,69.81372976741497L95.756,69.86609927955018L95.83,70.11394627857226L96.052,70.2483423342467L96.2,70.45852995925043L96.348,70.22066939564827L96.57,70.39421505466646L96.71799999999999,70.62986953134725L96.792,70.8173421588263L96.866,71.01804372900594L97.31,71.0859605687941L97.384,71.25456506238984L97.53200000000001,71.48513909060532L97.75399999999999,71.44301371511543L98.05,71.4194661677789L98.272,71.38128429598794L98.494,70.64652964241742L98.56800000000001,70.0270294708034L98.71600000000001,69.33085875856159L98.864,69.47410233708636L99.012,69.6029576716964L99.382,69.69184369739094L99.60400000000001,69.58437469254903L99.75200000000001,69.7903158714565L100.862,69.89566882990125L101.158,69.93427076987021L101.306,69.28827699040733L101.38000000000001,69.20125620301475L101.676,69.35440615982871L101.824,69.56392933611984L101.898,69.15056157664479L102.11999999999999,69.31457324850396L102.26799999999999,69.26005958672584L102.416,68.6290079259136L102.638,68.69995756110487L102.786,68.04357825492852L102.86,67.74719168784966L103.008,67.3624205413078L103.30399999999999,67.15597820293736L103.6,66.72990316610988L104.118,66.57299335954869L104.192,66.57291136013181L104.266,66.66039828108889L104.33999999999999,66.3829036018927L104.488,66.60604630114835L104.71000000000001,66.77867399056844L104.78399999999999,66.96590272436106L104.858,67.01301198360402L105.08,66.36905818628371L105.154,66.5848623347303L105.228,65.96714162339903L105.302,65.68080376149118L105.894,65.4205713091977L105.96799999999999,65.38755586942663L106.19,64.80201067232458L106.708,64.65491020879396L106.93,64.54392439883696L107.522,64.17413547534488L107.596,63.61339334245544L107.744,62.986210074787564L107.81800000000001,63.177427508791524L107.892,63.05134285208203L108.114,63.2592987992909L108.188,62.874997606465556L108.336,63.03236513744557L108.484,62.40726576671385L108.85400000000001,62.42360819049465L108.928,62.263488386547166L109.224,61.693611249801066L109.298,61.20962286776147L109.372,61.141592784860194L109.44600000000001,61.36805040014154L109.66799999999999,61.5060736400831L109.742,61.670739690350985L109.816,61.50842335885868L110.03800000000001,61.00138911370634L110.112,61.13079080543852L110.704,61.34953479276007L111,60.958038480869476L111.148,60.40857298980754L111.296,59.88841505451825L111.36999999999999,59.838866607941014L111.592,60.029032492633206L111.814,59.44069819012378L111.888,59.60283157028444L111.96199999999999,59.038336328239936L112.036,59.26429390757528L112.258,58.84992025605274L112.85,58.72577158837734L112.99799999999999,58.23094905717011L113.14599999999999,58.44002404601038L113.294,57.892991073569874L113.368,57.48466927564611L113.58999999999999,57.37657298295237L113.738,57.21456682903997L113.886,57.13461548215376L114.256,57.18695107088077L114.774,56.64401645361389L114.848,56.787015051240246L115.07,56.29890549466484L115.21799999999999,55.781882497046766L115.66199999999999,56.037034731397284L115.736,56.288732389785466L115.884,56.502189662790386L116.03200000000001,55.985709889509664L116.328,56.107765726876124L116.62400000000001,55.64176140993935L116.772,55.26543460519731L117.142,54.80929741433596L117.21600000000001,54.47865852784622L117.28999999999999,54.006013438007656L117.808,53.558139187623496L117.882,53.10496619729648L118.326,52.85323159330444L118.622,52.34139025793583L118.69600000000001,51.86817520604019L118.77,51.40368154456539L119.436,51.52413817537101L119.584,51.711846118170016L119.806,51.401516190513036L120.25,50.888775873080945L120.324,50.460919860999255L120.61999999999999,50.44305143336541L120.842,50.64101868459346L120.916,50.68776994335846L120.99,50.287651828987435L121.21199999999999,50.45869316529986L122.026,50.006090235228456L122.24799999999999,50.11273028198815L122.47,50.089355448749416L122.544,50.32724814722923L122.618,50.21830588358398L122.83999999999999,50.50976003524194L122.914,50.12574403956765L122.988,49.73075526032923L124.098,49.43815911720807L124.32,49.02357529336766L124.46799999999999,49.26248533077376L124.542,49.302311102673514L124.69,49.26602070161374L124.764,49.468777250490376L124.986,49.65006395717222L125.208,49.18617115298537L125.28200000000001,49.12352282220661L125.43,49.196297722461395L125.578,48.769005953937835L125.726,48.3408780297525L125.87400000000001,48.34333454794944L126.096,48.347881696483455L126.244,48.57668031158576L126.392,48.8106063411571L126.53999999999999,48.94600317087898L126.688,49.19843586985783L126.836,49.46982651362205L127.576,49.05271473347727L127.872,48.62850254580624L128.168,48.180978428155015L128.24200000000002,48.32991407266314L128.316,48.59265957798513L128.464,48.69893316229792L128.686,48.468550491100046L128.908,48.41523456186226L129.056,48.0372978555653L129.27800000000002,47.91635464191231L129.72199999999998,47.52069429986312L129.87,47.1217350346578L130.018,46.73776211312068L130.092,46.283896909135876L130.314,46.36907639095213L130.388,46.55011288425371L130.462,46.35169209852455L130.684,45.93514523912907L131.276,45.55212125572589L131.646,45.48300229522732L131.79399999999998,45.67401971040488L132.238,45.923114361783064L132.534,45.52167463440543L132.608,45.45969122456174L132.682,45.41868687333786L132.756,45.06364313675226L133.20000000000002,44.64054089868799L133.422,44.59167250599182L133.94,44.787738184311564L134.088,44.91943629693256L134.31,45.11497389402035L134.38400000000001,44.74260030960235L134.606,44.37391229101647L134.68,44.58636216017865L135.04999999999998,44.79504675585207L135.124,44.92723441627038L135.198,44.55653670676793L135.42000000000002,44.41803076125129L135.642,44.399754376914615L135.716,44.491843473485574L135.79,44.58351191820012L135.864,44.78629991004868L135.938,44.716947219693196L136.382,44.736877872839756L136.826,44.71955404766703L137.27,44.929265910726826L137.566,44.88560403782651L137.714,44.79456841371547L138.084,44.69254459135041L138.38,44.374000754709726L138.898,44.0025281003839L139.046,43.64917928564407L139.268,43.5434371042156L139.416,43.155699871201165L139.49,42.91899646254117L139.712,43.08306552473056L139.786,43.16424660745855L139.934,42.76414919785779L140.00799999999998,42.50930836766747L140.23,42.1490765319252L141.488,41.783510406293715L141.562,41.53099865854753L141.636,41.71327570384432L141.71,41.37160957268179L142.006,40.94323681452033L142.228,40.96352552603071L142.524,40.60661298272598L142.598,40.259647866587045L142.672,39.95693064859941L142.968,40.044376466778914L143.042,40.225300280934306L143.11599999999999,40.32375665014189L143.264,39.953021684245556L143.412,39.63095389172085L143.56,39.5806291287189L143.708,39.76803897566111L144.29999999999998,39.78198013277694L144.67000000000002,39.4531387693923L144.744,39.631975107545145L145.41,39.32982997651834L145.484,39.35999745074858L146.298,38.99712044748716L146.668,39.22240522626626L146.89000000000001,38.82801621330523L146.964,38.60932601786365L147.186,38.784015249186155L147.334,38.432879628148584L147.408,38.106093919729716L148,37.7611041873831L148.07399999999998,37.43528999158357L148.148,37.14297328028334L148.222,36.84958413194147L148.444,36.83604649370335L148.592,37.02971347362873L148.666,37.21755593814103L148.73999999999998,37.392321319228074L149.332,37.34187078803825L149.702,37.53682320032647L149.776,37.260594924478795L149.99800000000002,37.03717205262308L150.516,36.9988943472118L150.66400000000002,36.88335283428157L151.404,36.72999908862266L151.774,36.6834833424368L151.848,36.694645388584064L151.99599999999998,36.36851019108505L152.07000000000002,36.543981297742306L152.514,36.17183322168256L152.588,36.19824355765576L153.032,36.12641150597577L153.106,35.852986971225306L153.772,35.528411687107706L154.06799999999998,35.22936157259312L154.216,35.23687966165642L154.512,35.150371715591376L155.178,34.87965613109776L155.32600000000002,34.87169212044037L155.548,34.83531935933718L155.696,34.833555428352724L155.77,35.00485053508615L156.14,34.680307735990596L156.362,34.553745729818104L156.732,34.40643882772184L156.88,34.10740746341202L157.17600000000002,33.721944272868996L157.32399999999998,33.41053496653589L157.398,33.52789953301965L157.472,33.71022297113586L157.62,33.60354019680426L157.768,33.60764696673124L158.138,33.6916626973655L158.36,33.35175864113023L158.50799999999998,33.55653552745591L158.73,33.40939663927276L158.952,33.596142675941195L159.24800000000002,33.312385604043584L159.47,33.31975111938715L159.766,33.090128065216874L159.84,33.0751187304752L159.91400000000002,33.17325286967721L160.43200000000002,33.015512060550265L160.57999999999998,33.21571998189836L160.728,32.87131545283839L160.95,32.50711166492303L161.024,32.240434946933306L161.468,32.202808689617285L161.54199999999997,32.05401616854584L161.838,32.27536124703849L162.134,32.008582634157165L162.356,31.951253805640164L162.42999999999998,31.68943689174435L162.50400000000002,31.370178818394493L162.578,31.56548103318147L162.726,31.2471368038118L162.948,30.956969710848796L163.466,30.616917206045912L163.54,30.355235561796036L163.91,30.46560791726023L164.058,30.212318388792937L164.132,30.1594566671788L164.206,29.891054643507687L164.872,29.576510960465384L165.168,29.26835977289403L165.24200000000002,29.447893103258025L165.316,29.664368476057575L165.39,29.373146570159093L165.538,29.09433342009271L165.908,28.77748932574889L165.982,28.854544264183914L166.13,28.893523755957915L166.204,28.669689230005048L166.278,28.662934795327914L166.5,28.676046141312327L166.648,28.82827589930926L166.722,28.541412438569353L166.796,28.519710143310647L167.462,28.538014904810495L167.684,28.753413089553533L168.35,28.462801381152985L168.794,28.63335386603373L168.868,28.361600575134105L169.31199999999998,28.56539020301372L169.38600000000002,28.538926772457984L169.46,28.713790783424372L169.60799999999998,28.782999397453892L170.052,28.94091060677252L170.49599999999998,28.692872126849778L170.57000000000002,28.757887506841683L171.162,28.846543324485538L171.236,28.73492897581255L171.45800000000003,28.640894947609297L171.67999999999998,28.362465193054817L171.976,28.160200688448583L172.124,28.400965497918122L172.42000000000002,28.627521587269968L172.86399999999998,28.827885120294383L173.16,28.958631102375108L173.234,29.167831046918394L173.456,29.37849930133615L173.604,29.09459802211424L173.82600000000002,29.289240578499573L174.122,29.34488374928256L174.27,29.10074851783449L174.418,29.22610947563055L174.49200000000002,28.91714729816249L174.566,29.125088461599972L175.084,29.29578722640983L175.232,29.407601339531737L175.306,29.521196399376066L175.75,29.224190248381063L175.82399999999998,28.95271268088908L175.898,29.11955727254457L176.046,28.85431094776891L176.194,28.555210460498643L177.082,28.68613286012078L177.74800000000002,28.378893775150118L178.044,28.60199468217965L178.41400000000002,28.65253146039467L178.488,28.371376628104144L178.85799999999998,28.61863562663487L178.93200000000002,28.838276783182664L179.006,28.56279266262328L179.302,28.718808197414745L179.376,28.689679509345126L179.82000000000002,28.565577930525762L180.116,28.26486385558843L180.19,27.964500467124907L180.264,28.107822763082197L180.412,28.3158062155928L180.486,28.072777167203526L180.856,27.83600677102902L181.078,27.702725619805875L181.226,27.467062616179078L181.448,27.589723754987347L181.67000000000002,27.689587000366146L181.89200000000002,27.92150189688917L182.04,28.0150106840683L182.484,28.205661130819067L182.558,28.362975512588832L182.706,28.207908290608117L182.854,27.923152167531157L183.52,28.07389195701643L183.594,27.905210329786456L183.668,28.073482861227575L183.74200000000002,27.888193271351867L184.778,28.079711766109682L185.07399999999998,27.798743776266633L185.37,27.520112520035582L185.444,27.244426147237277L185.666,27.378793782209414L185.73999999999998,27.107700606798005L185.962,27.347475793684367L186.11,27.224000204770476L186.25799999999998,27.290987885985714L186.628,27.35837944673105L186.85,27.56162087749351L186.99800000000002,27.77137868931976L187.072,27.56193684614749L187.22,27.285234287609597L187.442,27.224538312609013L187.66400000000002,27.38993649460309L187.81199999999998,27.167121222512577L188.034,27.13569862792764L188.256,27.202159170388143L188.32999999999998,27.397711767600697L188.552,27.17824567713916L188.774,27.118214317729553L189.366,27.182210333421978L189.44,27.369923907303217L189.588,27.149614174709228L189.95800000000003,27.346067233398514L190.328,27.099906880239757L190.402,27.166020528197237L190.476,26.870741236413238L190.624,26.96766958831887L190.698,26.90661845911626L190.846,26.654405382110554L190.994,26.392362950144957L191.216,26.552781152922392L191.29,26.33298282152478L191.58599999999998,26.12720682906607L191.956,26.03177868326219L192.104,25.956731665796156L192.548,25.685561563011902L192.622,25.779718038701958L192.696,25.89104430177602L192.77,26.058900423034913L192.844,25.904803608480705L193.066,25.66337328212012L193.21400000000003,25.413579454413764L193.43599999999998,25.582704978993974L193.51000000000002,25.55910611112691L193.732,25.325626807348243L193.88,25.550106386505007L194.028,25.641238233868563L194.102,25.373334092275684L194.17600000000002,25.528982444349452L194.472,25.593429575580103L194.768,25.358714572820816L194.842,25.5178462357444L194.916,25.50435421542278L195.212,25.459276896107866L195.28599999999997,25.54129472471439L195.434,25.639047957167435L195.50799999999998,25.747608980297542L195.656,25.761732789192905L195.73,25.512576168622957L195.804,25.300636637645113L195.952,25.45520300175548L196.026,25.207558725337975L196.17399999999998,24.940122487753342L196.396,24.930416057347486L196.544,25.161218683980138L196.618,24.9542664696244L197.06199999999998,24.991600898941726L197.13600000000002,25.196780531520346L197.21,25.388666618079043L197.506,25.45446378070494L197.654,25.257330952147242L197.802,25.048485797654735L198.098,24.88912532194405L198.616,24.732329649884946L198.838,24.937236809739574L198.986,24.805110039322898L199.134,24.692269084701138L199.20800000000003,24.71846742581525L199.50400000000002,24.562348976124014L199.652,24.695593052920856L199.726,24.687842946163187L199.8,24.715473702860947L200.022,24.56031717912998L200.096,24.608255412069212L200.31799999999998,24.799946710099505L200.39200000000002,25.00416405759401L200.61399999999998,24.766329941126457L200.83599999999998,24.909740202125477L201.132,24.642865030239193L201.57600000000002,24.39768897835998L201.65,24.558380058782916L201.872,24.652124381777554L201.946,24.41267777516549L202.094,24.379608743434517L202.24200000000002,24.12044651981489L202.316,23.901237012918784L202.46400000000003,24.06987834966938L202.538,24.184277769277912L202.68599999999998,24.375480367057605L202.76000000000002,24.119541554723128L202.834,24.06985558553083L202.908,24.17376649242445L203.056,24.18114281008488L203.204,23.97791312919759L203.278,23.74806133701179L203.57399999999998,23.72180339809657L203.648,23.81159844697183L203.796,23.89538917471117L204.018,23.882282863297036L204.166,23.650467096831022L204.388,23.757121244105832L205.276,23.54389450004365L205.572,23.277448237284432L205.794,23.105575231325787L206.16400000000002,22.90648628581235L206.31199999999998,22.96464278367469L206.534,23.02466744166705L206.978,23.18504390354866L207.052,23.322911732594264L207.2,23.330658010880995L207.422,23.416054444217025L207.644,23.146219188615305L207.718,22.916158827668085L207.79199999999997,23.13012571250607L208.45800000000003,22.880357772229615L208.532,22.660517943826306L208.606,22.417704626651954L208.67999999999998,22.570353806850477L208.828,22.384470933405623L208.976,22.307690648606723L209.198,22.45888195683233L209.56799999999998,22.284770010764305L209.716,22.079315964815294L209.79,22.12012823810221L209.86399999999998,21.93292124099034L209.93800000000002,22.019985461397113L210.53,21.886352250503307L211.196,22.092638717913758L211.566,22.22151377516684L212.158,21.990987125557467L212.232,22.048334844879264L212.454,21.938474703321674L212.75,21.69172948609574L212.972,21.5627074736268L213.268,21.76479509797528L213.48999999999998,21.95987641455693L213.712,21.74588122788913L213.78599999999997,21.58684385515332L213.86,21.43055635510268L214.00799999999998,21.47720702803872L214.6,21.54164360722831L214.74800000000002,21.29760202350198L214.896,21.331506679947097L215.044,21.109855439018872L215.41400000000002,21.120303220667125L215.784,21.31193841292793L216.376,21.237351833422366L216.45,20.99503482702673L216.524,21.076294852768655L216.82000000000002,20.87039048355919L217.04199999999997,20.843201587309892L217.264,20.680467708863006L217.856,20.46547724544243L218.00400000000002,20.604252872651045L218.3,20.401427053451755L218.374,20.537620642070095L218.448,20.314547785243406L218.522,20.43937537227825L218.67000000000002,20.249133244681303L218.81799999999998,20.049854667340668L219.04,19.95384167589006L219.262,20.065360038364247L219.33599999999998,19.97105316821012L219.484,19.838302907222214L219.632,19.595199448192204L220.15,19.336037553385438L220.446,19.51523314481352L220.594,19.701510136847986L220.74200000000002,19.71495728669649L220.89,19.74972315116827L220.96400000000003,19.54252930340553L221.112,19.473916931140337L221.334,19.567700961739007L221.482,19.356069811372947L221.704,19.33902924777442L221.852,19.15704454405497L222.07399999999998,18.93652297556818L222.148,18.72177557265212L222.222,18.673570466684566L222.962,18.833917386475918L223.03599999999997,18.643441862459582L223.184,18.59843169157267L223.25799999999998,18.701705361936064L223.332,18.71172867860156L223.406,18.529480348313967L223.628,18.70630168073373L223.702,18.521571118278274L223.85,18.354393496413905L224.072,18.463150633227173L224.22,18.679211209282983L224.368,18.683192119104717L224.516,18.604192447320855L225.18200000000002,18.506983494590287L225.256,18.63105799680406L225.478,18.623774806895483L225.626,18.75261271586615L225.774,18.921264529760975L225.922,19.04357083278137L226.07000000000002,18.84070863194782L226.144,18.987617796459375L226.366,19.019593711861432L226.81,19.18152947574893L226.884,19.123648899915622L227.17999999999998,19.00448339882695L227.402,18.80478977715049L227.624,18.75688477827353L227.772,18.532537417489067L227.846,18.531277096379085L228.14200000000002,18.33093280776501L228.43800000000002,18.367227081562646L228.66,18.158793789574673L228.734,17.93661684921412L228.808,18.0008031217763L228.882,17.771082673419528L229.104,17.758097172798387L229.4,17.92192096284637L229.548,17.9798641205021L229.844,17.787657577072395L229.918,17.637779040175218L230.066,17.667069857258866L230.14,17.47715217672237L230.51000000000002,17.291566034879366L230.732,17.379121719768705L230.806,17.540144066254413L230.954,17.29970624353976L231.102,17.101335330246087L231.25,17.194172705154386L231.32399999999998,16.979147694421442L231.546,16.761116652496327L231.62,16.9337362227935L231.768,16.758100308353278L231.98999999999998,16.84801803323373L232.06400000000002,16.861830093000066L232.212,16.991539648648626L232.656,16.998246193108372L232.878,16.811929794539452L233.1,16.669064554556826L233.17399999999998,16.625824370104482L233.47,16.442182453566517L233.91400000000002,16.212227625497206L234.876,16.365849131088055L235.172,16.17919826192221L235.32000000000002,16.316230266091736L235.69,16.12095699605726L235.912,16.29288387114724L236.06,16.422157078030523L236.356,16.24730204941949L236.726,16.388886738873737L237.022,16.549650629827426L237.31799999999998,16.73317124558747L237.54,16.684753977255127L238.206,16.763842813588695L238.65,16.910688357425784L239.39,17.041205965726505L239.46400000000003,17.1422697499589L239.538,16.92743919511176L239.76000000000002,17.037768150085185L239.834,17.16066060131186L240.204,17.281296625683723L240.352,17.074190132870257L240.648,16.84574730192449L240.722,16.977977716158392L240.796,16.79455311146245L240.87,16.55196201500624L240.944,16.347232646160705L241.018,16.140686706176638L241.092,16.137382904988556L241.684,16.315003969857855L241.906,16.336709188536787L242.35,16.479362782755317L242.646,16.588118037910164L243.38600000000002,16.74010716058754L243.46,16.797187871323672L243.534,16.71995256949134L244.052,16.83111997620273L244.422,16.826863678815954L244.644,17.02375034922528L244.79199999999997,16.79984709056805L244.866,16.6797292979725L244.94,16.720774500889178L245.014,16.617293488657367L245.31,16.459353534041384L245.902,16.232882079538683L245.976,15.997712667189518L246.198,16.059445536302093L246.346,16.214654539366364L246.42000000000002,16.351123551726346L246.56799999999998,16.495988992978L246.93800000000002,16.678869380943866L247.456,16.6426986193662L247.604,16.453916009170285L247.82600000000002,16.20461608117546L247.974,16.004568683677405L248.344,15.794211077043173L248.566,15.576140720355482L248.788,15.346530045410532L249.454,15.443640028681557L249.528,15.537168263555742L249.75,15.563405688903941L249.972,15.586864439292128L250.12,15.722521306510572L250.194,15.669148599455951L250.638,15.778154298466688L250.86,15.959058957126956L250.934,16.105266583110478L251.082,16.250033085538064L251.304,16.26336339397318L251.452,16.385567506506675L251.6,16.442580159379986L251.822,16.56577842315687L251.896,16.469228500065896L251.97,16.489948836379767L252.488,16.517448837121123L252.85799999999998,16.647049868939916L253.006,16.62908073035831L253.07999999999998,16.66597315984677L253.154,16.76200705794639L253.45,16.91464289218044L253.524,16.964772014889377L253.894,16.885177915586382L253.968,16.65616079685597L254.264,16.456063704941585L254.486,16.61930318964332L254.56,16.404207441997755L254.70800000000003,16.555831090051157L255.226,16.587737797036425L255.3,16.721417371181417L255.67000000000002,16.72643680298833L256.558,16.8017232373804L256.928,16.866946554035707L257.076,16.86041939964153L257.15000000000003,16.902245161681236L257.372,17.047502248564484L257.446,16.837539473840934L258.112,16.798800549843264L258.55600000000004,16.924551182650674L258.85200000000003,17.069433711257318L258.926,17.23011139245014" fill="none"></path></g></g></g></g><g opacity="0.2"><g><g><g><path style="fill: none;" stroke="rgb(204, 51, 17)" stroke-width="2px" d="M37.37,119.35888964335123L37.444,118.76555687586466L37.814,133.40111120541889L38.036,124.4022224108378L38.11,102.84444255828858L38.332,57.94888737996418L38.480000000000004,-53.69666213989257L38.776,139.03777815500894L39.664,144.67444439729056L39.96,53.4988873799642L40.108000000000004,44.69777475992839L40.256,119.25999943415324L40.330000000000005,33.62221844991049L40.478,129.24777758916218L40.922000000000004,128.35777702331544L40.996,114.31555687586467L41.07,137.6533336162567L41.144000000000005,141.31222184499106L41.218,89.79111035664876L41.809999999999995,133.2033336162567L42.032,75.7488873799642L42.254,111.84333276748657L42.327999999999996,137.6533336162567L42.401999999999994,-5.537772496541322L42.476,-47.66444142659503L42.846,122.2266661008199L43.437999999999995,91.66999886830648L43.512,128.15999943415324L43.955999999999996,142.4988887945811L44.548,90.68111375172933L44.769999999999996,130.53333333333333L44.844,129.44555517832438L45.362,-44.79666213989259L45.583999999999996,137.95L45.732,111.05222241083781L46.324,79.21000226338705L46.546,131.1266661008199L46.62,75.9466677983602L47.286,-4.746662139892578L47.434,112.14000056584676L47.508,79.902219581604L47.582,85.04444255828858L48.1,78.31999886830648L48.47,118.46888907750447L48.618,133.9944439729055L48.692,126.18222354253135L48.988,111.54666779836019L49.358000000000004,25.71111488342285L49.432,139.33444453875222L49.654,43.01666666666668L50.098000000000006,43.214441426595045L50.172000000000004,77.23222071329752L50.32,127.26999886830647L50.542,99.18555291493733L50.690000000000005,137.6533336162567L50.764,125.49000056584676L50.912,96.71333446502685L51.059999999999995,62.59666779836017L51.13399999999999,111.25L51.651999999999994,58.73999773661295L52.244,76.53999773661295L52.318,134.98333333333335L52.391999999999996,91.07666893005371L52.687999999999995,98.88889077504476L53.428,107.29444538752237L53.501999999999995,129.5444453875224L53.65,12.26222750345866L53.946,-89.49443689982098L54.168,-66.5522252400716L54.242,117.57888851165771L54.316,-0.09888737996422492L54.538,123.41333446502685L55.426,65.66222184499105L55.87,143.1911110639572L56.092,64.47555631001791L56.24,119.85333220163982L56.314,129.3466677983602L56.462,111.74444538752238L56.758,111.44777758916219L57.054,85.83555291493734L57.202,117.77666610081991L57.572,63.98111375172934L58.608000000000004,6.328894170125324L58.978,110.55777702331544L59.05200000000001,90.9777758916219L59.348000000000006,69.02444368998209L59.422000000000004,101.95444482167562L59.718,118.96333446502686L59.792,87.61555404663086L59.940000000000005,79.8033322016398L60.162,108.08555574417115L60.532,117.97444368998208L60.605999999999995,-83.16555404663086L60.68,144.47666680812836L61.05,-31.94111035664875L61.123999999999995,107.69000056584676L61.19799999999999,97.89999999999999L61.419999999999995,-55.179995473225944L62.086,-9.295560836791992L62.233999999999995,59.82777589162191L62.678,115.7L63.122,61.80555744171143L63.196,124.501109790802L63.64,37.281108093261736L63.862,95.92222410837809L64.158,103.73444595336913L64.454,5.636671193440748L64.602,123.31444425582886L64.898,138.93888936042785L64.972,120.94111035664878L65.046,94.93333333333334L65.194,123.61111205418905L65.56400000000001,142.993333474795L65.934,106.20666440327962L66.008,54.88333333333334L66.08200000000001,99.68000113169352L67.19200000000001,-92.0655540466309L67.71000000000001,94.73555291493734L68.154,10.086671193440765L68.22800000000001,40.93999773661295L68.376,18.591110356648755L68.524,71.49666779836019L68.82000000000001,50.43333333333334L69.48599999999999,67.14555517832437L69.634,126.28111092249553L69.708,18.195560836791998L69.92999999999999,125.49000056584676L70.374,125.68777815500896L70.966,90.08777815500895L71.03999999999999,-23.73333333333332L71.262,116.09555517832439L71.336,26.89777475992838L72.002,-86.32999547322589L72.076,105.11888624827067L72.89,-14.33888511657716L73.112,94.93333333333334L73.18599999999999,117.38111092249551L73.334,116.88666553497315L73.482,60.61888624827067L74.51799999999999,12.26222750345866L74.888,143.1911110639572L75.036,51.817779286702475L75.258,119.06222184499104L75.40599999999999,114.01888907750447L75.776,107.69000056584676L75.85,-49.93889643351238L76.294,118.66666666666667L76.442,113.82111148834228L76.516,13.44888737996419L76.664,8.998887379964202L76.738,143.98222212791444L76.96000000000001,76.14444255828857L77.108,109.27222127914429L77.478,73.37555631001791L77.552,115.99666779836019L78.21799999999999,7.911114883422869L78.366,102.64666779836018L78.66199999999999,76.53999773661295L78.736,88.50555744171143L78.81,105.61333446502685L79.106,-112.93110809326168L79.402,97.99888737996419L79.476,55.179995473225915L79.698,83.06666666666666L79.846,117.48000113169353L79.92,-34.21555404663087L79.994,63.78333333333332L80.06800000000001,116.29333276748658L80.142,123.41333446502685L80.21600000000001,-69.71666666666667L80.364,129.3466677983602L80.438,122.72111148834229L80.808,129.5444453875224L80.882,126.38000113169352L81.178,124.20444482167562L81.4,90.08777815500895L81.548,132.90666723251343L81.992,-109.56889190673832L82.14,50.235558573404944L82.51,-1.384445953369152L82.88000000000001,-14.63555857340495L83.028,99.87777589162191L83.916,-83.75887832641598L84.434,-87.12111714680992L84.508,130.13777815500896L84.65599999999999,99.68000113169352L84.73,113.1288885116577L84.80399999999999,-93.44999999999999L84.878,129.24777758916218L85.026,86.23111375172934L85.24799999999999,-18.195560836791998L85.618,-87.91221618652344L85.914,12.657777023315447L86.136,124.4022224108378L86.43199999999999,68.92555631001791L86.654,137.45555602709453L86.728,120.94111035664878L86.802,82.57222410837811L86.87599999999999,116.68888794581096L86.95,126.57777872085572L87.098,31.64444821675619L87.172,118.76555687586466L87.24600000000001,88.20888964335123L87.46799999999999,2.7688919067382756L87.542,-41.03889643351238L87.616,110.26111205418904L87.764,137.05999943415324L87.91199999999999,108.67888851165772L87.986,96.91110922495524L88.50399999999999,-79.70445048014324L88.726,119.55666723251343L89.022,88.20888964335123L89.244,104.03111375172934L89.392,139.33444453875222L89.53999999999999,-71.39777475992835L89.836,113.72222127914428L90.132,90.18666553497314L90.35400000000001,-79.11110356648766L90.576,-84.25333786010742L91.02,116.29333276748658L91.464,-31.545560836791992L91.612,90.78000113169352L91.686,-109.07445500691733L91.98200000000001,130.82999971707662L92.204,-77.03444595336913L92.278,98.097780418396L92.5,111.54666779836019L92.574,120.15L92.648,11.471105829874688L92.796,92.56000226338705L92.944,111.94222297668456L93.388,82.47333106994628L93.61,53.89444821675619L93.684,120.44666779836018L93.90599999999999,118.66666666666667L93.98,92.65888964335123L94.05399999999999,53.004439163208005L94.202,-28.282220713297534L94.276,82.17666893005371L94.72,38.66555404663086L95.016,-93.0544504801432L95.08999999999999,109.1733338991801L95.238,135.27999971707663L95.386,74.56222184499106L95.53399999999999,97.20777702331543L95.608,131.5222226937612L95.68199999999999,92.56000226338705L95.756,81.48444595336915L95.83,125.29222297668457L96.052,100.27333106994628L96.2,117.57888851165771L96.348,16.71222750345865L96.57,109.56888907750448L96.71799999999999,124.00666723251342L96.792,113.42555631001791L96.866,116.78777815500894L97.31,86.62666893005371L97.384,109.96444425582887L97.53200000000001,124.6L97.75399999999999,61.70666440327963L98.05,65.95888964335123L98.272,62.49778041839599L98.494,-100.86666666666667L98.71600000000001,-94.24112167358402L98.864,103.23999773661295L99.012,100.0755563100179L99.382,90.78000113169352L99.60400000000001,44.00555178324382L99.75200000000001,118.96333446502686L100.862,95.13111375172933L101.158,79.21000226338705L101.306,-86.42888285319009L101.38000000000001,48.158889643351245L101.676,106.50333220163981L101.824,120.54555517832438L101.898,-31.743335596720385L102.11999999999999,109.46999886830648L102.26799999999999,55.87221844991049L102.416,-86.82445500691733L102.638,86.23111375172934L102.786,-94.63667119344075L103.008,-28.578894170125324L103.30399999999999,15.52555631001789L103.6,-40.14888737996418L104.118,27.095560836791975L104.192,66.552219581604L104.266,88.802219581604L104.33999999999999,-4.054439163208002L104.488,123.41333446502685L104.71000000000001,110.85444482167561L104.78399999999999,114.90888964335124L104.858,79.11110922495526L105.08,-99.48222071329752L105.154,122.3255563100179L105.228,-94.04332427978517L105.894,-2.373331069946289L105.96799999999999,56.762227503458675L106.19,-88.60445048014321L106.708,26.007777023315413L106.93,35.303337860107405L107.522,-33.523331069946295L107.744,-103.63555857340492L107.81800000000001,114.11777645746866L107.892,29.370004526774096L108.114,118.96333446502686L108.188,-40.34666213989257L108.336,105.41555404663086L108.484,-106.40445048014323L108.85400000000001,66.8488873799642L108.928,18.78888511657715L109.224,-93.44999999999999L109.298,-70.90333786010743L109.372,42.52221844991047L109.44600000000001,123.51222184499105L109.66799999999999,99.48222071329752L109.742,107.09666779836019L109.816,16.613328806559252L110.03800000000001,-79.60556310017904L110.112,97.10888964335123L110.704,122.3255563100179L111,-48.455563100179035L111.296,-86.23110809326175L111.36999999999999,45.884445953369124L111.592,113.72222127914428L111.814,-107.09666213989254L111.888,105.61333446502685L111.96199999999999,-101.55887832641605L112.036,123.70999943415325L112.258,-59.629995473225904L112.85,23.13999773661297L112.99799999999999,-83.95667572021483L113.14599999999999,118.66666666666667L113.294,-100.0755449930827L113.368,-60.717779286702466L113.58999999999999,26.007777023315413L113.738,10.086671193440765L113.886,33.820004526774085L114.256,72.48555291493734L114.774,-102.44888737996422L114.848,98.78999773661296L115.07,-87.41777928670246L115.21799999999999,-96.81221618652347L115.66199999999999,131.5222226937612L115.736,130.9288885116577L115.884,119.9522224108378L116.03200000000001,-97.90000000000003L116.328,92.56000226338705L116.62400000000001,-83.85778834025064L118.77,-90.87888285319008L119.436,88.50555744171143L119.584,109.46999886830648L119.806,-44.30222524007161L120.324,-82.0777702331543L120.61999999999999,44.89556083679199L120.842,112.23888794581096L120.916,65.26666666666667L120.99,-74.75999094645184L121.21199999999999,104.03111375172934L122.026,-92.0655540466309L122.24799999999999,83.66000226338703L122.47,42.72000452677409L122.544,125.49000056584676L122.618,15.723331069946283L122.83999999999999,142.993333474795L122.914,-71.99112167358399L124.32,-83.65999094645184L124.46799999999999,125.88555574417114L124.542,62.102219581604004L124.69,37.577781550089526L124.764,114.90888964335124L124.986,108.28333333333333L125.208,-101.16332880655926L125.28200000000001,28.776668930053717L125.43,72.88111375172933L125.578,-90.58222071329754L125.726,-91.57111714680991L125.87400000000001,49.14777475992838L126.096,49.83999773661296L126.244,123.80888964335122L126.392,125.88555574417114L126.53999999999999,93.647780418396L126.688,132.70888822873434L126.836,139.43333333333334L127.576,-89.49443689982098L128.168,-101.06444142659507L128.24200000000002,98.097780418396L128.316,136.56555546124775L128.464,84.352219581604L128.686,-28.97444368998211L128.908,30.45777702331543L129.056,-79.50667572021484L129.27800000000002,7.021105829874671L129.72199999999998,-86.52777023315429L130.092,-108.3822207132975L130.314,75.452219581604L130.388,108.48111092249552L130.462,-21.65666440327962L131.276,-86.23110809326175L131.646,21.65666440327962L131.79399999999998,111.64555517832439L132.238,132.11555546124777L132.534,-93.64777475992838L132.608,23.931108093261713L132.682,31.150000000000006L132.756,-78.71555404663087L133.20000000000002,-103.141121673584L133.422,27.49111035664876L133.94,113.52444368998209L134.088,91.17555631001791L134.31,113.91999886830648L134.38400000000001,-86.52777023315429L134.606,-85.83555857340497L134.68,119.75444482167563L135.04999999999998,118.76555687586466L135.124,91.86777928670247L135.198,-87.31889190673832L135.42000000000002,-4.944448216756172L135.642,37.87444368998209L135.716,77.43000113169352L135.79,77.43000113169352L135.864,117.57888851165771L135.938,19.777781550089514L136.382,51.91666666666666L136.826,38.467779286702466L137.27,120.74333276748658L137.566,29.073331069946306L137.714,11.767779286702478L138.084,7.61444142659505L138.38,-71.5955495198568L139.046,-85.44000905354818L139.268,4.845560836791975L139.416,-98.9877838134766L139.49,-44.00556310017902L139.712,103.43777815500896L139.786,73.07888851165771L139.934,-104.92111714680988L141.562,-52.31221618652344L141.636,109.56888907750448L141.71,-86.03333333333336L142.006,-119.06221618652347L142.228,48.554439163208L142.524,-93.15333786010746L142.672,-73.8700045267741L142.968,72.98000113169351L143.042,108.48111092249552L143.11599999999999,77.52888851165771L143.264,-100.37222976684569L143.412,-82.47334238688148L143.56,20.47000452677409L143.708,111.05222241083781L144.29999999999998,45.09333559672038L144.67000000000002,-86.03333333333336L144.744,107.98666553497314L145.41,-76.34221165974938L145.484,50.927781550089534L146.298,-100.37222976684569L146.668,125.88555574417114L146.89000000000001,-113.12888285319008L146.964,-45.785558573404955L147.186,106.30555744171143L147.334,-97.50445048014325L148.222,-77.62777023315431L148.444,31.545560836791992L148.592,112.83222354253134L148.666,110.85444482167561L148.73999999999998,106.00888964335124L149.332,17.503337860107422L149.702,114.31555687586467L149.776,-71.69443689982097L149.99800000000002,-51.22445500691731L150.516,21.854439163208013L150.66400000000002,-8.900000000000006L151.404,-24.128894170125307L151.774,18.195560836791998L151.848,41.137772496541345L151.99599999999998,-93.64777475992838L152.07000000000002,106.602219581604L152.514,-112.63444595336915L152.588,46.77444368998209L153.032,7.317779286702461L153.106,-73.96889190673829L154.06799999999998,-85.24221165974933L154.216,38.2700045267741L154.512,0.197774759928393L155.178,-74.66110356648761L155.32600000000002,31.64444821675619L155.548,20.074443689982104L155.696,34.116666666666674L155.77,104.7233310699463L156.14,-97.60333786010739L157.32399999999998,-94.43889643351235L157.398,81.78111375172934L157.472,108.77777872085572L157.62,-10.383333333333326L157.768,35.303337860107405L158.138,68.43111375172931L158.36,-107.39332427978519L158.50799999999998,118.46888907750447L158.73,-27.688885116577154L158.952,111.25L159.24800000000002,-84.84666213989254L159.47,36.39111035664877L159.766,-62.794436899820965L159.84,26.798887379964185L159.91400000000002,74.26555404663085L160.43200000000002,-33.12778155008954L160.57999999999998,117.28222354253133L160.728,-111.94221165974938L161.024,-80.19888737996422L161.468,16.316666666666663L161.54199999999997,-30.853337860107416L161.838,125.98444312413534L162.134,-81.08889643351239L162.356,7.61444142659505L162.42999999999998,-79.60556310017904L162.50400000000002,-104.52554499308269L162.578,114.80999943415324L162.726,-104.62445500691734L163.54,-81.78110809326171L163.91,77.82555631001789L164.058,-78.61666666666667L164.132,7.416666666666657L164.206,-85.73667119344077L165.168,-103.83333333333331L165.24200000000002,107.09666779836019L165.316,123.41333446502685L165.39,-96.91110356648761L165.908,-108.97554499308268L165.982,62.398887379964194L166.13,45.884445953369124L166.204,-69.02445500691735L166.278,25.71111488342285L166.5,34.413328806559235L166.648,95.5266689300537L166.722,-97.30667572021486L166.796,18.986671193440742L167.462,36.58888511657713L167.684,123.61111205418905L168.35,-99.67999547322592L168.794,103.93222071329753L168.868,-91.76889190673825L169.31199999999998,118.76555687586466L169.38600000000002,16.811114883422846L169.46,106.30555744171143L169.60799999999998,59.531113751729336L170.052,99.18555291493733L170.49599999999998,-81.78110809326171L170.57000000000002,57.7511126200358L171.162,68.43111375172931L171.236,-21.162227503458666L171.976,-62.59666213989257L172.124,136.56555546124775L172.42000000000002,130.53333333333333L172.86399999999998,119.06222184499104L173.16,87.91222184499105L173.234,123.61111205418905L173.456,124.6L173.604,-99.38333333333333L173.82600000000002,117.48000113169353L174.122,54.586671193440765L174.27,-81.78110809326171L174.418,86.23111375172934L174.49200000000002,-111.74443689982098L174.566,123.90777702331543L175.084,107.19555517832438L175.232,80.49555517832438L175.306,81.48444595336915L175.75,-106.80000000000001L175.82399999999998,-95.52665761311852L175.898,105.71222184499105L176.046,-93.0544504801432L176.194,-109.07445500691733L177.082,89L177.74800000000002,-113.32665761311847L178.044,131.62111148834228L178.41400000000002,52.015554046630854L178.488,-101.75667572021484L178.85799999999998,143.1911110639572L178.93200000000002,130.73111092249553L179.006,-99.38333333333333L179.302,101.26222184499105L179.376,15.129995473225904L179.82000000000002,-29.271105829874642L180.19,-112.33778381347656L180.264,95.13111375172933L180.412,125.68777815500896L180.486,-85.83555857340497L181.226,-83.36332880655925L181.448,85.34111035664877L181.67000000000002,74.76000226338705L181.89200000000002,137.35666723251342L182.04,72.18889077504477L182.484,118.36999886830648L182.558,102.84444255828858L182.706,-45.29112167358397L182.854,-107.1955495198568L183.52,99.68000113169352L183.594,-52.31221618652344L183.668,108.18444312413534L183.74200000000002,-60.42111714680988L184.778,119.45777702331543L185.07399999999998,-106.40445048014323L185.444,-104.72334238688148L185.666,91.76888624827068L185.73999999999998,-102.94332427978514L185.962,142.4988887945811L186.11,-32.13888511657714L186.25799999999998,59.531113751729336L186.628,59.82777589162191L186.85,125.58888794581094L186.99800000000002,129.05L187.072,-73.6722297668457L187.442,-2.175556310017896L187.66400000000002,107.59111035664877L187.81199999999998,-80.99000905354819L188.034,11.866666666666674L188.256,59.531113751729336L188.32999999999998,122.62222127914428L188.552,-79.80333786010743L188.774,-2.175556310017896L189.366,58.443335596720374L189.44,119.16111205418906L189.588,-80.69332427978514L189.95800000000003,123.61111205418905L190.328,-93.64777475992838L190.402,59.63000113169352L190.476,-118.2711171468099L190.624,74.66110922495524L190.698,-3.164441426595033L190.994,-102.94332427978514L191.216,105.81110922495525L191.29,-82.37445500691734L192.548,-108.97554499308268L192.622,72.58444595336914L192.696,81.28666553497314L192.77,109.66777645746866L192.844,-50.92777023315429L193.21400000000003,-99.38333333333333L193.43599999999998,110.16222184499105L193.51000000000002,13.74556083679201L193.732,-91.67000452677411L193.88,138.1477775891622L194.028,71.397780418396L194.102,-109.27222976684567L194.17600000000002,103.83333333333333L194.472,58.0477747599284L194.768,-92.95556310017906L194.842,105.81110922495525L194.916,18.689997736612952L195.212,2.670004526774079L195.28599999999997,67.04666779836019L195.434,75.15555744171142L195.50799999999998,80.79222297668457L195.656,32.929995473225915L195.73,-101.06444142659507L195.804,-82.47334238688148L195.952,104.13000113169352L196.026,-100.96555404663087L196.17399999999998,-111.4477747599284L196.396,19.975556310017907L196.544,143.09222226937612L196.618,-80.891121673584L197.06199999999998,44.10443916320801L197.13600000000002,130.33555574417113L197.21,123.80888964335122L197.506,59.234445953369146L197.654,-76.04554951985676L198.616,-56.070004526774056L198.838,130.63222212791442L198.986,-43.41221618652344L199.134,-33.62221844991046L199.20800000000003,38.2700045267741L199.50400000000002,-56.267779286702506L199.652,93.74666779836019L199.726,20.667779286702483L199.8,39.061114883422846L200.022,-56.070004526774056L200.096,49.54333559672037L200.31799999999998,124.6L200.39200000000002,131.42333389918008L200.61399999999998,-99.28444595336913L200.83599999999998,99.77888851165771L201.132,-114.80999094645182L201.57600000000002,-103.83333333333331L201.65,108.67888851165772L201.872,73.77111148834229L201.946,-101.16332880655926L202.094,7.021105829874671L202.24200000000002,-112.04112167358397L202.316,-91.37334238688152L202.46400000000003,112.83222354253134L202.538,84.4511126200358L202.68599999999998,125.19333276748657L202.76000000000002,-110.95333786010741L202.834,-2.175556310017896L202.908,79.11110922495526L203.056,28.08444595336914L203.204,-83.65999094645184L203.278,-98.09777475992837L203.57399999999998,9.789997736612946L203.648,71.49666779836019L203.796,68.43111375172931L204.018,16.910002263387042L204.166,-99.77888285319011L204.388,80.59444255828858L205.276,-90.18667119344076L206.16400000000002,-83.56110356648765L206.31199999999998,54.09222297668457L206.534,55.179995473225915L206.978,109.1733338991801L207.052,97.30666440327963L207.2,27.49111035664876L207.422,69.32111148834228L207.644,-122.02888285319011L207.718,-100.96555404663087L207.79199999999997,138.44444397290547L208.45800000000003,-111.84332427978512L208.606,-108.77777023315429L208.67999999999998,105.11888624827067L208.828,-78.22111714680989L208.976,-19.28333333333333L209.198,104.42666893005371L209.56799999999998,-72.18889643351238L209.716,-89.49443689982098L209.79,44.30222524007161L209.86399999999998,-79.90222524007163L209.93800000000002,69.41999886830648L210.53,-50.92777023315429L211.196,134.58777815500895L211.566,92.56000226338705L212.158,-103.93222071329751L212.232,53.400000000000006L212.454,-38.17111714680988L212.972,-49.14777475992835L213.268,132.60999943415322L213.48999999999998,129.05L213.712,-95.8233423868815L213.86,-64.5744550069173L214.00799999999998,47.17000452677408L214.6,57.058889643351236L214.74800000000002,-113.32665761311847L214.896,40.04999999999998L215.044,-101.36110356648766L215.41400000000002,26.89777475992838L215.784,127.36888907750449L216.376,-20.074443689982104L216.45,-113.32665761311847L216.524,66.1566644032796L216.82000000000002,-93.44999999999999L217.04199999999997,5.735558573404944L217.264,-69.81555404663087L217.856,-99.18555857340493L218.00400000000002,97.89999999999999L218.3,-92.65887832641602L218.374,96.51555404663087L218.448,-104.2288828531901L218.522,90.18666553497314L218.67000000000002,-86.1322207132975L219.04,-33.820004526774056L219.262,82.57222410837811L219.33599999999998,-32.929995473225944L220.15,-126.3799954732259L220.446,120.3477775891622L220.594,124.6L220.74200000000002,27.293335596720368L220.89,39.357777023315435L220.96400000000003,-97.40556310017905L221.112,-19.28333333333333L221.334,72.58444595336914L221.482,-100.37222976684569L221.704,9.69111035664875L221.852,-83.95667572021483L222.222,-8.702225240071613L222.962,109.96444425582887L223.03599999999997,-89.69221165974938L223.184,-7.021105829874642L223.25799999999998,77.52888851165771L223.332,24.425556310017896L223.406,-85.44000905354818L223.628,119.65555461247762L223.702,-87.02222976684567L223.85,-77.2322207132975L224.072,80.69333559672037L224.22,142.4L224.368,20.964441426595045L224.516,-26.69999999999999L225.18200000000002,-37.28110809326171L225.256,89.88999773661295L225.478,14.437772496541328L225.626,92.85666440327962L225.774,115.99666779836019L225.922,89.49444255828858L226.07000000000002,-98.09777475992837L226.144,103.73444595336913L226.366,37.47889417012533L226.81,112.73333333333333L226.884,-14.33888511657716L227.772,-111.54666213989259L227.846,17.799999999999983L228.14200000000002,-97.99888737996417L228.43800000000002,39.45666440327963L228.66,-103.04221165974934L228.734,-111.3488873799642L228.808,55.37778155008951L228.882,-116.09554951985677L229.104,10.185558573404961L229.4,113.52444368998209L229.548,51.817779286702475L229.844,-94.53778381347655L229.918,-70.01332880655926L230.066,34.80888964335125L230.14,-93.74666213989258L230.51000000000002,-91.47222976684571L230.732,68.72777589162192L230.806,112.04111035664876L230.954,-123.90778834025065L231.102,-99.48222071329752L231.25,71.79333559672037L231.32399999999998,-109.56889190673832L231.546,-111.64554951985679L231.62,118.66666666666667L231.768,-86.82445500691733L231.98999999999998,69.91444708506266L232.06400000000002,25.018891906738276L232.212,93.647780418396L232.656,20.964441426595045L232.878,-93.44999999999999L233.91400000000002,-120.24888737996417L234.876,107.59111035664877L235.172,-94.73555857340494L235.32000000000002,97.80111262003581L235.69,-100.0755449930827L235.912,118.66666666666667L236.06,93.45L236.356,-88.01110356648763L236.726,100.86666666666666L237.022,112.53555574417113L237.31799999999998,126.38000113169352L237.54,-12.26222750345866L238.206,64.08000113169352L238.65,104.8222241083781L239.39,95.23000113169353L239.46400000000003,77.7266689300537L239.538,-111.94221165974938L239.76000000000002,83.26444708506266L239.834,90.9777758916219L240.204,89.79111035664876L240.352,-107.49221165974933L240.648,-120.64443689982096L240.722,96.61444708506266L240.796,-93.74666213989258L241.018,-108.57999547322589L241.092,14.141110356648767L241.684,123.70999943415325L241.906,29.468891906738264L242.35,102.84444255828858L242.646,82.47333106994628L243.38600000000002,108.8766661008199L243.46,51.42221844991049L243.534,-30.16111488342284L244.052,84.352219581604L244.422,14.239997736612963L244.644,136.76333305040995L244.79199999999997,-119.45778834025066L244.866,-56.46555404663087L244.94,41.731108093261724L245.014,-46.4777702331543L245.976,-127.66555404663086L246.198,53.79556083679199L246.346,111.15110979080201L246.42000000000002,99.87777589162191L246.56799999999998,105.21777928670248L246.93800000000002,128.7533322016398L247.456,-5.537772496541322L248.788,-125.98444595336917L249.454,75.25444482167562L249.528,73.17777589162189L249.75,31.743335596720385L249.972,30.062227503458672L250.12,99.48222071329752L250.194,-17.30555178324383L250.638,83.16555404663086L250.86,127.86333446502685L250.934,106.602219581604L251.082,105.91000226338704L251.304,24.524443689982093L251.452,92.16444708506266L251.6,51.817779286702475L251.822,93.05444482167562L251.896,-43.51110356648766L251.97,29.370004526774096L252.488,33.62221844991049L252.85799999999998,97.30666440327963L253.006,5.438885116577154L253.07999999999998,39.654439163208025L253.154,76.63889077504474L253.45,112.14000056584676L253.524,48.25777702331541L253.894,-32.83110809326172L254.264,-108.67888285319009L254.486,118.76555687586466L254.56,-118.2711171468099L254.70800000000003,111.54666779836019L255.226,36.58888511657713L255.3,100.56999886830648L255.67000000000002,19.87666893005371L256.558,64.08000113169352L256.928,57.849999999999994L257.076,12.756664403279615L257.15000000000003,43.214441426595045L257.372,108.48111092249552L257.446,-115.40333786010746L258.112,-7.61444142659505L258.55600000000004,96.21888624827066L258.85200000000003,108.48111092249552L258.926,118.66666666666667" fill="none"></path></g></g></g></g></g></g><g transform="translate(34, 178)" clip-path="url(#clip_1)"><clipPath id="clip_1"><rect width="296" height="22"></rect></clipPath><g><g><line x1="0" y1="0" x2="0" y2="5" style="visibility: inherit;" fill="rgb(0, 0, 0)" stroke="rgb(204, 204, 204)" stroke-width="1px"></line><line x1="37" y1="0" x2="37" y2="5" style="visibility: inherit;" fill="rgb(0, 0, 0)" stroke="rgb(204, 204, 204)" stroke-width="1px"></line><line x1="74" y1="0" x2="74" y2="5" style="visibility: inherit;" fill="rgb(0, 0, 0)" stroke="rgb(204, 204, 204)" stroke-width="1px"></line><line x1="111" y1="0" x2="111" y2="5" style="visibility: inherit;" fill="rgb(0, 0, 0)" stroke="rgb(204, 204, 204)" stroke-width="1px"></line><line x1="148" y1="0" x2="148" y2="5" style="visibility: inherit;" fill="rgb(0, 0, 0)" stroke="rgb(204, 204, 204)" stroke-width="1px"></line><line x1="185" y1="0" x2="185" y2="5" style="visibility: inherit;" fill="rgb(0, 0, 0)" stroke="rgb(204, 204, 204)" stroke-width="1px"></line><line x1="222" y1="0" x2="222" y2="5" style="visibility: inherit;" fill="rgb(0, 0, 0)" stroke="rgb(204, 204, 204)" stroke-width="1px"></line><line x1="259" y1="0" x2="259" y2="5" style="visibility: inherit;" fill="rgb(0, 0, 0)" stroke="rgb(204, 204, 204)" stroke-width="1px"></line><line x1="296" y1="0" x2="296" y2="5" style="visibility: inherit;" fill="rgb(0, 0, 0)" stroke="rgb(204, 204, 204)" stroke-width="1px"></line></g><g transform="translate(0, 8)"><text x="0" y="0" dx="0em" dy="0.95em" style="text-anchor: middle; visibility: hidden; font-family: &quot;Helvetica Neue&quot;, sans-serif; font-size: 12px; font-weight: 200;" fill="rgb(50, 49, 63)" stroke="none" stroke-width="1px">-500</text><text x="37" y="0" dx="0em" dy="0.95em" style="text-anchor: middle; visibility: inherit; font-family: &quot;Helvetica Neue&quot;, sans-serif; font-size: 12px; font-weight: 200;" fill="rgb(50, 49, 63)" stroke="none" stroke-width="1px">0</text><text x="74" y="0" dx="0em" dy="0.95em" style="text-anchor: middle; visibility: inherit; font-family: &quot;Helvetica Neue&quot;, sans-serif; font-size: 12px; font-weight: 200;" fill="rgb(50, 49, 63)" stroke="none" stroke-width="1px">500</text><text x="111" y="0" dx="0em" dy="0.95em" style="text-anchor: middle; visibility: inherit; font-family: &quot;Helvetica Neue&quot;, sans-serif; font-size: 12px; font-weight: 200;" fill="rgb(50, 49, 63)" stroke="none" stroke-width="1px">1k</text><text x="148" y="0" dx="0em" dy="0.95em" style="text-anchor: middle; visibility: inherit; font-family: &quot;Helvetica Neue&quot;, sans-serif; font-size: 12px; font-weight: 200;" fill="rgb(50, 49, 63)" stroke="none" stroke-width="1px">1.5k</text><text x="185" y="0" dx="0em" dy="0.95em" style="text-anchor: middle; visibility: inherit; font-family: &quot;Helvetica Neue&quot;, sans-serif; font-size: 12px; font-weight: 200;" fill="rgb(50, 49, 63)" stroke="none" stroke-width="1px">2k</text><text x="222" y="0" dx="0em" dy="0.95em" style="text-anchor: middle; visibility: inherit; font-family: &quot;Helvetica Neue&quot;, sans-serif; font-size: 12px; font-weight: 200;" fill="rgb(50, 49, 63)" stroke="none" stroke-width="1px">2.5k</text><text x="259" y="0" dx="0em" dy="0.95em" style="text-anchor: middle; visibility: inherit; font-family: &quot;Helvetica Neue&quot;, sans-serif; font-size: 12px; font-weight: 200;" fill="rgb(50, 49, 63)" stroke="none" stroke-width="1px">3k</text><text x="296" y="0" dx="0em" dy="0.95em" style="text-anchor: middle; visibility: hidden; font-family: &quot;Helvetica Neue&quot;, sans-serif; font-size: 12px; font-weight: 200;" fill="rgb(50, 49, 63)" stroke="none" stroke-width="1px">3.5k</text></g><line x1="0" y1="0" x2="296" y2="0" fill="rgb(0, 0, 0)" stroke="rgb(204, 204, 204)" stroke-width="1px"></line></g></g></g></g></svg>