<svg viewBox="0 0 330 200" xmlns="http://www.w3.org/2000/svg"><g><g><g><g><g><line x1="34" y1="178" x2="29" y2="178" style="visibility: inherit;" fill="rgb(0, 0, 0)" stroke="rgb(204, 204, 204)" stroke-width="1px"></line><line x1="34" y1="155.75" x2="29" y2="155.75" style="visibility: inherit;" fill="rgb(0, 0, 0)" stroke="rgb(204, 204, 204)" stroke-width="1px"></line><line x1="34" y1="133.5" x2="29" y2="133.5" style="visibility: inherit;" fill="rgb(0, 0, 0)" stroke="rgb(204, 204, 204)" stroke-width="1px"></line><line x1="34" y1="111.25" x2="29" y2="111.25" style="visibility: inherit;" fill="rgb(0, 0, 0)" stroke="rgb(204, 204, 204)" stroke-width="1px"></line><line x1="34" y1="89" x2="29" y2="89" style="visibility: inherit;" fill="rgb(0, 0, 0)" stroke="rgb(204, 204, 204)" stroke-width="1px"></line><line x1="34" y1="66.75" x2="29" y2="66.75" style="visibility: inherit;" fill="rgb(0, 0, 0)" stroke="rgb(204, 204, 204)" stroke-width="1px"></line><line x1="34" y1="44.5" x2="29" y2="44.5" style="visibility: inherit;" fill="rgb(0, 0, 0)" stroke="rgb(204, 204, 204)" stroke-width="1px"></line><line x1="34" y1="22.25" x2="29" y2="22.25" style="visibility: inherit;" fill="rgb(0, 0, 0)" stroke="rgb(204, 204, 204)" stroke-width="1px"></line><line x1="34" y1="0" x2="29" y2="0" style="visibility: inherit;" fill="rgb(0, 0, 0)" stroke="rgb(204, 204, 204)" stroke-width="1px"></line></g><g transform="translate(24, 0)"><text x="0" y="178" dx="0em" dy="0.3em" style="text-anchor: end; visibility: hidden; font-family: &quot;Helvetica Neue&quot;, sans-serif; font-size: 12px; font-weight: 200;" fill="rgb(50, 49, 63)" stroke="none" stroke-width="1px">-5</text><text x="0" y="155.75" dx="0em" dy="0.3em" style="text-anchor: end; visibility: inherit; font-family: &quot;Helvetica Neue&quot;, sans-serif; font-size: 12px; font-weight: 200;" fill="rgb(50, 49, 63)" stroke="none" stroke-width="1px">0</text><text x="0" y="133.5" dx="0em" dy="0.3em" style="text-anchor: end; visibility: hidden; font-family: &quot;Helvetica Neue&quot;, sans-serif; font-size: 12px; font-weight: 200;" fill="rgb(50, 49, 63)" stroke="none" stroke-width="1px">5</text><text x="0" y="111.25" dx="0em" dy="0.3em" style="text-anchor: end; visibility: inherit; font-family: &quot;Helvetica Neue&quot;, sans-serif; font-size: 12px; font-weight: 200;" fill="rgb(50, 49, 63)" stroke="none" stroke-width="1px">10</text><text x="0" y="89" dx="0em" dy="0.3em" style="text-anchor: end; visibility: hidden; font-family: &quot;Helvetica Neue&quot;, sans-serif; font-size: 12px; font-weight: 200;" fill="rgb(50, 49, 63)" stroke="none" stroke-width="1px">15</text><text x="0" y="66.75" dx="0em" dy="0.3em" style="text-anchor: end; visibility: inherit; font-family: &quot;Helvetica Neue&quot;, sans-serif; font-size: 12px; font-weight: 200;" fill="rgb(50, 49, 63)" stroke="none" stroke-width="1px">20</text><text x="0" y="44.5" dx="0em" dy="0.3em" style="text-anchor: end; visibility: hidden; font-family: &quot;Helvetica Neue&quot;, sans-serif; font-size: 12px; font-weight: 200;" fill="rgb(50, 49, 63)" stroke="none" stroke-width="1px">25</text><text x="0" y="22.25" dx="0em" dy="0.3em" style="text-anchor: end; visibility: inherit; font-family: &quot;Helvetica Neue&quot;, sans-serif; font-size: 12px; font-weight: 200;" fill="rgb(50, 49, 63)" stroke="none" stroke-width="1px">30</text><text x="0" y="0" dx="0em" dy="0.3em" style="text-anchor: end; visibility: hidden; font-family: &quot;Helvetica Neue&quot;, sans-serif; font-size: 12px; font-weight: 200;" fill="rgb(50, 49, 63)" stroke="none" stroke-width="1px">35</text></g><line x1="34" y1="0" x2="34" y2="178" fill="rgb(0, 0, 0)" stroke="rgb(204, 204, 204)" stroke-width="1px"></line></g></g><g transform="translate(34, 0)" clip-path="url(#clip_0)"><clipPath id="clip_0"><rect width="296" height="178"></rect></clipPath><g><g><g><line x1="0" y1="0" x2="0" y2="178" fill="rgb(0, 0, 0)" stroke="rgb(60, 60, 60)" stroke-width="1px" opacity="0.25"></line><line x1="37" y1="0" x2="37" y2="178" fill="rgb(0, 0, 0)" stroke="rgb(60, 60, 60)" stroke-width="1px" opacity="0.25"></line><line x1="74" y1="0" x2="74" y2="178" fill="rgb(0, 0, 0)" stroke="rgb(60, 60, 60)" stroke-width="1px" opacity="0.25"></line><line x1="111" y1="0" x2="111" y2="178" fill="rgb(0, 0, 0)" stroke="rgb(60, 60, 60)" stroke-width="1px" opacity="0.25"></line><line x1="148" y1="0" x2="148" y2="178" fill="rgb(0, 0, 0)" stroke="rgb(60, 60, 60)" stroke-width="1px" opacity="0.25"></line><line x1="185" y1="0" x2="185" y2="178" fill="rgb(0, 0, 0)" stroke="rgb(60, 60, 60)" stroke-width="1px" opacity="0.25"></line><line x1="222" y1="0" x2="222" y2="178" fill="rgb(0, 0, 0)" stroke="rgb(60, 60, 60)" stroke-width="1px" opacity="0.25"></line><line x1="259" y1="0" x2="259" y2="178" fill="rgb(0, 0, 0)" stroke="rgb(60, 60, 60)" stroke-width="1px" opacity="0.25"></line><line x1="296" y1="0" x2="296" y2="178" fill="rgb(0, 0, 0)" stroke="rgb(60, 60, 60)" stroke-width="1px" opacity="0.25"></line></g><g><line x1="0" y1="178" x2="296" y2="178" fill="rgb(0, 0, 0)" stroke="rgb(60, 60, 60)" stroke-width="1px" opacity="0.25"></line><line x1="0" y1="155.75" x2="296" y2="155.75" fill="rgb(0, 0, 0)" stroke="rgb(60, 60, 60)" stroke-width="1px" opacity="0.25"></line><line x1="0" y1="133.5" x2="296" y2="133.5" fill="rgb(0, 0, 0)" stroke="rgb(60, 60, 60)" stroke-width="1px" opacity="0.25"></line><line x1="0" y1="111.25" x2="296" y2="111.25" fill="rgb(0, 0, 0)" stroke="rgb(60, 60, 60)" stroke-width="1px" opacity="0.25"></line><line x1="0" y1="89" x2="296" y2="89" fill="rgb(0, 0, 0)" stroke="rgb(60, 60, 60)" stroke-width="1px" opacity="0.25"></line><line x1="0" y1="66.75" x2="296" y2="66.75" fill="rgb(0, 0, 0)" stroke="rgb(60, 60, 60)" stroke-width="1px" opacity="0.25"></line><line x1="0" y1="44.5" x2="296" y2="44.5" fill="rgb(0, 0, 0)" stroke="rgb(60, 60, 60)" stroke-width="1px" opacity="0.25"></line><line x1="0" y1="22.25" x2="296" y2="22.25" fill="rgb(0, 0, 0)" stroke="rgb(60, 60, 60)" stroke-width="1px" opacity="0.25"></line><line x1="0" y1="0" x2="296" y2="0" fill="rgb(0, 0, 0)" stroke="rgb(60, 60, 60)" stroke-width="1px" opacity="0.25"></line></g></g></g><g><g><line x1="0" y1="155.75" x2="296" y2="155.75" fill="rgb(0, 0, 0)" stroke="rgb(153, 153, 153)" stroke-width="1.5px"></line></g></g><g><g><line x1="37" y1="0" x2="37" y2="178" fill="rgb(0, 0, 0)" stroke="rgb(153, 153, 153)" stroke-width="1.5px"></line></g></g><g><g><g><g><g><path style="fill: none;" stroke="rgb(204, 51, 17)" stroke-width="2px" d="M37.37,124.6L37.444,124.59999999999955L37.814,129.05445296815049L38.036,129.0533380548573L38.11,123.70197842198918L38.332,114.92974732609984L38.480000000000004,93.3608988992672L38.776,99.51227334156789L39.664,104.79309482016517L39.96,100.97163454427569L40.108000000000004,97.43841821463585L40.256,99.34148207016004L40.330000000000005,94.06443698413824L40.478,96.57968969652703L40.922000000000004,98.75957028912914L40.996,100.38674418382982L41.07,102.61407735015543L41.144000000000005,104.84325370719942L41.218,104.71084487429691L41.809999999999995,106.38864651664056L42.032,104.91021029658746L42.254,105.61022944198645L42.327999999999996,107.03183516735224L42.401999999999994,102.70823333137876L42.476,97.64966400567174L42.846,98.69923061690275L43.437999999999995,99.00317769363069L43.512,100.0908354049843L43.955999999999996,101.72590670265787L44.548,101.29552716282348L44.769999999999996,102.35004708331488L44.844,103.33865439592726L45.362,98.92362773817914L45.583999999999996,100.0905120175712L45.732,100.67344191264979L46.324,100.21768238578495L46.546,101.13349847570592L46.62,100.68896457273617L47.286,98.17410044560832L47.434,98.62085022130462L47.508,98.16002433424876L47.582,97.82928551724781L48.1,97.4082545380656L48.47,98.03963532693732L48.618,98.94619371325815L48.692,99.71439718865912L48.988,100.06240175015014L49.358000000000004,98.59271269310773L49.432,99.5083744827427L49.654,98.47222271739366L50.098000000000006,97.65562303526912L50.172000000000004,97.13377297249485L50.32,97.83792886845559L50.542,97.92372030491563L50.690000000000005,98.67130358503532L50.764,99.3105105250253L50.912,99.36534242389821L51.059999999999995,98.86575705275712L51.13399999999999,99.1594404439782L51.651999999999994,98.75594006207635L52.244,98.44083507617988L52.318,99.09771979848159L52.391999999999996,99.22380866960262L52.687999999999995,99.41770120191221L53.428,99.67630222025298L53.501999999999995,100.20562416556055L53.65,99.20917964996218L53.946,97.02419693589498L54.168,94.56901562086688L54.242,95.01300588687992L54.316,93.69229090961841L54.538,94.20101571053917L55.426,93.93763088429981L55.87,94.67908793468904L56.092,94.35430363433505L56.24,94.76738878696783L56.314,95.28977309902973L56.462,95.62092633909964L56.758,95.88513650097723L57.054,95.91133056917704L57.202,96.22270676496991L57.572,96.01801514739647L58.608000000000004,95.03645047016639L58.978,95.29279856454721L59.05200000000001,95.32477825898282L59.348000000000006,95.14011294339387L59.422000000000004,95.333363241884L59.718,95.62781982522543L59.792,95.6544901206573L59.940000000000005,95.57721114513241L60.162,95.75730875495324L60.532,96.03469753559673L60.605999999999995,94.4028855306963L60.68,94.98718907437248L61.05,93.69418349376168L61.123999999999995,93.93447513208733L61.19799999999999,94.02546554546964L61.419999999999995,92.54225285848914L62.086,91.46653775087542L62.233999999999995,91.25367150994597L62.678,91.55432215253322L63.122,91.39038800892907L63.196,91.77498562118086L63.64,91.34162907557538L63.862,91.4520188130522L64.158,91.64877274567033L64.454,91.05285740567099L64.602,91.42384750815293L64.898,91.91723600687952L64.972,92.27354464244392L65.046,92.36940958489407L65.194,92.67345500463738L65.56400000000001,93.18025227823836L65.934,93.34788615583255L66.008,93.02127402299467L66.08200000000001,93.18763024986067L67.19200000000001,91.73979693420317L67.71000000000001,91.8750401819007L68.154,91.25474525087769L68.22800000000001,90.99880937663337L68.376,90.39585373233678L68.524,90.30625106403187L68.82000000000001,90.02595017756738L69.48599999999999,89.8645963651334L69.634,90.23577736968203L69.708,89.69934216506515L69.92999999999999,90.0291268012085L70.374,90.31673095935666L70.966,90.41611148732301L71.03999999999999,89.63827610233035L71.262,89.85043650073608L71.336,89.48387022083185L72.002,88.22991802811615L72.076,88.37792387502303L72.89,87.53753035433924L73.112,87.65396524729933L73.18599999999999,87.9076630460362L73.334,88.15767835240794L73.482,88.0270663748565L74.51799999999999,87.52380907842372L74.888,87.97471208964555L75.036,87.8480535007597L75.258,88.1571269552455L75.40599999999999,88.39556899010434L75.776,88.59776343534436L75.85,87.65116569603549L76.294,87.95385620713387L76.442,88.15545171958026L76.516,87.74384548511009L76.664,87.33773742526542L76.738,87.76216635989007L76.96000000000001,87.73939747927284L77.108,87.93639196369278L77.478,87.88151297512341L77.552,88.10614373942339L78.21799999999999,87.68121003320677L78.366,87.84334742297337L78.66199999999999,87.85125790482566L78.736,87.91958346290346L78.81,88.10738487895063L79.106,87.06651226815045L79.402,87.16865568974565L79.476,86.97381899028683L79.698,86.95780196039068L79.846,87.20516111082998L79.92,86.43171986991361L79.994,86.39057036061565L80.06800000000001,86.60877121611527L80.142,86.88159550334223L80.21600000000001,85.89933988352611L80.364,86.20204575853614L80.438,86.47307532814483L80.808,86.76896275862822L80.882,87.06144074669781L81.178,87.29515623987665L81.4,87.41596228330978L81.548,87.72733492529395L81.992,86.78038870972628L82.14,86.63108980629443L82.51,86.13243330326279L82.806,85.20945428610466L82.88000000000001,84.69760759911972L83.028,84.85631117655855L83.916,83.9546482394145L84.434,83.06276037327075L84.508,83.3597930587662L84.65599999999999,83.52324365509372L84.73,83.71090345938794L84.80399999999999,82.83761214931074L84.878,83.1302562183941L85.026,83.21516598074477L85.24799999999999,82.73903152696175L85.544,81.8877157942306L85.618,81.04520362387852L85.914,80.71348764517015L86.136,80.98493681790559L86.43199999999999,81.02974116451081L86.654,81.37123454878399L86.728,81.63533644813992L86.802,81.70048443432545L86.87599999999999,81.93597632710191L86.95,82.21776596593777L87.098,82.0367707418487L87.172,82.26731473291795L87.24600000000001,82.32761947964072L87.46799999999999,82.02894898028256L87.542,81.40013422407209L87.616,81.55901364387776L87.764,81.88145316362238L87.91199999999999,82.03643155209224L87.986,82.11978739441308L88.50399999999999,81.34085831108978L88.726,81.58943407102925L89.022,81.62788296975548L89.244,81.80392503420855L89.392,82.11571059030692L89.53999999999999,81.35291247962328L89.836,81.52818646973924L90.132,81.63400648866347L90.35400000000001,80.88295948191654L90.428,80.13873657461592L90.50200000000001,79.75872265836118L90.576,79.02608533361568L91.02,79.23091177428356L91.464,78.74954477747013L91.612,78.86616389514977L91.686,78.14944212459892L91.98200000000001,78.44263018308342L92.204,77.73355225920193L92.278,77.87495503870194L92.5,78.07982337201398L92.574,78.30440022040243L92.648,78.1418312081139L92.796,78.23648981131183L92.944,78.41529438789512L93.388,78.46562283600922L93.61,78.4733649470167L93.684,78.71205652136915L93.90599999999999,78.92781776267094L93.98,79.03754070368771L94.05399999999999,79.0009599504128L94.202,78.59219218118392L94.276,78.66103447544147L94.72,78.46223741968123L95.016,77.79426142500165L95.08999999999999,77.9680022780858L95.238,78.24194792341989L95.386,78.25040372782273L95.53399999999999,78.35969045238971L95.608,78.62896843758186L95.68199999999999,78.75582193209954L95.756,78.82175849712117L95.83,79.06626121829906L96.052,79.20967818714767L96.2,79.41124957625094L96.348,79.21735775411317L96.57,79.37826475937234L96.71799999999999,79.59659774543174L96.792,79.77424772481395L96.866,79.96995173916918L97.31,80.04796964269622L97.384,80.2025819617476L97.53200000000001,80.43294844736977L97.75399999999999,80.4123436490002L98.05,80.411002518354L98.272,80.3906269982047L98.494,79.7629721563793L98.56800000000001,79.14002902229618L98.71600000000001,78.521745047552L98.864,78.64120188296285L99.012,78.75977178349098L99.382,78.84010872099904L99.60400000000001,78.73366972324676L99.75200000000001,78.943520324054L100.862,79.04083146209663L101.158,79.063663433348L101.306,78.46125348345848L101.38000000000001,78.39469381562327L101.676,78.52958680987466L101.824,78.7363646932019L101.898,78.37877881082927L102.11999999999999,78.53059431953253L102.26799999999999,78.48281970385673L102.416,77.89564158232969L102.638,77.94040044167087L102.786,77.35895226696292L102.86,77.08467326000527L103.008,76.70565978515766L103.30399999999999,76.50651029008516L103.6,76.11437817631538L104.118,75.95398436456064L104.192,75.98791503771108L104.266,76.09166714823029L104.33999999999999,75.79307305499722L104.488,76.00145118317742L104.71000000000001,76.1563283987313L104.78399999999999,76.32746578752293L104.858,76.3938812826462L105.08,75.84024353325232L105.154,76.02829242972724L105.228,75.47921626681186L105.302,75.20683744838666L105.894,74.95328649287518L105.96799999999999,74.92200624838419L106.19,74.38330709906447L106.708,74.25312163298447L106.93,74.15744405171164L107.522,73.84425365317271L107.596,73.31557012176631L107.744,72.79032448673875L107.81800000000001,72.9840778549434L107.892,72.84465407735324L108.114,73.03715002811408L108.188,72.68370544746658L108.336,72.84283284569801L108.484,72.32783619840832L108.85400000000001,72.37280621111003L108.928,72.22153705701213L109.224,71.7129317817218L109.298,71.20753214187076L109.372,71.1751049445721L109.44600000000001,71.38523928049926L109.66799999999999,71.52960195162112L109.742,71.67306577749251L109.816,71.55914578238269L110.03800000000001,71.06218956217279L110.112,71.19026636232852L110.704,71.39708909850388L111,71.06320214147843L111.148,70.57310373088882L111.296,70.08599341002204L111.36999999999999,70.02695550104833L111.592,70.20385044678385L111.814,69.72173039782452L111.888,69.88318126712632L111.96199999999999,69.40460120750711L112.036,69.61299742437217L112.258,69.26181545088508L112.85,69.11384557838825L112.99799999999999,68.64266994861197L113.14599999999999,68.83625213177758L113.294,68.36834761630745L113.368,68.04107144647543L113.58999999999999,67.96022793343091L113.738,67.8036334398556L113.886,67.73920080086285L114.256,67.82685602183028L114.774,67.3691490650075L114.848,67.50293540038918L115.07,67.0485112526479L115.21799999999999,66.59670274517238L115.66199999999999,66.83707601489309L115.736,67.07607338970378L115.884,67.28386572668165L116.03200000000001,66.83551858384874L116.328,66.9391870636882L116.62400000000001,66.4940794176343L116.772,66.11061068448933L117.142,65.67031197526678L117.21600000000001,65.35019120471547L117.28999999999999,64.91442821179048L117.808,64.48109879151134L117.882,64.05018282983268L118.326,63.81118632030564L118.622,63.38441830764657L118.69600000000001,62.9600081482797L118.77,62.537936566323L119.436,62.66719221474183L119.584,62.83898497320956L119.806,62.54958336429807L120.25,62.132601104561545L120.324,61.71788629583621L120.61999999999999,61.719755260004035L120.842,61.90694060439904L120.916,61.92242156792936L120.99,61.512018334550504L121.21199999999999,61.67031202359071L122.026,61.26249784011263L122.24799999999999,61.36449123489348L122.47,61.353378872653266L122.544,61.56696500116634L122.618,61.49922391657273L122.83999999999999,61.76735466988656L122.914,61.36447822339461L122.988,60.96372025362095L124.098,60.690079610522375L124.32,60.293119957137336L124.46799999999999,60.52066884862889L124.542,60.5537935689827L124.69,60.54542464018593L124.764,60.74327529554415L124.986,60.91267083799556L125.208,60.51998824343448L125.28200000000001,60.48447339144724L125.43,60.55819156866947L125.578,60.16902059353207L125.726,59.78183569141156L125.87400000000001,59.77595440654336L126.096,59.77010298932224L126.244,59.980160407341785L126.392,60.20262133533231L126.53999999999999,60.32989566895674L126.688,60.563816126899084L126.836,60.80994678420403L127.576,60.427065925691224L127.872,60.04609685163193L128.168,59.66702546817639L128.24200000000002,59.807655069024136L128.316,60.05359613165038L128.464,60.152846668902185L128.686,59.934833974688644L128.908,59.941835396624626L129.056,59.567532864095696L129.27800000000002,59.444374194276335L129.72199999999998,59.138472640853976L129.87,58.76870945447065L130.018,58.4007451778039L130.092,58.03456689790728L130.314,58.13798965120745L130.388,58.31873460636464L130.462,58.17497023953351L130.684,57.812242670144855L131.276,57.45125546527065L131.646,57.413793226300356L131.79399999999998,57.59491846306578L132.238,57.826474055502274L132.534,57.46816190246517L132.608,57.41815686596614L132.682,57.36838849619022L132.756,57.013390100066104L133.20000000000002,56.66006429837023L133.422,56.63809397994355L133.94,56.83139822369951L134.088,56.96062857307359L134.31,57.152308751676L134.38400000000001,56.80183028715116L134.606,56.4529811389407L134.68,56.645044324948785L135.04999999999998,56.83621858214329L135.124,56.96402846185386L135.198,56.61724698507835L135.42000000000002,56.48373201721806L135.642,56.49997698315204L135.716,56.615401210707574L135.79,56.73029819435034L135.864,56.91884658164321L135.938,56.85972595144705L136.382,56.874786012590064L136.826,56.90207486094849L137.27,57.101095168168044L137.566,57.06639602105609L137.714,56.98292363618319L138.084,56.88761504209195L138.38,56.63426701052923L138.898,56.29687169972466L139.046,55.96098160340465L139.268,55.881243678201585L139.416,55.54764168701141L139.49,55.36053670390322L139.712,55.512055481592014L139.786,55.602687687133596L139.934,55.27211488668759L140.00799999999998,55.07502387221791L140.23,54.74699264569335L141.488,54.42039749876119L141.562,54.19076400306325L141.636,54.36747222510718L141.71,54.043536126425295L142.006,53.72100651028178L142.228,53.779461272386754L142.524,53.50607705828176L142.598,53.1865816642253L142.672,52.95108434663612L142.968,53.01119157537222L143.042,53.17691979743368L143.11599999999999,53.27146862176561L143.264,52.95521116333009L143.412,52.65200856707578L143.56,52.618910358714174L143.708,52.79598758047919L144.29999999999998,52.8325179549127L144.67000000000002,52.54322892399563L144.744,52.71964691886883L145.41,52.46636259952609L145.484,52.49194090971184L146.298,52.182276066876355L146.668,52.393117076782204L146.89000000000001,52.084693453081L146.964,51.91557252968323L147.186,52.0686842363136L147.334,51.762558018978055L147.408,51.45770109073696L148,51.15410572529032L148.07399999999998,50.85176425889462L148.148,50.55066908973102L148.222,50.25081267728089L148.444,50.23613468337554L148.592,50.42564191611693L148.666,50.60305123437465L148.73999999999998,50.76843097693609L149.332,50.752530432136325L149.702,50.939565028832234L149.776,50.64194706119763L149.99800000000002,50.491604909403534L150.516,50.49893736340296L150.66400000000002,50.43902818109676L151.404,50.33462019949691L151.774,50.331145228154995L151.848,50.34998679883762L151.99599999999998,50.05698604529742L152.07000000000002,50.220987810303214L152.514,49.92918604733691L152.588,49.971085478534576L153.032,49.90213705630575L153.106,49.61242845554281L153.772,49.32386744131722L154.06799999999998,49.03644735198981L154.216,49.04723637849983L154.512,48.97009016580708L155.178,48.68480821538776L155.32600000000002,48.70736988282371L155.548,48.66421253344555L155.696,48.69768153489119L155.77,48.86189967964134L156.14,48.57895327953693L156.362,48.438483677821296L156.732,48.29855939077356L156.88,48.018207809131695L157.17600000000002,47.73894064537541L157.32399999999998,47.46075175871803L157.398,47.57233835367529L157.472,47.73740532303441L157.62,47.643439617045686L157.768,47.64659631210671L158.138,47.73563013642047L158.36,47.45980964766554L158.50799999999998,47.645395415300555L158.73,47.5309298693914L158.952,47.705149016570886L159.24800000000002,47.4309452943688L159.47,47.455871753687745L159.766,47.28933988679535L159.84,47.293301808581276L159.91400000000002,47.38206401705179L160.43200000000002,47.23757268291442L160.57999999999998,47.421376826819L160.728,47.1504915997875L160.95,46.88061951198043L161.024,46.61175502445187L161.468,46.56470555695293L161.54199999999997,46.423325840987474L161.838,46.62852019495031L162.134,46.36170801828189L162.356,46.31550091151223L162.42999999999998,46.0501432100485L162.50400000000002,45.78576438844959L162.578,45.949408137433096L162.726,45.68597306082535L162.948,45.42350481596699L163.466,45.16199822070527L163.54,44.90144812983223L163.91,45.014327460323926L164.058,44.81680771228059L164.132,44.78511522138595L164.206,44.56803553909734L164.872,44.310574636347724L165.168,44.05404598100216L165.24200000000002,44.21931793742095L165.316,44.41474886668823L165.39,44.158983594702505L165.538,43.904138278381254L165.908,43.65020809005085L165.982,43.723546563114326L166.13,43.77625147408261L166.204,43.604974634098596L166.278,43.62733670827507L166.5,43.64961914133207L166.648,43.80355622058917L166.722,43.55212887767311L166.796,43.554281838013566L167.462,43.5766166520865L167.684,43.770265667097135L168.35,43.52018678514722L168.794,43.68330512646952L168.868,43.43405218354954L169.31199999999998,43.62704862817449L169.38600000000002,43.59895795470166L169.46,43.761082471327796L169.60799999999998,43.85268499153463L170.052,43.99387428282759L170.49599999999998,43.805599944365554L170.57000000000002,43.85693611830402L171.162,43.95781511449843L171.236,43.81997812719902L171.45800000000003,43.74213627950144L171.67999999999998,43.496135174191295L171.976,43.31035483374322L172.124,43.530429751526185L172.42000000000002,43.73987685480148L172.86399999999998,43.91902733473887L173.16,44.03848023335863L173.234,44.22637182417469L173.456,44.423444987445095L173.604,44.178323567521005L173.82600000000002,44.35542838504617L174.122,44.42426261645309L174.27,44.180021337838525L174.418,44.29789889647657L174.49200000000002,44.05451755527832L174.566,44.24057863896229L175.084,44.40655234206281L175.232,44.52337557480328L175.306,44.62039229789235L175.75,44.37774704223972L175.82399999999998,44.13591549588111L175.898,44.29146730420186L176.046,44.05039032193767L176.194,43.81011810239272L177.082,43.91763725341477L177.74800000000002,43.6782121742209L178.044,43.88192846235464L178.41400000000002,43.9408928983496L178.488,43.70224962996579L178.85799999999998,43.9243735495385L178.93200000000002,44.1266201142102L179.006,43.88840170348362L179.302,44.02341220856195L179.376,43.995817037723555L179.82000000000002,43.91114430077974L180.116,43.67447447115137L180.19,43.43857941603457L180.264,43.58327762270221L180.412,43.765442739742895L180.486,43.53015459464709L180.856,43.31455895043413L181.078,43.20364411382923L181.226,42.970341452945064L181.448,43.07733055506904L181.67000000000002,43.183973517719124L181.89200000000002,43.39378738771873L182.04,43.49012425639978L182.484,43.661267370434445L182.558,43.80372253228026L182.706,43.65528793311947L182.854,43.42310345077749L183.52,43.565587579538175L183.594,43.399467083821605L183.668,43.55101553881883L183.74200000000002,43.38528950348896L184.778,43.56445791002662L185.07399999999998,43.33398592751277L185.37,43.10424569271515L185.444,42.87523384065159L185.666,42.99908584432339L185.73999999999998,42.77078823358406L185.962,42.98705788852223L186.11,42.87935614089878L186.25799999999998,42.94730493616524L186.628,43.01504013057189L186.85,43.20225582340848L186.99800000000002,43.38888465121218L187.072,43.16149042345012L187.22,42.93480700710427L187.442,42.90135958698235L187.66400000000002,43.06034091915646L187.81199999999998,42.87117945535101L188.034,42.81055171057986L188.256,42.887052565774866L188.32999999999998,43.063633756164876L188.552,42.83881908351438L188.774,42.79671296047238L189.366,42.86383095992733L189.44,43.03064082739513L189.588,42.806829827536916L189.95800000000003,42.98247228534541L190.328,42.759223038228896L190.402,42.81702562254216L190.476,42.59457299286379L190.624,42.68869240957042L190.698,42.63826505068977L190.846,42.416859008407954L190.994,42.196127138341694L191.216,42.33560929713781L191.29,42.124470805617335L191.58599999999998,41.90500233154623L191.956,41.802693851421566L192.104,41.727551108606605L192.548,41.509546422016484L192.622,41.58702248890842L192.696,41.68211526279728L192.77,41.83933451015224L192.844,41.719960190002865L193.066,41.50306354716281L193.21400000000003,41.286816771567686L193.43599999999998,41.435316715569L193.51000000000002,41.41481161507977L193.732,41.199385218241815L193.88,41.40074170062749L194.028,41.48650988198506L194.102,41.27157945510734L194.17600000000002,41.401574239334565L194.472,41.46063003196144L194.768,41.24638394050791L194.842,41.38484833156022L194.916,41.35583065898962L195.212,41.335683315458425L195.28599999999997,41.40335733115219L195.434,41.49713531796482L195.50799999999998,41.59939699451246L195.656,41.61385159288551L195.73,41.40096516607514L195.804,41.23237086682414L195.952,41.37838486494414L196.026,41.166573321845846L196.17399999999998,40.95537920591818L196.396,40.95360906126936L196.544,41.160453945949996L196.618,40.9672433801162L197.06199999999998,41.000157343545794L197.13600000000002,41.18032035107396L197.21,41.35130309454087L197.506,41.41798074187142L197.654,41.27703956520375L197.802,41.0674274736981L198.098,40.910177775105154L198.616,40.77061693713591L198.838,40.958650663269964L198.986,40.870870906474465L199.134,40.78334251060883L199.20800000000003,40.816272752657824L199.50400000000002,40.67754224731556L199.652,40.804889397490285L199.726,40.811999334372416L199.8,40.861861786620324L200.022,40.73210252986618L200.096,40.773487717022135L200.31799999999998,40.951251047130995L200.39200000000002,41.137034182929455L200.61399999999998,40.93058551920282L200.83599999999998,41.06502334902979L201.132,40.87608823126652L201.57600000000002,40.67070124342089L201.65,40.81375258995291L201.872,40.888588157081045L201.946,40.68373498506136L202.094,40.65714575106955L202.24200000000002,40.45310143434148L202.316,40.24962781705335L202.46400000000003,40.409582857196824L202.538,40.51850528042425L202.68599999999998,40.69451230609275L202.76000000000002,40.49130931332502L202.834,40.440024383133164L202.908,40.54010049471384L203.056,40.539176067904975L203.204,40.33698656696589L203.278,40.13535644545843L203.57399999999998,40.11845317381335L203.648,40.193600324860995L203.796,40.26018369116392L204.018,40.27648793316527L204.166,40.07585560701307L204.388,40.175823580984456L205.276,39.97572979148873L205.572,39.776184314541155L205.794,39.66031450928975L206.16400000000002,39.46170405712061L206.31199999999998,39.51259244049922L206.534,39.5550506547076L206.978,39.6968039524464L207.052,39.82989445605173L207.2,39.83857348995457L207.422,39.929857879740496L207.644,39.731941147446975L207.718,39.53456040607037L207.79199999999997,39.72507476919566L208.45800000000003,39.52804298170409L208.532,39.331542923584124L208.606,39.13557254322157L208.67999999999998,39.27689455161948L208.828,39.08135634153865L208.976,39.025741864694936L209.198,39.15871575576887L209.56799999999998,38.9884468028165L209.716,38.79409588274436L209.79,38.845436775364874L209.86399999999998,38.651673311246554L209.93800000000002,38.72766590608768L210.53,38.60780877007204L211.196,38.789642757789295L211.566,38.90588585624619L212.158,38.712815889061176L212.232,38.76400720065686L212.454,38.68517059900546L212.75,38.49298050202802L212.972,38.35803284032514L213.268,38.53927367647847L213.48999999999998,38.71194486195702L213.712,38.55267570251914L213.78599999999997,38.38574725814894L213.86,38.22732943269483L214.00799999999998,38.279024471649166L214.6,38.33864264849498L214.74800000000002,38.148486781241246L214.896,38.192153130437646L215.044,38.002569108870915L215.41400000000002,38.03839573545844L215.784,38.20254875585442L216.376,38.165779261939434L216.45,37.97685149693763L216.524,38.05264433620866L216.82000000000002,37.86422190971459L217.04199999999997,37.836171815598135L217.264,37.68038928542384L217.856,37.525009916336245L218.00400000000002,37.65713744002795L218.3,37.470170481253774L218.374,37.586262160422564L218.448,37.41562950623589L218.522,37.52368574190203L218.67000000000002,37.36137687105989L218.81799999999998,37.17567230652014L219.04,37.06182581664967L219.262,37.16224867338212L219.33599999999998,37.08027948074792L219.484,36.974781656753265L219.632,36.79048739013177L220.15,36.60666335814L220.446,36.770658537089076L220.594,36.942124405153606L220.74200000000002,36.95551142072682L220.89,37.00036867986111L220.96400000000003,36.81688196934712L221.112,36.75968379256679L221.334,36.85978910968052L221.482,36.676972105157716L221.704,36.68291918611871L221.852,36.50069274060721L222.07399999999998,36.318925805816065L222.148,36.1376167364794L222.222,36.10538341049565L222.962,36.253002716082506L223.03599999999997,36.072220898007686L223.184,36.04017529973876L223.25799999999998,36.1173886806948L223.332,36.11648265595156L223.406,35.936483309662975L223.628,36.099294495672865L223.702,35.919594581560716L223.85,35.786958412139L224.072,35.88755792653163L224.22,36.08100006482576L224.368,36.08791413007174L224.516,36.01734875638289L225.18200000000002,35.92373687524886L225.256,36.03146101772069L225.478,36.04616976522962L225.626,36.16896945130779L225.774,36.32233670541885L225.922,36.4444774773647L226.07000000000002,36.26576808394768L226.144,36.403229538851235L226.366,36.432621089947645L226.81,36.577283310868665L226.884,36.54486008508712L227.17999999999998,36.451089540541375L227.402,36.27314802256433L227.624,36.248986510168805L227.772,36.07165019558988L227.846,36.07083872755584L228.14200000000002,35.894064174098844L228.43800000000002,35.93942990547788L228.66,35.763134749603154L228.734,35.58726831125941L228.808,35.64832005794307L228.882,35.472901506048856L229.104,35.465501221051824L229.4,35.61036772220618L229.548,35.65599222169726L229.844,35.481058758788606L229.918,35.382510359998605L230.066,35.42083584427172L230.14,35.246673756581146L230.51000000000002,35.07293097047605L230.732,35.157151768961455L230.806,35.29415711399548L230.954,35.12069911754543L231.102,34.94765707115684L231.25,35.0394086545823L231.32399999999998,34.86674583079005L231.546,34.694495823984454L231.62,34.85432624130493L231.768,34.6823362659693L231.98999999999998,34.76669095059239L232.06400000000002,34.798188729437015L232.212,34.91229964928658L232.656,34.90594861639454L232.878,34.73446404427921L233.1,34.600894279249246L233.17399999999998,34.565095061970226L233.47,34.40951927030355L233.91400000000002,34.23933902451495L234.876,34.38376763527168L235.172,34.21386244665922L235.32000000000002,34.34319556026517L235.69,34.17358908393703L235.912,34.31773607660722L236.06,34.43917678317652L236.356,34.26975339935848L236.726,34.4060020728067L237.022,34.54937197709265L237.31799999999998,34.714713161033444L237.54,34.68646853460251L238.206,34.76967621714144L238.65,34.90463506187672L239.39,35.03186312458064L239.46400000000003,35.12915097066505L239.538,34.95959724669018L239.76000000000002,35.064277109141926L239.834,35.17610976471212L240.204,35.29507393741298L240.352,35.12569345222437L240.648,34.956705623066966L240.722,35.07579830730549L240.796,34.907115376147175L240.87,34.73882238073281L240.944,34.57091805447067L241.018,34.403401136224346L241.092,34.41273073248573L241.684,34.568993293404816L241.906,34.59272337966431L242.35,34.71913330403666L242.646,34.81591927643322L243.38600000000002,34.94912649147534L243.46,34.994141262522476L243.534,34.95122257172159L244.052,35.05469170933162L244.422,35.055587457983336L244.644,35.231803116849875L244.79199999999997,35.06449801272473L244.866,34.97053154453985L244.94,35.008018200785614L245.014,34.9288369997943L245.31,34.7624545818889L245.902,34.59645006165647L245.976,34.43082223590457L246.198,34.498142949359504L246.346,34.637944260522374L246.42000000000002,34.76291176606898L246.56799999999998,34.89485087082835L246.93800000000002,35.05549023225217L247.456,35.034641701829344L247.604,34.869030846963966L247.82600000000002,34.70379306858905L247.974,34.53892718988493L248.344,34.37443203895171L248.566,34.21030644878388L248.788,34.04654925724452L249.454,34.135628116060474L249.528,34.23171630413256L249.75,34.26274933015185L249.972,34.27931295933482L250.12,34.39657724724523L250.194,34.36975750958993L250.638,34.47954459828739L250.86,34.63936288700509L250.934,34.77011388058642L251.082,34.90057400016278L251.304,34.91603894570329L251.452,35.03177531254869L251.6,35.082811927058685L251.822,35.19813914292132L251.896,35.13442037693059L251.97,35.15661000766045L252.488,35.18589353223899L252.85799999999998,35.29363733737944L253.006,35.279859857868104L253.07999999999998,35.316022912882715L253.154,35.40911213804819L253.45,35.53760369254064L253.524,35.57328936608397L253.894,35.51642875994165L253.968,35.35306311075553L254.264,35.19716023334837L254.486,35.34690674001618L254.56,35.18410340355413L254.70800000000003,35.31950918509298L255.226,35.341218509887966L255.3,35.462047045033586L255.67000000000002,35.46226650311388L256.558,35.533235095277234L256.928,35.60404908429055L257.076,35.60404265431873L257.15000000000003,35.646411092738475L257.372,35.78044578572002L257.446,35.61791320477792L258.112,35.56853432518031L258.55600000000004,35.68131941985294L258.85200000000003,35.81498582306091L258.926,35.96243851884944" fill="none"></path></g></g></g></g><g opacity="0.2"><g><g><g><path style="fill: none;" stroke="rgb(204, 51, 17)" stroke-width="2px" d="M37.37,124.6L37.444,124.6L37.814,137.95L38.036,129.05L38.11,102.35000000000001L38.332,71.2L38.480000000000004,-35.599999999999994L38.776,142.4L39.664,146.85L39.96,66.75L40.108000000000004,62.3L40.256,120.15L40.330000000000005,31.150000000000006L40.478,129.05L40.922000000000004,129.05L40.996,124.6L41.07,137.95L41.144000000000005,142.4L41.218,102.35000000000001L41.809999999999995,137.95L42.032,75.65L42.254,120.15L42.327999999999996,137.95L42.401999999999994,4.450000000000017L42.476,-22.25L42.846,124.6L43.437999999999995,106.8L43.512,129.05L43.955999999999996,146.85L44.548,89L44.769999999999996,133.5L44.844,133.5L45.362,-40.05000000000001L45.583999999999996,137.95L45.732,120.15L46.324,84.55L46.546,133.5L46.62,84.55L47.286,4.450000000000017L47.434,115.7L47.508,80.1L47.582,84.55L48.1,80.1L48.47,124.6L48.618,137.95L48.692,133.5L48.988,115.7L49.358000000000004,31.150000000000006L49.432,142.4L49.654,48.95000000000002L50.098000000000006,57.849999999999994L50.172000000000004,71.2L50.32,133.5L50.542,102.35000000000001L50.690000000000005,137.95L50.764,133.5L50.912,102.35000000000001L51.059999999999995,71.2L51.13399999999999,115.7L51.651999999999994,75.65L52.244,80.1L52.318,137.95L52.391999999999996,106.8L52.687999999999995,111.25L53.428,115.7L53.501999999999995,133.5L53.65,35.599999999999994L53.946,-44.5L54.168,-66.75L54.242,124.6L54.316,4.450000000000017L54.538,129.05L55.426,75.65L55.87,146.85L56.092,71.2L56.24,124.6L56.314,133.5L56.462,120.15L56.758,115.7L57.054,97.89999999999999L57.202,120.15L57.572,80.1L58.608000000000004,17.799999999999983L58.978,115.7L59.05200000000001,97.89999999999999L59.348000000000006,80.1L59.422000000000004,111.25L59.718,120.15L59.792,97.89999999999999L59.940000000000005,89L60.162,111.25L60.532,120.15L60.605999999999995,-48.94999999999999L60.68,146.85L61.05,-22.25L61.123999999999995,115.7L61.19799999999999,102.35000000000001L61.419999999999995,-44.5L62.086,-8.900000000000006L62.233999999999995,71.2L62.678,120.15L63.122,75.65L63.196,129.05L63.64,48.95000000000002L63.862,102.35000000000001L64.158,111.25L64.454,31.150000000000006L64.602,129.05L64.898,142.4L64.972,129.05L65.046,102.35000000000001L65.194,124.6L65.56400000000001,146.85L65.934,111.25L66.008,57.849999999999994L66.08200000000001,111.25L67.19200000000001,-66.75L67.71000000000001,106.8L68.154,22.25L68.22800000000001,62.3L68.376,22.25L68.524,80.1L68.82000000000001,57.849999999999994L69.48599999999999,71.2L69.634,133.5L69.708,26.700000000000017L69.92999999999999,129.05L70.374,124.6L70.966,102.35000000000001L71.03999999999999,-4.449999999999989L71.262,115.7L71.336,44.5L72.002,-66.75L72.076,106.8L72.89,-17.80000000000001L73.112,102.35000000000001L73.18599999999999,120.15L73.334,120.15L73.482,71.2L74.51799999999999,22.25L74.888,146.85L75.036,71.2L75.258,129.05L75.40599999999999,120.15L75.776,115.7L75.85,-40.05000000000001L76.294,129.05L76.442,115.7L76.516,31.150000000000006L76.664,31.150000000000006L76.738,146.85L76.96000000000001,84.55L77.108,115.7L77.478,80.1L77.552,120.15L78.21799999999999,26.700000000000017L78.366,111.25L78.66199999999999,89L78.736,97.89999999999999L78.81,115.7L79.106,-66.75L79.402,102.35000000000001L79.476,57.849999999999994L79.698,84.55L79.846,124.6L79.92,-31.150000000000006L79.994,80.1L80.06800000000001,120.15L80.142,129.05L80.21600000000001,-66.75L80.364,133.5L80.438,129.05L80.808,133.5L80.882,133.5L81.178,124.6L81.4,106.8L81.548,137.95L81.992,-66.75L82.14,62.3L82.51,4.450000000000017L82.806,-66.75L82.88000000000001,0L83.028,111.25L83.916,-66.75L84.434,-66.75L84.508,133.5L84.65599999999999,111.25L84.73,115.7L84.80399999999999,-66.75L84.878,133.5L85.026,97.89999999999999L85.24799999999999,0L85.544,-66.75L85.618,-66.75L85.914,22.25L86.136,129.05L86.43199999999999,89L86.654,142.4L86.728,129.05L86.802,93.45L86.87599999999999,124.6L86.95,133.5L87.098,48.95000000000002L87.172,124.6L87.24600000000001,93.45L87.46799999999999,26.700000000000017L87.542,-35.599999999999994L87.616,111.25L87.764,142.4L87.91199999999999,111.25L87.986,97.89999999999999L88.50399999999999,-66.75L88.726,129.05L89.022,89L89.244,115.7L89.392,142.4L89.53999999999999,-66.75L89.836,115.7L90.132,102.35000000000001L90.35400000000001,-66.75L90.428,-66.75L90.50200000000001,4.450000000000017L90.576,-66.75L91.02,120.15L91.464,-17.80000000000001L91.612,102.35000000000001L91.686,-66.75L91.98200000000001,137.95L92.204,-66.75L92.278,106.8L92.5,120.15L92.574,124.6L92.648,44.5L92.796,97.89999999999999L92.944,115.7L93.388,89L93.61,80.1L93.684,129.05L93.90599999999999,124.6L93.98,102.35000000000001L94.05399999999999,71.2L94.202,-8.900000000000006L94.276,93.45L94.72,35.599999999999994L95.016,-66.75L95.08999999999999,115.7L95.238,137.95L95.386,80.1L95.53399999999999,102.35000000000001L95.608,137.95L95.68199999999999,106.8L95.756,93.45L95.83,133.5L96.052,111.25L96.2,124.6L96.348,35.599999999999994L96.57,115.7L96.71799999999999,129.05L96.792,120.15L96.866,124.6L97.31,97.89999999999999L97.384,115.7L97.53200000000001,133.5L97.75399999999999,75.65L98.05,80.1L98.272,75.65L98.494,-66.75L98.71600000000001,-66.75L98.864,106.8L99.012,106.8L99.382,97.89999999999999L99.60400000000001,53.400000000000006L99.75200000000001,129.05L100.862,102.35000000000001L101.158,84.55L101.306,-66.75L101.38000000000001,62.3L101.676,111.25L101.824,129.05L101.898,-8.900000000000006L102.11999999999999,115.7L102.26799999999999,66.75L102.416,-66.75L102.638,89L102.786,-66.75L102.86,8.900000000000006L103.008,-17.80000000000001L103.30399999999999,26.700000000000017L103.6,-22.25L104.118,35.599999999999994L104.192,84.55L104.266,102.35000000000001L104.33999999999999,0L104.488,129.05L104.71000000000001,115.7L104.78399999999999,120.15L104.858,93.45L105.08,-66.75L105.154,124.6L105.228,-66.75L105.302,4.450000000000017L105.894,8.900000000000006L105.96799999999999,66.75L106.19,-66.75L106.708,40.04999999999998L106.93,48.95000000000002L107.522,-8.900000000000006L107.744,-66.75L107.81800000000001,124.6L107.892,35.599999999999994L108.114,124.6L108.188,-22.25L108.336,115.7L108.484,-66.75L108.85400000000001,84.55L108.928,31.150000000000006L109.224,-66.75L109.298,-66.75L109.372,62.3L109.44600000000001,129.05L109.66799999999999,111.25L109.742,111.25L109.816,40.04999999999998L110.03800000000001,-66.75L110.112,106.8L110.704,129.05L111,-22.25L111.296,-66.75L111.36999999999999,53.400000000000006L111.592,120.15L111.814,-66.75L111.888,115.7L111.96199999999999,-66.75L112.036,129.05L112.258,-31.150000000000006L112.85,26.700000000000017L112.99799999999999,-66.75L113.14599999999999,124.6L113.294,-66.75L113.368,-26.69999999999999L113.58999999999999,44.5L113.738,22.25L113.886,48.95000000000002L114.256,93.45L114.774,-66.75L114.848,106.8L115.07,-66.75L115.21799999999999,-66.75L115.66199999999999,137.95L115.736,137.95L115.884,129.05L116.03200000000001,-66.75L116.328,97.89999999999999L116.62400000000001,-66.75L118.77,-66.75L119.436,102.35000000000001L119.584,115.7L119.806,-26.69999999999999L120.324,-66.75L120.61999999999999,62.3L120.842,120.15L120.916,66.75L120.99,-66.75L121.21199999999999,111.25L122.026,-66.75L122.24799999999999,93.45L122.47,57.849999999999994L122.544,129.05L122.618,40.04999999999998L122.83999999999999,146.85L122.914,-66.75L124.32,-66.75L124.46799999999999,133.5L124.542,71.2L124.69,57.849999999999994L124.764,124.6L124.986,115.7L125.208,-66.75L125.28200000000001,48.95000000000002L125.43,84.55L125.578,-66.75L125.726,-66.75L125.87400000000001,57.849999999999994L126.096,57.849999999999994L126.244,129.05L126.392,133.5L126.53999999999999,102.35000000000001L126.688,137.95L126.836,142.4L127.576,-66.75L128.168,-66.75L128.24200000000002,106.8L128.316,142.4L128.464,93.45L128.686,-13.349999999999994L128.908,62.3L129.056,-66.75L129.27800000000002,17.799999999999983L129.72199999999998,-44.5L130.092,-66.75L130.314,93.45L130.388,120.15L130.462,8.900000000000006L130.684,-66.75L131.276,-66.75L131.646,44.5L131.79399999999998,120.15L132.238,137.95L132.534,-66.75L132.608,40.04999999999998L132.682,40.04999999999998L132.756,-66.75L133.20000000000002,-66.75L133.422,48.95000000000002L133.94,124.6L134.088,102.35000000000001L134.31,124.6L134.38400000000001,-66.75L134.606,-66.75L134.68,124.6L135.04999999999998,124.6L135.124,102.35000000000001L135.198,-66.75L135.42000000000002,8.900000000000006L135.642,62.3L135.716,97.89999999999999L135.79,97.89999999999999L135.864,124.6L135.938,35.599999999999994L136.382,62.3L136.826,66.75L137.27,129.05L137.566,44.5L137.714,26.700000000000017L138.084,22.25L138.38,-35.599999999999994L139.046,-66.75L139.268,26.700000000000017L139.416,-66.75L139.49,-13.349999999999994L139.712,111.25L139.786,89L139.934,-66.75L141.562,-31.150000000000006L141.636,120.15L141.71,-66.75L142.006,-66.75L142.228,75.65L142.524,-48.94999999999999L142.672,-35.599999999999994L142.968,75.65L143.042,115.7L143.11599999999999,89L143.264,-66.75L143.412,-62.30000000000001L143.56,40.04999999999998L143.708,120.15L144.29999999999998,66.75L144.67000000000002,-57.849999999999994L144.744,120.15L145.41,-44.5L145.484,62.3L146.298,-66.75L146.668,133.5L146.89000000000001,-66.75L146.964,-13.349999999999994L147.186,111.25L147.334,-66.75L148.222,-66.75L148.444,44.5L148.592,124.6L148.666,120.15L148.73999999999998,115.7L149.332,44.5L149.702,124.6L149.776,-66.75L149.99800000000002,-8.900000000000006L150.516,53.400000000000006L150.66400000000002,26.700000000000017L151.404,8.900000000000006L151.774,48.95000000000002L151.848,57.849999999999994L151.99599999999998,-66.75L152.07000000000002,115.7L152.514,-66.75L152.588,66.75L153.032,22.25L153.106,-66.75L154.06799999999998,-66.75L154.216,53.400000000000006L154.512,17.799999999999983L155.178,-66.75L155.32600000000002,57.849999999999994L155.548,31.150000000000006L155.696,62.3L155.77,115.7L156.14,-66.75L157.32399999999998,-66.75L157.398,93.45L157.472,115.7L157.62,8.900000000000006L157.768,48.95000000000002L158.138,84.55L158.36,-66.75L158.50799999999998,124.6L158.73,0L158.952,120.15L159.24800000000002,-66.75L159.47,57.849999999999994L159.766,-22.25L159.84,48.95000000000002L159.91400000000002,84.55L160.43200000000002,-13.349999999999994L160.57999999999998,124.6L160.728,-66.75L161.024,-66.75L161.468,26.700000000000017L161.54199999999997,-13.349999999999994L161.838,133.5L162.134,-66.75L162.356,26.700000000000017L162.42999999999998,-66.75L162.50400000000002,-66.75L162.578,115.7L162.726,-66.75L163.54,-66.75L163.91,93.45L164.058,-40.05000000000001L164.132,31.150000000000006L164.206,-48.94999999999999L165.168,-66.75L165.24200000000002,115.7L165.316,129.05L165.39,-66.75L165.908,-66.75L165.982,75.65L166.13,66.75L166.204,-31.150000000000006L166.278,53.400000000000006L166.5,53.400000000000006L166.648,111.25L166.722,-66.75L166.796,44.5L167.462,53.400000000000006L167.684,129.05L168.35,-66.75L168.794,115.7L168.868,-66.75L169.31199999999998,129.05L169.38600000000002,31.150000000000006L169.46,115.7L169.60799999999998,84.55L170.052,106.8L170.49599999999998,-40.05000000000001L170.57000000000002,66.75L171.162,89L171.236,-17.80000000000001L171.45800000000003,8.900000000000006L171.67999999999998,-66.75L171.976,-40.05000000000001L172.124,142.4L172.42000000000002,137.95L172.86399999999998,124.6L173.16,97.89999999999999L173.234,129.05L173.456,133.5L173.604,-66.75L173.82600000000002,124.6L174.122,75.65L174.27,-66.75L174.418,97.89999999999999L174.49200000000002,-66.75L174.566,129.05L175.084,120.15L175.232,97.89999999999999L175.306,89L175.75,-66.75L175.82399999999998,-66.75L175.898,115.7L176.046,-66.75L176.194,-66.75L177.082,93.45L177.74800000000002,-66.75L178.044,137.95L178.41400000000002,71.2L178.488,-66.75L178.85799999999998,146.85L178.93200000000002,137.95L179.006,-66.75L179.302,106.8L179.376,31.150000000000006L179.82000000000002,4.450000000000017L180.116,-66.75L180.19,-66.75L180.264,111.25L180.412,129.05L180.486,-66.75L181.226,-66.75L181.448,93.45L181.67000000000002,93.45L181.89200000000002,142.4L182.04,89L182.484,124.6L182.558,111.25L182.706,-26.69999999999999L182.854,-66.75L183.52,111.25L183.594,-35.599999999999994L183.668,115.7L183.74200000000002,-35.599999999999994L184.778,129.05L185.07399999999998,-66.75L185.444,-66.75L185.666,102.35000000000001L185.73999999999998,-66.75L185.962,146.85L186.11,-8.900000000000006L186.25799999999998,75.65L186.628,75.65L186.85,133.5L186.99800000000002,133.5L187.072,-66.75L187.22,-66.75L187.442,26.700000000000017L187.66400000000002,120.15L187.81199999999998,-48.94999999999999L188.034,13.349999999999994L188.256,80.1L188.32999999999998,129.05L188.552,-66.75L188.774,22.25L189.366,75.65L189.44,124.6L189.588,-66.75L189.95800000000003,129.05L190.328,-66.75L190.402,71.2L190.476,-66.75L190.624,89L190.698,17.799999999999983L190.846,-66.75L190.994,-66.75L191.216,111.25L191.29,-62.30000000000001L191.956,-8.900000000000006L192.104,4.450000000000017L192.548,-66.75L192.622,80.1L192.696,89L192.77,120.15L192.844,-17.80000000000001L193.21400000000003,-66.75L193.43599999999998,115.7L193.51000000000002,31.150000000000006L193.732,-66.75L193.88,142.4L194.028,84.55L194.102,-66.75L194.17600000000002,106.8L194.472,71.2L194.768,-66.75L194.842,111.25L194.916,26.700000000000017L195.212,31.150000000000006L195.28599999999997,75.65L195.434,89L195.50799999999998,93.45L195.656,48.95000000000002L195.73,-66.75L195.804,-44.5L195.952,115.7L196.026,-66.75L196.17399999999998,-66.75L196.396,40.04999999999998L196.544,146.85L196.618,-57.849999999999994L197.06199999999998,57.849999999999994L197.13600000000002,133.5L197.21,129.05L197.506,75.65L197.654,-31.150000000000006L198.616,-31.150000000000006L198.838,137.95L198.986,-4.449999999999989L199.134,-4.449999999999989L199.20800000000003,57.849999999999994L199.50400000000002,-31.150000000000006L199.652,106.8L199.726,44.5L199.8,66.75L200.022,-26.69999999999999L200.096,62.3L200.31799999999998,133.5L200.39200000000002,137.95L200.61399999999998,-66.75L200.83599999999998,111.25L201.132,-57.849999999999994L201.57600000000002,-66.75L201.65,115.7L201.872,80.1L201.946,-66.75L202.094,26.700000000000017L202.24200000000002,-66.75L202.316,-66.75L202.46400000000003,124.6L202.538,97.89999999999999L202.68599999999998,133.5L202.76000000000002,-66.75L202.834,13.349999999999994L202.908,93.45L203.056,40.04999999999998L203.204,-66.75L203.278,-66.75L203.57399999999998,31.150000000000006L203.648,80.1L203.796,75.65L204.018,48.95000000000002L204.166,-66.75L204.388,93.45L205.276,-66.75L206.16400000000002,-66.75L206.31199999999998,66.75L206.534,62.3L206.978,115.7L207.052,111.25L207.2,44.5L207.422,89L207.644,-66.75L207.718,-66.75L207.79199999999997,142.4L208.45800000000003,-66.75L208.606,-66.75L208.67999999999998,115.7L208.828,-66.75L208.976,8.900000000000006L209.198,111.25L209.56799999999998,-53.400000000000006L209.716,-66.75L209.79,66.75L209.86399999999998,-66.75L209.93800000000002,80.1L210.53,-26.69999999999999L211.196,137.95L211.566,102.35000000000001L212.158,-66.75L212.232,66.75L212.454,-4.449999999999989L212.972,-35.599999999999994L213.268,137.95L213.48999999999998,133.5L213.712,-48.94999999999999L213.86,-48.94999999999999L214.00799999999998,66.75L214.6,71.2L214.74800000000002,-66.75L214.896,62.3L215.044,-66.75L215.41400000000002,57.849999999999994L215.784,129.05L216.376,17.799999999999983L216.45,-66.75L216.524,80.1L216.82000000000002,-66.75L217.04199999999997,22.25L217.264,-48.94999999999999L217.856,-48.94999999999999L218.00400000000002,111.25L218.3,-66.75L218.374,102.35000000000001L218.448,-57.849999999999994L218.522,97.89999999999999L218.67000000000002,-53.400000000000006L219.04,-26.69999999999999L219.262,93.45L219.33599999999998,-8.900000000000006L220.15,-66.75L220.446,129.05L220.594,133.5L220.74200000000002,44.5L220.89,62.3L220.96400000000003,-66.75L221.112,4.450000000000017L221.334,93.45L221.482,-66.75L221.704,40.04999999999998L221.852,-66.75L222.148,-66.75L222.222,17.799999999999983L222.962,120.15L223.03599999999997,-66.75L223.184,17.799999999999983L223.25799999999998,80.1L223.332,35.599999999999994L223.406,-66.75L223.628,129.05L223.702,-66.75L223.85,-40.05000000000001L224.072,93.45L224.22,146.85L224.368,40.04999999999998L224.516,-4.449999999999989L225.18200000000002,-17.80000000000001L225.256,97.89999999999999L225.478,44.5L225.626,106.8L225.774,124.6L225.922,106.8L226.07000000000002,-66.75L226.144,115.7L226.366,53.400000000000006L226.81,120.15L226.884,17.799999999999983L227.17999999999998,-17.80000000000001L227.402,-66.75L227.624,22.25L227.772,-66.75L227.846,35.599999999999994L228.14200000000002,-66.75L228.43800000000002,62.3L228.66,-66.75L228.734,-66.75L228.808,71.2L228.882,-66.75L229.104,31.150000000000006L229.4,120.15L229.548,62.3L229.844,-66.75L229.918,-22.25L230.066,57.849999999999994L230.14,-66.75L230.51000000000002,-66.75L230.732,84.55L230.806,115.7L230.954,-66.75L231.102,-66.75L231.25,89L231.32399999999998,-66.75L231.546,-66.75L231.62,129.05L231.768,-66.75L231.98999999999998,84.55L232.06400000000002,53.400000000000006L232.212,102.35000000000001L232.656,31.150000000000006L232.878,-66.75L233.1,-44.5L233.17399999999998,13.349999999999994L233.47,-57.849999999999994L233.91400000000002,-66.75L234.876,120.15L235.172,-66.75L235.32000000000002,111.25L235.69,-66.75L235.912,120.15L236.06,106.8L236.356,-66.75L236.726,115.7L237.022,120.15L237.31799999999998,133.5L237.54,17.799999999999983L238.206,84.55L238.65,115.7L239.39,111.25L239.46400000000003,93.45L239.538,-66.75L239.76000000000002,97.89999999999999L239.834,102.35000000000001L240.204,106.8L240.352,-66.75L240.648,-66.75L240.722,106.8L240.796,-66.75L241.018,-66.75L241.092,40.04999999999998L241.684,129.05L241.906,48.95000000000002L242.35,111.25L242.646,93.45L243.38600000000002,115.7L243.46,62.3L243.534,8.900000000000006L244.052,97.89999999999999L244.422,35.599999999999994L244.644,142.4L244.79199999999997,-66.75L244.866,-22.25L244.94,57.849999999999994L245.014,-13.349999999999994L245.976,-66.75L246.198,75.65L246.346,120.15L246.42000000000002,111.25L246.56799999999998,115.7L246.93800000000002,133.5L247.456,22.25L247.604,-66.75L248.788,-66.75L249.454,89L249.528,93.45L249.75,53.400000000000006L249.972,44.5L250.12,106.8L250.194,17.799999999999983L250.638,102.35000000000001L250.86,133.5L250.934,115.7L251.082,115.7L251.304,44.5L251.452,106.8L251.6,66.75L251.822,106.8L251.896,-4.449999999999989L251.97,48.95000000000002L252.488,53.400000000000006L252.85799999999998,102.35000000000001L253.006,26.700000000000017L253.07999999999998,57.849999999999994L253.154,93.45L253.45,115.7L253.524,57.849999999999994L253.894,0L253.968,-66.75L254.264,-62.30000000000001L254.486,129.05L254.56,-66.75L254.70800000000003,120.15L255.226,48.95000000000002L255.3,111.25L255.67000000000002,35.599999999999994L256.558,80.1L256.928,80.1L257.076,35.599999999999994L257.15000000000003,62.3L257.372,120.15L257.446,-66.75L258.112,4.450000000000017L258.55600000000004,106.8L258.85200000000003,120.15L258.926,129.05" fill="none"></path></g></g></g></g></g></g><g transform="translate(34, 178)" clip-path="url(#clip_1)"><clipPath id="clip_1"><rect width="296" height="22"></rect></clipPath><g><g><line x1="0" y1="0" x2="0" y2="5" style="visibility: inherit;" fill="rgb(0, 0, 0)" stroke="rgb(204, 204, 204)" stroke-width="1px"></line><line x1="37" y1="0" x2="37" y2="5" style="visibility: inherit;" fill="rgb(0, 0, 0)" stroke="rgb(204, 204, 204)" stroke-width="1px"></line><line x1="74" y1="0" x2="74" y2="5" style="visibility: inherit;" fill="rgb(0, 0, 0)" stroke="rgb(204, 204, 204)" stroke-width="1px"></line><line x1="111" y1="0" x2="111" y2="5" style="visibility: inherit;" fill="rgb(0, 0, 0)" stroke="rgb(204, 204, 204)" stroke-width="1px"></line><line x1="148" y1="0" x2="148" y2="5" style="visibility: inherit;" fill="rgb(0, 0, 0)" stroke="rgb(204, 204, 204)" stroke-width="1px"></line><line x1="185" y1="0" x2="185" y2="5" style="visibility: inherit;" fill="rgb(0, 0, 0)" stroke="rgb(204, 204, 204)" stroke-width="1px"></line><line x1="222" y1="0" x2="222" y2="5" style="visibility: inherit;" fill="rgb(0, 0, 0)" stroke="rgb(204, 204, 204)" stroke-width="1px"></line><line x1="259" y1="0" x2="259" y2="5" style="visibility: inherit;" fill="rgb(0, 0, 0)" stroke="rgb(204, 204, 204)" stroke-width="1px"></line><line x1="296" y1="0" x2="296" y2="5" style="visibility: inherit;" fill="rgb(0, 0, 0)" stroke="rgb(204, 204, 204)" stroke-width="1px"></line></g><g transform="translate(0, 8)"><text x="0" y="0" dx="0em" dy="0.95em" style="text-anchor: middle; visibility: hidden; font-family: &quot;Helvetica Neue&quot;, sans-serif; font-size: 12px; font-weight: 200;" fill="rgb(50, 49, 63)" stroke="none" stroke-width="1px">-500</text><text x="37" y="0" dx="0em" dy="0.95em" style="text-anchor: middle; visibility: inherit; font-family: &quot;Helvetica Neue&quot;, sans-serif; font-size: 12px; font-weight: 200;" fill="rgb(50, 49, 63)" stroke="none" stroke-width="1px">0</text><text x="74" y="0" dx="0em" dy="0.95em" style="text-anchor: middle; visibility: inherit; font-family: &quot;Helvetica Neue&quot;, sans-serif; font-size: 12px; font-weight: 200;" fill="rgb(50, 49, 63)" stroke="none" stroke-width="1px">500</text><text x="111" y="0" dx="0em" dy="0.95em" style="text-anchor: middle; visibility: inherit; font-family: &quot;Helvetica Neue&quot;, sans-serif; font-size: 12px; font-weight: 200;" fill="rgb(50, 49, 63)" stroke="none" stroke-width="1px">1k</text><text x="148" y="0" dx="0em" dy="0.95em" style="text-anchor: middle; visibility: inherit; font-family: &quot;Helvetica Neue&quot;, sans-serif; font-size: 12px; font-weight: 200;" fill="rgb(50, 49, 63)" stroke="none" stroke-width="1px">1.5k</text><text x="185" y="0" dx="0em" dy="0.95em" style="text-anchor: middle; visibility: inherit; font-family: &quot;Helvetica Neue&quot;, sans-serif; font-size: 12px; font-weight: 200;" fill="rgb(50, 49, 63)" stroke="none" stroke-width="1px">2k</text><text x="222" y="0" dx="0em" dy="0.95em" style="text-anchor: middle; visibility: inherit; font-family: &quot;Helvetica Neue&quot;, sans-serif; font-size: 12px; font-weight: 200;" fill="rgb(50, 49, 63)" stroke="none" stroke-width="1px">2.5k</text><text x="259" y="0" dx="0em" dy="0.95em" style="text-anchor: middle; visibility: inherit; font-family: &quot;Helvetica Neue&quot;, sans-serif; font-size: 12px; font-weight: 200;" fill="rgb(50, 49, 63)" stroke="none" stroke-width="1px">3k</text><text x="296" y="0" dx="0em" dy="0.95em" style="text-anchor: middle; visibility: hidden; font-family: &quot;Helvetica Neue&quot;, sans-serif; font-size: 12px; font-weight: 200;" fill="rgb(50, 49, 63)" stroke="none" stroke-width="1px">3.5k</text></g><line x1="0" y1="0" x2="296" y2="0" fill="rgb(0, 0, 0)" stroke="rgb(204, 204, 204)" stroke-width="1px"></line></g></g></g></g></svg>